[
  [
    {
      "duration": 0.13875000000007276,
      "end": 0.13875000000007276,
      "pitch": 65,
      "start": 0,
      "velocity": 77
    },
    {
      "duration": 0.1401562500000182,
      "end": 0.20411458333319388,
      "pitch": 63,
      "start": 0.06395833333317569,
      "velocity": 79
    },
    {
      "duration": 0.15682291666689707,
      "end": 0.25078125000027285,
      "pitch": 51,
      "start": 0.09395833333337578,
      "velocity": 81
    },
    {
      "duration": 0.09822916666644232,
      "end": 0.263541666666697,
      "pitch": 60,
      "start": 0.16531250000025466,
      "velocity": 83
    },
    {
      "duration": 0.10546875,
      "end": 0.3041145833335577,
      "pitch": 48,
      "start": 0.19864583333355768,
      "velocity": 76
    },
    {
      "duration": 0.10151041666676974,
      "end": 0.34682291666695164,
      "pitch": 45,
      "start": 0.2453125000001819,
      "velocity": 87
    },
    {
      "duration": 0.10020833333328483,
      "end": 0.36286458333324845,
      "pitch": 57,
      "start": 0.2626562499999636,
      "velocity": 96
    },
    {
      "duration": 0.07270833333313931,
      "end": 0.7553124999999454,
      "pitch": 53,
      "start": 0.6826041666668061,
      "velocity": 100
    },
    {
      "duration": 0.10359375000007276,
      "end": 0.7948437499999272,
      "pitch": 41,
      "start": 0.6912499999998545,
      "velocity": 97
    },
    {
      "duration": 0.5347916666669335,
      "end": 1.644010416666788,
      "pitch": 57,
      "start": 1.1092187499998545,
      "velocity": 99
    },
    {
      "duration": 0.048333333333630435,
      "end": 1.1589062500002,
      "pitch": 29,
      "start": 1.1105729166665697,
      "velocity": 94
    },
    {
      "duration": 0.5324479166665697,
      "end": 1.644010416666788,
      "pitch": 41,
      "start": 1.1115625000002183,
      "velocity": 95
    },
    {
      "duration": 0.5313541666669153,
      "end": 1.644010416666788,
      "pitch": 69,
      "start": 1.1126562499998727,
      "velocity": 97
    },
    {
      "duration": 0.13354166666658784,
      "end": 1.6921354166665878,
      "pitch": 50,
      "start": 1.55859375,
      "velocity": 80
    },
    {
      "duration": 0.1281770833329574,
      "end": 1.6995312499998363,
      "pitch": 62,
      "start": 1.5713541666668789,
      "velocity": 81
    },
    {
      "duration": 0.17848958333343035,
      "end": 1.8454687500002365,
      "pitch": 65,
      "start": 1.6669791666668061,
      "velocity": 82
    },
    {
      "duration": 0.10890625000001819,
      "end": 1.7868229166665515,
      "pitch": 53,
      "start": 1.6779166666665333,
      "velocity": 74
    },
    {
      "duration": 0.16526041666656965,
      "end": 1.9071874999999636,
      "pitch": 63,
      "start": 1.741927083333394,
      "velocity": 76
    },
    {
      "duration": 0.17083333333357587,
      "end": 1.9374479166667697,
      "pitch": 51,
      "start": 1.7666145833331939,
      "velocity": 79
    },
    {
      "duration": 0.1515625000001819,
      "end": 1.9928125000001273,
      "pitch": 59,
      "start": 1.8412499999999454,
      "velocity": 83
    },
    {
      "duration": 0.0695312500001819,
      "end": 1.9641145833334122,
      "pitch": 47,
      "start": 1.8945833333332303,
      "velocity": 64
    },
    {
      "duration": 0.08755208333377595,
      "end": 2.0214583333336122,
      "pitch": 45,
      "start": 1.9339062499998363,
      "velocity": 95
    },
    {
      "duration": 0.08588541666676974,
      "end": 2.0387500000001637,
      "pitch": 57,
      "start": 1.952864583333394,
      "velocity": 99
    },
    {
      "duration": 0.09421874999998181,
      "end": 2.4675000000002,
      "pitch": 41,
      "start": 2.3732812500002183,
      "velocity": 89
    },
    {
      "duration": 0.09052083333335759,
      "end": 2.464114583333412,
      "pitch": 53,
      "start": 2.3735937500000546,
      "velocity": 101
    },
    {
      "duration": 0.11020833333304836,
      "end": 2.920781249999891,
      "pitch": 45,
      "start": 2.8105729166668425,
      "velocity": 100
    },
    {
      "duration": 0.06005208333317569,
      "end": 2.876093750000109,
      "pitch": 57,
      "start": 2.8160416666669335,
      "velocity": 101
    },
    {
      "duration": 0.08020833333330302,
      "end": 3.3614062500000728,
      "pitch": 39,
      "start": 3.2811979166667697,
      "velocity": 97
    },
    {
      "duration": 0.04421875000025466,
      "end": 3.350781250000182,
      "pitch": 51,
      "start": 3.3065624999999272,
      "velocity": 75
    },
    {
      "duration": 0.09619791666636957,
      "end": 3.6427604166665333,
      "pitch": 69,
      "start": 3.5465625000001637,
      "velocity": 95
    },
    {
      "duration": 0.5320312500002728,
      "end": 4.4319270833334485,
      "pitch": 69,
      "start": 3.8998958333331757,
      "velocity": 99
    },
    {
      "duration": 0.5300520833334303,
      "end": 4.4319270833334485,
      "pitch": 57,
      "start": 3.901875000000018,
      "velocity": 95
    },
    {
      "duration": 0.5280729166665878,
      "end": 4.4319270833334485,
      "pitch": 28,
      "start": 3.9038541666668607,
      "velocity": 96
    },
    {
      "duration": 0.5277604166667516,
      "end": 4.4319270833334485,
      "pitch": 40,
      "start": 3.904166666666697,
      "velocity": 100
    },
    {
      "duration": 0.14052083333308474,
      "end": 4.500989583333194,
      "pitch": 50,
      "start": 4.360468750000109,
      "velocity": 85
    },
    {
      "duration": 0.19135416666676974,
      "end": 4.5527604166668425,
      "pitch": 62,
      "start": 4.361406250000073,
      "velocity": 81
    },
    {
      "duration": 0.13031249999994543,
      "end": 4.586822916666733,
      "pitch": 53,
      "start": 4.456510416666788,
      "velocity": 77
    },
    {
      "duration": 0.12677083333346673,
      "end": 4.613385416666915,
      "pitch": 65,
      "start": 4.4866145833334485,
      "velocity": 76
    },
    {
      "duration": 0.13343750000012733,
      "end": 4.664687500000127,
      "pitch": 64,
      "start": 4.53125,
      "velocity": 75
    },
    {
      "duration": 0.12817708333341216,
      "end": 4.696718749999945,
      "pitch": 52,
      "start": 4.568541666666533,
      "velocity": 77
    },
    {
      "duration": 0.06822916666669698,
      "end": 4.722135416666788,
      "pitch": 60,
      "start": 4.653906250000091,
      "velocity": 76
    },
    {
      "duration": 0.10484375000032742,
      "end": 4.774687500000255,
      "pitch": 48,
      "start": 4.669843749999927,
      "velocity": 81
    },
    {
      "duration": 0.09093750000010914,
      "end": 4.8121354166669335,
      "pitch": 45,
      "start": 4.721197916666824,
      "velocity": 88
    },
    {
      "duration": 0.09416666666675155,
      "end": 4.824687499999982,
      "pitch": 57,
      "start": 4.73052083333323,
      "velocity": 88
    },
    {
      "duration": 0.11619791666680612,
      "end": 5.2480729166668425,
      "pitch": 62,
      "start": 5.131875000000036,
      "velocity": 75
    },
    {
      "duration": 0.07869791666689707,
      "end": 5.221197916666824,
      "pitch": 50,
      "start": 5.142499999999927,
      "velocity": 66
    },
    {
      "duration": 0.0996354166668425,
      "end": 5.326145833333612,
      "pitch": 53,
      "start": 5.22651041666677,
      "velocity": 78
    },
    {
      "duration": 0.14755208333326664,
      "end": 5.3827083333335395,
      "pitch": 65,
      "start": 5.235156250000273,
      "velocity": 85
    },
    {
      "duration": 0.07156249999979991,
      "end": 5.400729166666679,
      "pitch": 64,
      "start": 5.329166666666879,
      "velocity": 60
    },
    {
      "duration": 0.13885416666653327,
      "end": 5.473385416666588,
      "pitch": 52,
      "start": 5.334531250000055,
      "velocity": 70
    },
    {
      "duration": 0.10468749999972715,
      "end": 5.507187499999873,
      "pitch": 60,
      "start": 5.4025000000001455,
      "velocity": 77
    },
    {
      "duration": 0.1281250000001819,
      "end": 5.5626562500001455,
      "pitch": 48,
      "start": 5.434531249999964,
      "velocity": 74
    },
    {
      "duration": 0.08973958333308474,
      "end": 5.594739583333194,
      "pitch": 45,
      "start": 5.505000000000109,
      "velocity": 91
    },
    {
      "duration": 0.07104166666704259,
      "end": 5.585364583333558,
      "pitch": 57,
      "start": 5.514322916666515,
      "velocity": 91
    },
    {
      "duration": 0.07494791666658784,
      "end": 5.994739583333285,
      "pitch": 48,
      "start": 5.919791666666697,
      "velocity": 96
    },
    {
      "duration": 0.09619791666682431,
      "end": 6.0173437500002365,
      "pitch": 36,
      "start": 5.921145833333412,
      "velocity": 100
    },
    {
      "duration": 0.07880208333290284,
      "end": 6.234687499999836,
      "pitch": 69,
      "start": 6.1558854166669335,
      "velocity": 92
    },
    {
      "duration": 0.5260416666665151,
      "end": 6.994947916666661,
      "pitch": 57,
      "start": 6.4689062500001455,
      "velocity": 95
    },
    {
      "duration": 0.5254687500000728,
      "end": 6.994947916666661,
      "pitch": 69,
      "start": 6.469479166666588,
      "velocity": 88
    },
    {
      "duration": 0.5204687499999636,
      "end": 6.994947916666661,
      "pitch": 26,
      "start": 6.474479166666697,
      "velocity": 95
    },
    {
      "duration": 0.517135416666406,
      "end": 6.994947916666661,
      "pitch": 38,
      "start": 6.477812500000255,
      "velocity": 94
    },
    {
      "duration": 0.1282291666666424,
      "end": 7.0506770833335395,
      "pitch": 60,
      "start": 6.922447916666897,
      "velocity": 84
    },
    {
      "duration": 0.1422395833333212,
      "end": 7.0680729166665515,
      "pitch": 48,
      "start": 6.92583333333323,
      "velocity": 84
    },
    {
      "duration": 0.1656249999996362,
      "end": 7.190781249999873,
      "pitch": 64,
      "start": 7.0251562500002365,
      "velocity": 81
    },
    {
      "duration": 0.09416666666675155,
      "end": 7.128645833333394,
      "pitch": 52,
      "start": 7.034479166666642,
      "velocity": 70
    },
    {
      "duration": 0.13364583333304836,
      "end": 7.238802083333212,
      "pitch": 62,
      "start": 7.105156250000164,
      "velocity": 74
    },
    {
      "duration": 0.14411458333324845,
      "end": 7.254583333333358,
      "pitch": 50,
      "start": 7.110468750000109,
      "velocity": 80
    },
    {
      "duration": 0.10500000000001819,
      "end": 7.308125000000018,
      "pitch": 59,
      "start": 7.203125,
      "velocity": 82
    },
    {
      "duration": 0.10281250000025466,
      "end": 7.318593750000218,
      "pitch": 47,
      "start": 7.215781249999964,
      "velocity": 71
    },
    {
      "duration": 0.10911458333293922,
      "end": 7.389999999999873,
      "pitch": 45,
      "start": 7.2808854166669335,
      "velocity": 89
    },
    {
      "duration": 0.08156250000001819,
      "end": 7.3827083333335395,
      "pitch": 57,
      "start": 7.301145833333521,
      "velocity": 87
    },
    {
      "duration": 0.06072916666698802,
      "end": 7.7526562500002,
      "pitch": 50,
      "start": 7.691927083333212,
      "velocity": 91
    },
    {
      "duration": 0.050208333333557675,
      "end": 7.743958333333467,
      "pitch": 38,
      "start": 7.693749999999909,
      "velocity": 90
    },
    {
      "duration": 0.07687500000020009,
      "end": 8.213333333333594,
      "pitch": 57,
      "start": 8.136458333333394,
      "velocity": 93
    },
    {
      "duration": 0.09218749999990905,
      "end": 8.246614583333212,
      "pitch": 45,
      "start": 8.154427083333303,
      "velocity": 93
    },
    {
      "duration": 0.0535416666666606,
      "end": 8.687968749999982,
      "pitch": 52,
      "start": 8.634427083333321,
      "velocity": 86
    },
    {
      "duration": 0.0534895833329756,
      "end": 8.693281249999927,
      "pitch": 40,
      "start": 8.639791666666952,
      "velocity": 90
    },
    {
      "duration": 0.062135416666478704,
      "end": 8.941927083333212,
      "pitch": 69,
      "start": 8.879791666666733,
      "velocity": 86
    },
    {
      "duration": 0.7699479166667516,
      "end": 10.040416666666715,
      "pitch": 69,
      "start": 9.270468749999964,
      "velocity": 86
    },
    {
      "duration": 0.7659895833335213,
      "end": 10.040416666666715,
      "pitch": 57,
      "start": 9.274427083333194,
      "velocity": 84
    },
    {
      "duration": 0.7468749999998181,
      "end": 10.040416666666715,
      "pitch": 33,
      "start": 9.293541666666897,
      "velocity": 83
    },
    {
      "duration": 0.7459374999998545,
      "end": 10.040416666666715,
      "pitch": 45,
      "start": 9.29447916666686,
      "velocity": 88
    },
    {
      "duration": 0.12828125000032742,
      "end": 10.085364583333558,
      "pitch": 60,
      "start": 9.95708333333323,
      "velocity": 78
    },
    {
      "duration": 0.14625000000023647,
      "end": 10.117291666666915,
      "pitch": 48,
      "start": 9.971041666666679,
      "velocity": 74
    },
    {
      "duration": 0.1495312499996544,
      "end": 10.21994791666657,
      "pitch": 64,
      "start": 10.070416666666915,
      "velocity": 81
    },
    {
      "duration": 0.12041666666664241,
      "end": 10.203489583333521,
      "pitch": 52,
      "start": 10.083072916666879,
      "velocity": 64
    },
    {
      "duration": 0.11645833333341216,
      "end": 10.271927083333594,
      "pitch": 62,
      "start": 10.155468750000182,
      "velocity": 65
    },
    {
      "duration": 0.13307291666660603,
      "end": 10.3034375000002,
      "pitch": 50,
      "start": 10.170364583333594,
      "velocity": 76
    },
    {
      "duration": 0.05755208333312112,
      "end": 10.314635416666533,
      "pitch": 59,
      "start": 10.257083333333412,
      "velocity": 75
    },
    {
      "duration": 0.0734375000001819,
      "end": 10.362552083333412,
      "pitch": 47,
      "start": 10.28911458333323,
      "velocity": 36
    },
    {
      "duration": 0.06749999999965439,
      "end": 10.40124999999989,
      "pitch": 45,
      "start": 10.333750000000236,
      "velocity": 32
    },
    {
      "duration": 0.04614583333295741,
      "end": 10.387239583333212,
      "pitch": 57,
      "start": 10.341093750000255,
      "velocity": 81
    },
    {
      "duration": 0.13885416666653327,
      "end": 10.689270833333467,
      "pitch": 50,
      "start": 10.550416666666933,
      "velocity": 80
    },
    {
      "duration": 0.09265624999989086,
      "end": 10.687760416666606,
      "pitch": 62,
      "start": 10.595104166666715,
      "velocity": 40
    },
    {
      "duration": 0.06760416666656965,
      "end": 10.673281249999945,
      "pitch": 64,
      "start": 10.605677083333376,
      "velocity": 35
    },
    {
      "duration": 0.13484375000007276,
      "end": 10.795937500000036,
      "pitch": 53,
      "start": 10.661093749999964,
      "velocity": 77
    },
    {
      "duration": 0.14817708333339397,
      "end": 10.815937500000018,
      "pitch": 65,
      "start": 10.667760416666624,
      "velocity": 76
    },
    {
      "duration": 0.11958333333359406,
      "end": 10.867343750000146,
      "pitch": 64,
      "start": 10.747760416666551,
      "velocity": 77
    },
    {
      "duration": 0.12484374999985448,
      "end": 10.89057291666677,
      "pitch": 52,
      "start": 10.765729166666915,
      "velocity": 74
    },
    {
      "duration": 0.09286458333326664,
      "end": 10.93859375000011,
      "pitch": 48,
      "start": 10.845729166666843,
      "velocity": 50
    }
  ],
  [
    {
      "duration": 0.06729166666673336,
      "end": 10.923697916666697,
      "pitch": 60,
      "start": 10.856406249999964,
      "velocity": 73
    },
    {
      "duration": 0.10885416666678793,
      "end": 11.000572916666897,
      "pitch": 45,
      "start": 10.89171875000011,
      "velocity": 89
    },
    {
      "duration": 0.09281250000003638,
      "end": 11.029218749999927,
      "pitch": 57,
      "start": 10.93640624999989,
      "velocity": 86
    },
    {
      "duration": 0.14026041666693345,
      "end": 11.435989583333594,
      "pitch": 62,
      "start": 11.29572916666666,
      "velocity": 76
    },
    {
      "duration": 0.06635416666676974,
      "end": 11.375885416666733,
      "pitch": 50,
      "start": 11.309531249999964,
      "velocity": 79
    },
    {
      "duration": 0.1409374999998363,
      "end": 11.525312499999927,
      "pitch": 53,
      "start": 11.384375000000091,
      "velocity": 79
    },
    {
      "duration": 0.1390104166666788,
      "end": 11.536093749999964,
      "pitch": 65,
      "start": 11.397083333333285,
      "velocity": 84
    },
    {
      "duration": 0.1281770833329574,
      "end": 11.61057291666657,
      "pitch": 64,
      "start": 11.482395833333612,
      "velocity": 66
    },
    {
      "duration": 0.14770833333341216,
      "end": 11.649218750000273,
      "pitch": 52,
      "start": 11.50151041666686,
      "velocity": 75
    },
    {
      "duration": 0.10364583333330302,
      "end": 11.680052083333521,
      "pitch": 60,
      "start": 11.576406250000218,
      "velocity": 82
    },
    {
      "duration": 0.10885416666678793,
      "end": 11.725885416666642,
      "pitch": 48,
      "start": 11.617031249999854,
      "velocity": 75
    },
    {
      "duration": 0.09088541666687888,
      "end": 11.763281250000091,
      "pitch": 45,
      "start": 11.672395833333212,
      "velocity": 90
    },
    {
      "duration": 0.09083333333364862,
      "end": 11.770572916666879,
      "pitch": 57,
      "start": 11.67973958333323,
      "velocity": 94
    },
    {
      "duration": 0.06546875000003638,
      "end": 12.161197916666879,
      "pitch": 52,
      "start": 12.095729166666843,
      "velocity": 91
    },
    {
      "duration": 0.05343750000020009,
      "end": 12.154531250000218,
      "pitch": 40,
      "start": 12.101093750000018,
      "velocity": 93
    },
    {
      "duration": 0.06067708333330302,
      "end": 12.605677083333376,
      "pitch": 33,
      "start": 12.545000000000073,
      "velocity": 85
    },
    {
      "duration": 0.5299999999997453,
      "end": 13.07703124999989,
      "pitch": 45,
      "start": 12.547031250000146,
      "velocity": 93
    },
    {
      "duration": 0.5195833333332303,
      "end": 13.07703124999989,
      "pitch": 57,
      "start": 12.55744791666666,
      "velocity": 93
    },
    {
      "duration": 0.5175520833331575,
      "end": 13.07703124999989,
      "pitch": 69,
      "start": 12.559479166666733,
      "velocity": 94
    },
    {
      "duration": 0.09953124999992724,
      "end": 13.11057291666657,
      "pitch": 62,
      "start": 13.011041666666642,
      "velocity": 76
    },
    {
      "duration": 0.105520833333685,
      "end": 13.1198437500002,
      "pitch": 50,
      "start": 13.014322916666515,
      "velocity": 74
    },
    {
      "duration": 0.10885416666678793,
      "end": 13.20854166666686,
      "pitch": 53,
      "start": 13.099687500000073,
      "velocity": 70
    },
    {
      "duration": 0.13552083333343035,
      "end": 13.237239583333576,
      "pitch": 65,
      "start": 13.101718750000146,
      "velocity": 73
    },
    {
      "duration": 0.1355208333329756,
      "end": 13.304531249999854,
      "pitch": 64,
      "start": 13.169010416666879,
      "velocity": 64
    },
    {
      "duration": 0.14427083333293922,
      "end": 13.349322916666551,
      "pitch": 52,
      "start": 13.205052083333612,
      "velocity": 76
    },
    {
      "duration": 0.09822916666644232,
      "end": 13.375677083333358,
      "pitch": 60,
      "start": 13.277447916666915,
      "velocity": 81
    },
    {
      "duration": 0.12281249999978172,
      "end": 13.425156249999873,
      "pitch": 48,
      "start": 13.302343750000091,
      "velocity": 74
    },
    {
      "duration": 0.07911458333364862,
      "end": 13.450520833333485,
      "pitch": 45,
      "start": 13.371406249999836,
      "velocity": 86
    },
    {
      "duration": 0.06645833333323026,
      "end": 13.439843749999909,
      "pitch": 57,
      "start": 13.373385416666679,
      "velocity": 93
    },
    {
      "duration": 0.09088541666642413,
      "end": 13.875208333333376,
      "pitch": 40,
      "start": 13.784322916666952,
      "velocity": 95
    },
    {
      "duration": 0.09192708333330302,
      "end": 13.877187500000218,
      "pitch": 52,
      "start": 13.785260416666915,
      "velocity": 93
    },
    {
      "duration": 0.06218750000016371,
      "end": 14.315885416666788,
      "pitch": 57,
      "start": 14.253697916666624,
      "velocity": 97
    },
    {
      "duration": 0.08421874999976353,
      "end": 14.34651041666666,
      "pitch": 45,
      "start": 14.262291666666897,
      "velocity": 96
    },
    {
      "duration": 0.0554687499998181,
      "end": 14.824479166666606,
      "pitch": 52,
      "start": 14.769010416666788,
      "velocity": 95
    },
    {
      "duration": 0.05749999999989086,
      "end": 14.831822916666624,
      "pitch": 40,
      "start": 14.774322916666733,
      "velocity": 95
    },
    {
      "duration": 0.1034895833331575,
      "end": 15.141145833333212,
      "pitch": 68,
      "start": 15.037656250000055,
      "velocity": 95
    },
    {
      "duration": 1.7615104166666242,
      "end": 17.5104687500002,
      "pitch": 44,
      "start": 15.748958333333576,
      "velocity": 86
    },
    {
      "duration": 0.050208333333557675,
      "end": 15.800520833333394,
      "pitch": 32,
      "start": 15.750312499999836,
      "velocity": 84
    },
    {
      "duration": 1.7592187499999454,
      "end": 17.5104687500002,
      "pitch": 68,
      "start": 15.751250000000255,
      "velocity": 94
    },
    {
      "duration": 1.7581770833335213,
      "end": 17.5104687500002,
      "pitch": 56,
      "start": 15.752291666666679,
      "velocity": 84
    },
    {
      "duration": 0.1866666666664969,
      "end": 16.418958333333194,
      "pitch": 61,
      "start": 16.232291666666697,
      "velocity": 79
    },
    {
      "duration": 0.16890624999996362,
      "end": 16.42229166666675,
      "pitch": 52,
      "start": 16.253385416666788,
      "velocity": 57
    },
    {
      "duration": 0.18661458333372138,
      "end": 16.605572916666915,
      "pitch": 61,
      "start": 16.418958333333194,
      "velocity": 60
    },
    {
      "duration": 0.1799999999998363,
      "end": 16.602291666666588,
      "pitch": 52,
      "start": 16.42229166666675,
      "velocity": 36
    },
    {
      "duration": 0.4266145833335031,
      "end": 17.02890625000009,
      "pitch": 52,
      "start": 16.602291666666588,
      "velocity": 59
    },
    {
      "duration": 0.41937499999994543,
      "end": 17.02494791666686,
      "pitch": 61,
      "start": 16.605572916666915,
      "velocity": 76
    },
    {
      "duration": 0.4855208333333394,
      "end": 17.5104687500002,
      "pitch": 61,
      "start": 17.02494791666686,
      "velocity": 74
    },
    {
      "duration": 0.48156250000010914,
      "end": 17.5104687500002,
      "pitch": 52,
      "start": 17.02890625000009,
      "velocity": 64
    },
    {
      "duration": 0.47489583333344854,
      "end": 17.5104687500002,
      "pitch": 58,
      "start": 17.03557291666675,
      "velocity": 64
    },
    {
      "duration": 0.4949479166666606,
      "end": 17.532552083333485,
      "pitch": 70,
      "start": 17.037604166666824,
      "velocity": 83
    },
    {
      "duration": 0.676041666666606,
      "end": 18.191614583333376,
      "pitch": 63,
      "start": 17.51557291666677,
      "velocity": 76
    },
    {
      "duration": 0.4600000000000364,
      "end": 17.990260416666843,
      "pitch": 54,
      "start": 17.530260416666806,
      "velocity": 56
    },
    {
      "duration": 0.46166666666658784,
      "end": 17.99223958333323,
      "pitch": 56,
      "start": 17.530572916666642,
      "velocity": 63
    },
    {
      "duration": 0.8980729166669335,
      "end": 18.42963541666677,
      "pitch": 60,
      "start": 17.531562499999836,
      "velocity": 76
    },
    {
      "duration": 0.8961979166665515,
      "end": 18.42963541666677,
      "pitch": 72,
      "start": 17.53343750000022,
      "velocity": 76
    },
    {
      "duration": 0.5813541666666424,
      "end": 18.42963541666677,
      "pitch": 73,
      "start": 17.848281250000127,
      "velocity": 83
    },
    {
      "duration": 0.5740624999998545,
      "end": 18.42963541666677,
      "pitch": 61,
      "start": 17.855572916666915,
      "velocity": 66
    },
    {
      "duration": 0.43937499999992724,
      "end": 18.42963541666677,
      "pitch": 54,
      "start": 17.990260416666843,
      "velocity": 54
    },
    {
      "duration": 0.4373958333335395,
      "end": 18.42963541666677,
      "pitch": 56,
      "start": 17.99223958333323,
      "velocity": 72
    },
    {
      "duration": 0.2646875000000364,
      "end": 18.42963541666677,
      "pitch": 75,
      "start": 18.164947916666733,
      "velocity": 94
    },
    {
      "duration": 0.23802083333339397,
      "end": 18.42963541666677,
      "pitch": 63,
      "start": 18.191614583333376,
      "velocity": 68
    },
    {
      "duration": 0.11875000000009095,
      "end": 18.571718749999945,
      "pitch": 44,
      "start": 18.452968749999854,
      "velocity": 84
    },
    {
      "duration": 0.08427083333344854,
      "end": 18.545052083333303,
      "pitch": 32,
      "start": 18.460781249999854,
      "velocity": 85
    },
    {
      "duration": 0.8936979166669516,
      "end": 19.35651041666688,
      "pitch": 64,
      "start": 18.462812499999927,
      "velocity": 87
    },
    {
      "duration": 1.7733333333330847,
      "end": 20.23718749999989,
      "pitch": 76,
      "start": 18.463854166666806,
      "velocity": 95
    },
    {
      "duration": 0.20796874999996362,
      "end": 19.136875000000146,
      "pitch": 61,
      "start": 18.928906250000182,
      "velocity": 80
    },
    {
      "duration": 0.2093229166666788,
      "end": 19.14223958333332,
      "pitch": 56,
      "start": 18.932916666666642,
      "velocity": 70
    },
    {
      "duration": 0.21869791666676974,
      "end": 19.355572916666915,
      "pitch": 61,
      "start": 19.136875000000146,
      "velocity": 67
    },
    {
      "duration": 1.0983333333333576,
      "end": 20.23718749999989,
      "pitch": 78,
      "start": 19.138854166666533,
      "velocity": 93
    },
    {
      "duration": 0.20796874999996362,
      "end": 19.350208333333285,
      "pitch": 56,
      "start": 19.14223958333332,
      "velocity": 66
    },
    {
      "duration": 1.0656770833334122,
      "end": 20.208854166666697,
      "pitch": 66,
      "start": 19.143177083333285,
      "velocity": 75
    },
    {
      "duration": 0.46265625000023647,
      "end": 19.81286458333352,
      "pitch": 56,
      "start": 19.350208333333285,
      "velocity": 71
    },
    {
      "duration": 0.4286458333331211,
      "end": 19.784218750000036,
      "pitch": 61,
      "start": 19.355572916666915,
      "velocity": 54
    },
    {
      "duration": 0.4403645833331211,
      "end": 19.796875,
      "pitch": 64,
      "start": 19.35651041666688,
      "velocity": 75
    },
    {
      "duration": 0.8722395833333394,
      "end": 20.23718749999989,
      "pitch": 80,
      "start": 19.36494791666655,
      "velocity": 96
    },
    {
      "duration": 0.39468749999969077,
      "end": 19.782239583333194,
      "pitch": 68,
      "start": 19.387552083333503,
      "velocity": 74
    },
    {
      "duration": 0.4213020833335577,
      "end": 20.20354166666675,
      "pitch": 68,
      "start": 19.782239583333194,
      "velocity": 77
    },
    {
      "duration": 0.4529687499998545,
      "end": 20.23718749999989,
      "pitch": 61,
      "start": 19.784218750000036,
      "velocity": 65
    },
    {
      "duration": 0.44958333333306655,
      "end": 20.23718749999989,
      "pitch": 82,
      "start": 19.787604166666824,
      "velocity": 91
    },
    {
      "duration": 0.44031249999989086,
      "end": 20.23718749999989,
      "pitch": 64,
      "start": 19.796875,
      "velocity": 39
    },
    {
      "duration": 0.42828125000005457,
      "end": 20.23718749999989,
      "pitch": 70,
      "start": 19.808906249999836,
      "velocity": 68
    },
    {
      "duration": 0.39802083333324845,
      "end": 20.21088541666677,
      "pitch": 56,
      "start": 19.81286458333352,
      "velocity": 29
    },
    {
      "duration": 0.44468749999987267,
      "end": 20.648229166666624,
      "pitch": 68,
      "start": 20.20354166666675,
      "velocity": 81
    },
    {
      "duration": 0.8586979166666424,
      "end": 21.06755208333334,
      "pitch": 66,
      "start": 20.208854166666697,
      "velocity": 74
    },
    {
      "duration": 0.44802083333343035,
      "end": 20.6589062500002,
      "pitch": 56,
      "start": 20.21088541666677,
      "velocity": 59
    },
    {
      "duration": 0.8556770833333758,
      "end": 21.06755208333334,
      "pitch": 84,
      "start": 20.211874999999964,
      "velocity": 89
    },
    {
      "duration": 0.8533333333334667,
      "end": 21.06755208333334,
      "pitch": 63,
      "start": 20.214218749999873,
      "velocity": 68
    },
    {
      "duration": 0.13369791666673336,
      "end": 20.35192708333352,
      "pitch": 72,
      "start": 20.218229166666788,
      "velocity": 74
    },
    {
      "duration": 0.5633333333335031,
      "end": 21.06755208333334,
      "pitch": 85,
      "start": 20.504218749999836,
      "velocity": 93
    },
    {
      "duration": 0.5527083333331575,
      "end": 21.06755208333334,
      "pitch": 73,
      "start": 20.514843750000182,
      "velocity": 76
    },
    {
      "duration": 0.4193229166667152,
      "end": 21.06755208333334,
      "pitch": 68,
      "start": 20.648229166666624,
      "velocity": 81
    },
    {
      "duration": 0.4086458333331393,
      "end": 21.06755208333334,
      "pitch": 56,
      "start": 20.6589062500002,
      "velocity": 81
    },
    {
      "duration": 0.24666666666644232,
      "end": 21.06755208333334,
      "pitch": 87,
      "start": 20.820885416666897,
      "velocity": 86
    },
    {
      "duration": 0.2293229166666606,
      "end": 21.06755208333334,
      "pitch": 75,
      "start": 20.83822916666668,
      "velocity": 63
    },
    {
      "duration": 1.0293750000000728,
      "end": 22.134218749999945,
      "pitch": 88,
      "start": 21.104843749999873,
      "velocity": 84
    },
    {
      "duration": 0.9279687499997635,
      "end": 22.038177083333267,
      "pitch": 76,
      "start": 21.110208333333503,
      "velocity": 84
    },
    {
      "duration": 1.869010416666697,
      "end": 22.981197916666588,
      "pitch": 44,
      "start": 21.11218749999989,
      "velocity": 83
    },
    {
      "duration": 0.07770833333324845,
      "end": 21.19526041666677,
      "pitch": 32,
      "start": 21.11755208333352,
      "velocity": 85
    },
    {
      "duration": 0.23999999999978172,
      "end": 21.81088541666668,
      "pitch": 64,
      "start": 21.570885416666897,
      "velocity": 76
    },
    {
      "duration": 0.22635416666662422,
      "end": 21.805572916666733,
      "pitch": 56,
      "start": 21.57921875000011,
      "velocity": 77
    }
  ],
  [
    {
      "duration": 0.21338541666636957,
      "end": 21.802239583333176,
      "pitch": 61,
      "start": 21.588854166666806,
      "velocity": 72
    },
    {
      "duration": 1.1936458333329938,
      "end": 22.981197916666588,
      "pitch": 80,
      "start": 21.787552083333594,
      "velocity": 92
    },
    {
      "duration": 0.29661458333339397,
      "end": 22.09885416666657,
      "pitch": 61,
      "start": 21.802239583333176,
      "velocity": 74
    },
    {
      "duration": 0.7446875000000546,
      "end": 22.550260416666788,
      "pitch": 56,
      "start": 21.805572916666733,
      "velocity": 58
    },
    {
      "duration": 0.2793229166668425,
      "end": 22.09020833333352,
      "pitch": 64,
      "start": 21.81088541666668,
      "velocity": 63
    },
    {
      "duration": 0.9430208333333212,
      "end": 22.981197916666588,
      "pitch": 76,
      "start": 22.038177083333267,
      "velocity": 86
    },
    {
      "duration": 0.8909895833330665,
      "end": 22.981197916666588,
      "pitch": 64,
      "start": 22.09020833333352,
      "velocity": 47
    },
    {
      "duration": 0.8823437500000182,
      "end": 22.981197916666588,
      "pitch": 61,
      "start": 22.09885416666657,
      "velocity": 40
    },
    {
      "duration": 0.4577604166670426,
      "end": 22.557552083333576,
      "pitch": 68,
      "start": 22.099791666666533,
      "velocity": 81
    },
    {
      "duration": 0.9109375000002728,
      "end": 23.04515625000022,
      "pitch": 88,
      "start": 22.134218749999945,
      "velocity": 97
    },
    {
      "duration": 0.42505208333341216,
      "end": 22.9753125000002,
      "pitch": 56,
      "start": 22.550260416666788,
      "velocity": 74
    },
    {
      "duration": 0.423645833333012,
      "end": 22.981197916666588,
      "pitch": 68,
      "start": 22.557552083333576,
      "velocity": 64
    },
    {
      "duration": 1.0154687499998545,
      "end": 23.988802083333212,
      "pitch": 66,
      "start": 22.973333333333358,
      "velocity": 59
    },
    {
      "duration": 1.0145833333331211,
      "end": 23.988802083333212,
      "pitch": 87,
      "start": 22.97421875000009,
      "velocity": 84
    },
    {
      "duration": 0.42156249999970896,
      "end": 23.39687499999991,
      "pitch": 56,
      "start": 22.9753125000002,
      "velocity": 59
    },
    {
      "duration": 1.0079166666664605,
      "end": 23.988802083333212,
      "pitch": 75,
      "start": 22.98088541666675,
      "velocity": 64
    },
    {
      "duration": 0.41067708333321207,
      "end": 23.39286458333345,
      "pitch": 68,
      "start": 22.982187500000236,
      "velocity": 55
    },
    {
      "duration": 1.0012499999998,
      "end": 23.988802083333212,
      "pitch": 63,
      "start": 22.987552083333412,
      "velocity": 58
    },
    {
      "duration": 0.5959374999997635,
      "end": 23.988802083333212,
      "pitch": 68,
      "start": 23.39286458333345,
      "velocity": 73
    },
    {
      "duration": 0.591927083333303,
      "end": 23.988802083333212,
      "pitch": 56,
      "start": 23.39687499999991,
      "velocity": 60
    },
    {
      "duration": 2.025260416666697,
      "end": 26.01010416666668,
      "pitch": 85,
      "start": 23.984843749999982,
      "velocity": 80
    },
    {
      "duration": 2.014635416666806,
      "end": 26.01010416666668,
      "pitch": 73,
      "start": 23.995468749999873,
      "velocity": 65
    },
    {
      "duration": 2.0053124999999454,
      "end": 26.01010416666668,
      "pitch": 49,
      "start": 24.004791666666733,
      "velocity": 74
    },
    {
      "duration": 0.15291666666689707,
      "end": 24.163020833333576,
      "pitch": 37,
      "start": 24.01010416666668,
      "velocity": 54
    },
    {
      "duration": 0.21541666666644232,
      "end": 24.692864583333176,
      "pitch": 61,
      "start": 24.477447916666733,
      "velocity": 43
    },
    {
      "duration": 0.21510416666660603,
      "end": 24.693489583333303,
      "pitch": 64,
      "start": 24.478385416666697,
      "velocity": 43
    },
    {
      "duration": 0.19536458333323026,
      "end": 24.68010416666675,
      "pitch": 56,
      "start": 24.48473958333352,
      "velocity": 36
    },
    {
      "duration": 0.30692708333344854,
      "end": 24.9870312500002,
      "pitch": 56,
      "start": 24.68010416666675,
      "velocity": 37
    },
    {
      "duration": 0.2839062500002001,
      "end": 24.976770833333376,
      "pitch": 61,
      "start": 24.692864583333176,
      "velocity": 44
    },
    {
      "duration": 0.27994791666696983,
      "end": 24.973437500000273,
      "pitch": 64,
      "start": 24.693489583333303,
      "velocity": 34
    },
    {
      "duration": 1.0473437499999818,
      "end": 26.01010416666668,
      "pitch": 68,
      "start": 24.962760416666697,
      "velocity": 75
    },
    {
      "duration": 0.5343229166664969,
      "end": 25.50776041666677,
      "pitch": 64,
      "start": 24.973437500000273,
      "velocity": 74
    },
    {
      "duration": 0.5300000000002001,
      "end": 25.506770833333576,
      "pitch": 61,
      "start": 24.976770833333376,
      "velocity": 60
    },
    {
      "duration": 1.0323958333333394,
      "end": 26.01010416666668,
      "pitch": 80,
      "start": 24.97770833333334,
      "velocity": 85
    },
    {
      "duration": 0.5143749999997453,
      "end": 25.501406249999945,
      "pitch": 56,
      "start": 24.9870312500002,
      "velocity": 79
    },
    {
      "duration": 0.5086979166667334,
      "end": 26.01010416666668,
      "pitch": 56,
      "start": 25.501406249999945,
      "velocity": 43
    },
    {
      "duration": 0.5033333333331029,
      "end": 26.01010416666668,
      "pitch": 61,
      "start": 25.506770833333576,
      "velocity": 82
    },
    {
      "duration": 0.502343749999909,
      "end": 26.01010416666668,
      "pitch": 64,
      "start": 25.50776041666677,
      "velocity": 57
    },
    {
      "duration": 1.3702083333332666,
      "end": 27.390937499999836,
      "pitch": 70,
      "start": 26.02072916666657,
      "velocity": 89
    },
    {
      "duration": 0.12630208333348492,
      "end": 26.15234375,
      "pitch": 42,
      "start": 26.026041666666515,
      "velocity": 90
    },
    {
      "duration": 0.32135416666642413,
      "end": 26.576770833333285,
      "pitch": 82,
      "start": 26.25541666666686,
      "velocity": 82
    },
    {
      "duration": 0.24864583333373957,
      "end": 26.640729166666915,
      "pitch": 83,
      "start": 26.392083333333176,
      "velocity": 64
    },
    {
      "duration": 0.8761979166665697,
      "end": 27.390937499999836,
      "pitch": 54,
      "start": 26.514739583333267,
      "velocity": 69
    },
    {
      "duration": 0.8658333333332848,
      "end": 27.390937499999836,
      "pitch": 64,
      "start": 26.52510416666655,
      "velocity": 64
    },
    {
      "duration": 0.8638541666664423,
      "end": 27.390937499999836,
      "pitch": 61,
      "start": 26.527083333333394,
      "velocity": 60
    },
    {
      "duration": 0.14598958333363043,
      "end": 26.722760416666915,
      "pitch": 82,
      "start": 26.576770833333285,
      "velocity": 76
    },
    {
      "duration": 0.1300520833333394,
      "end": 26.770781250000255,
      "pitch": 83,
      "start": 26.640729166666915,
      "velocity": 80
    },
    {
      "duration": 0.11932291666653327,
      "end": 26.84208333333345,
      "pitch": 82,
      "start": 26.722760416666915,
      "velocity": 88
    },
    {
      "duration": 0.6201562499995816,
      "end": 27.390937499999836,
      "pitch": 83,
      "start": 26.770781250000255,
      "velocity": 73
    },
    {
      "duration": 0.19203125000012733,
      "end": 27.034114583333576,
      "pitch": 82,
      "start": 26.84208333333345,
      "velocity": 92
    },
    {
      "duration": 0.4602083333329574,
      "end": 27.390937499999836,
      "pitch": 80,
      "start": 26.93072916666688,
      "velocity": 90
    },
    {
      "duration": 0.3568229166662604,
      "end": 27.390937499999836,
      "pitch": 82,
      "start": 27.034114583333576,
      "velocity": 76
    },
    {
      "duration": 0.8120833333332484,
      "end": 28.206822916666624,
      "pitch": 66,
      "start": 27.394739583333376,
      "velocity": 94
    },
    {
      "duration": 0.7860416666667334,
      "end": 28.22875000000022,
      "pitch": 47,
      "start": 27.442708333333485,
      "velocity": 75
    },
    {
      "duration": 0.7806770833335577,
      "end": 28.22875000000022,
      "pitch": 35,
      "start": 27.44807291666666,
      "velocity": 78
    },
    {
      "duration": 0.7220312500003274,
      "end": 28.22875000000022,
      "pitch": 54,
      "start": 27.50671874999989,
      "velocity": 88
    },
    {
      "duration": 1.7458854166666242,
      "end": 29.95270833333325,
      "pitch": 66,
      "start": 28.206822916666624,
      "velocity": 94
    },
    {
      "duration": 0.062239583333393966,
      "end": 28.326302083333303,
      "pitch": 35,
      "start": 28.26406249999991,
      "velocity": 77
    },
    {
      "duration": 1.687760416666606,
      "end": 29.95270833333325,
      "pitch": 47,
      "start": 28.264947916666642,
      "velocity": 75
    },
    {
      "duration": 1.6599479166666242,
      "end": 29.947291666666843,
      "pitch": 54,
      "start": 28.28734375000022,
      "velocity": 90
    },
    {
      "duration": 0.15796875000023647,
      "end": 28.854010416666824,
      "pitch": 63,
      "start": 28.696041666666588,
      "velocity": 76
    },
    {
      "duration": 0.1386979166668425,
      "end": 28.847343750000164,
      "pitch": 59,
      "start": 28.70864583333332,
      "velocity": 66
    },
    {
      "duration": 0.18265625000003638,
      "end": 29.0300000000002,
      "pitch": 59,
      "start": 28.847343750000164,
      "velocity": 62
    },
    {
      "duration": 0.15468749999990905,
      "end": 29.008697916666733,
      "pitch": 63,
      "start": 28.854010416666824,
      "velocity": 73
    },
    {
      "duration": 0.4199479166668425,
      "end": 29.428645833333576,
      "pitch": 63,
      "start": 29.008697916666733,
      "velocity": 77
    },
    {
      "duration": 0.40401041666655146,
      "end": 29.43401041666675,
      "pitch": 59,
      "start": 29.0300000000002,
      "velocity": 74
    },
    {
      "duration": 0.5280208333333576,
      "end": 29.95270833333325,
      "pitch": 56,
      "start": 29.42468749999989,
      "velocity": 72
    },
    {
      "duration": 0.5260416666665151,
      "end": 29.95270833333325,
      "pitch": 68,
      "start": 29.426666666666733,
      "velocity": 91
    },
    {
      "duration": 0.5240624999996726,
      "end": 29.95270833333325,
      "pitch": 63,
      "start": 29.428645833333576,
      "velocity": 69
    },
    {
      "duration": 0.5186979166664969,
      "end": 29.95270833333325,
      "pitch": 59,
      "start": 29.43401041666675,
      "velocity": 60
    },
    {
      "duration": 0.5053124999999454,
      "end": 30.441979166666897,
      "pitch": 58,
      "start": 29.93666666666695,
      "velocity": 75
    },
    {
      "duration": 0.9527083333332484,
      "end": 30.891354166666588,
      "pitch": 70,
      "start": 29.93864583333334,
      "velocity": 88
    },
    {
      "duration": 0.6806249999999636,
      "end": 30.621302083333376,
      "pitch": 61,
      "start": 29.940677083333412,
      "velocity": 73
    },
    {
      "duration": 0.4790104166668243,
      "end": 30.4206250000002,
      "pitch": 64,
      "start": 29.941614583333376,
      "velocity": 64
    },
    {
      "duration": 0.48937500000010914,
      "end": 30.43666666666695,
      "pitch": 54,
      "start": 29.947291666666843,
      "velocity": 56
    },
    {
      "duration": 0.6380208333330302,
      "end": 30.891354166666588,
      "pitch": 71,
      "start": 30.253333333333558,
      "velocity": 93
    },
    {
      "duration": 0.47072916666638775,
      "end": 30.891354166666588,
      "pitch": 64,
      "start": 30.4206250000002,
      "velocity": 57
    },
    {
      "duration": 0.4546874999996362,
      "end": 30.891354166666588,
      "pitch": 54,
      "start": 30.43666666666695,
      "velocity": 67
    },
    {
      "duration": 0.44937499999969077,
      "end": 30.891354166666588,
      "pitch": 58,
      "start": 30.441979166666897,
      "velocity": 76
    },
    {
      "duration": 0.2827083333331757,
      "end": 30.891354166666588,
      "pitch": 73,
      "start": 30.608645833333412,
      "velocity": 88
    },
    {
      "duration": 0.27005208333321207,
      "end": 30.891354166666588,
      "pitch": 61,
      "start": 30.621302083333376,
      "velocity": 71
    },
    {
      "duration": 0.11765624999998181,
      "end": 31.016250000000127,
      "pitch": 35,
      "start": 30.898593750000146,
      "velocity": 76
    },
    {
      "duration": 0.14421874999970896,
      "end": 31.044843749999927,
      "pitch": 47,
      "start": 30.90062500000022,
      "velocity": 74
    },
    {
      "duration": 0.8693229166665333,
      "end": 31.778645833333485,
      "pitch": 63,
      "start": 30.90932291666695,
      "velocity": 89
    },
    {
      "duration": 0.9451562499998545,
      "end": 31.85546875,
      "pitch": 75,
      "start": 30.910312500000146,
      "velocity": 95
    },
    {
      "duration": 0.43578124999976353,
      "end": 31.801510416666588,
      "pitch": 66,
      "start": 31.365729166666824,
      "velocity": 79
    },
    {
      "duration": 0.39671874999976353,
      "end": 31.775312499999927,
      "pitch": 54,
      "start": 31.378593750000164,
      "velocity": 50
    },
    {
      "duration": 0.4020312500001637,
      "end": 31.79130208333345,
      "pitch": 59,
      "start": 31.389270833333285,
      "velocity": 50
    },
    {
      "duration": 0.2881250000000364,
      "end": 31.85546875,
      "pitch": 76,
      "start": 31.567343749999964,
      "velocity": 92
    },
    {
      "duration": 0.28281250000009095,
      "end": 31.85546875,
      "pitch": 64,
      "start": 31.57265624999991,
      "velocity": 71
    },
    {
      "duration": 0.4372916666666242,
      "end": 32.21260416666655,
      "pitch": 54,
      "start": 31.775312499999927,
      "velocity": 61
    },
    {
      "duration": 0.41265625000005457,
      "end": 32.19130208333354,
      "pitch": 63,
      "start": 31.778645833333485,
      "velocity": 81
    },
    {
      "duration": 0.4033333333331939,
      "end": 32.19463541666664,
      "pitch": 59,
      "start": 31.79130208333345,
      "velocity": 65
    },
    {
      "duration": 0.834374999999909,
      "end": 32.62661458333332,
      "pitch": 78,
      "start": 31.792239583333412,
      "velocity": 90
    },
    {
      "duration": 0.4017187500003274,
      "end": 32.203229166666915,
      "pitch": 66,
      "start": 31.801510416666588,
      "velocity": 88
    },
    {
      "duration": 0.4353124999997817,
      "end": 32.62661458333332,
      "pitch": 63,
      "start": 32.19130208333354,
      "velocity": 60
    },
    {
      "duration": 0.4319791666666788,
      "end": 32.62661458333332,
      "pitch": 59,
      "start": 32.19463541666664,
      "velocity": 47
    },
    {
      "duration": 0.42338541666640594,
      "end": 32.62661458333332,
      "pitch": 66,
      "start": 32.203229166666915,
      "velocity": 74
    },
    {
      "duration": 0.41401041666676974,
      "end": 32.62661458333332,
      "pitch": 54,
      "start": 32.21260416666655,
      "velocity": 28
    },
    {
      "duration": 0.4106249999999818,
      "end": 32.62661458333332,
      "pitch": 80,
      "start": 32.21598958333334,
      "velocity": 95
    }
  ],
  [
    {
      "duration": 0.4033333333331939,
      "end": 32.62661458333332,
      "pitch": 68,
      "start": 32.22328125000013,
      "velocity": 66
    },
    {
      "duration": 0.9319791666666788,
      "end": 33.56192708333356,
      "pitch": 64,
      "start": 32.62994791666688,
      "velocity": 73
    },
    {
      "duration": 0.4407291666666424,
      "end": 33.077968749999854,
      "pitch": 66,
      "start": 32.63723958333321,
      "velocity": 74
    },
    {
      "duration": 0.44067708333341216,
      "end": 33.07989583333347,
      "pitch": 54,
      "start": 32.639218750000055,
      "velocity": 65
    },
    {
      "duration": 0.9193229166667152,
      "end": 33.56192708333356,
      "pitch": 61,
      "start": 32.64260416666684,
      "velocity": 75
    },
    {
      "duration": 0.9139583333335395,
      "end": 33.56192708333356,
      "pitch": 82,
      "start": 32.64796875000002,
      "velocity": 88
    },
    {
      "duration": 0.8985937500001455,
      "end": 33.56192708333356,
      "pitch": 70,
      "start": 32.66333333333341,
      "velocity": 85
    },
    {
      "duration": 0.6366666666667697,
      "end": 33.56192708333356,
      "pitch": 83,
      "start": 32.92526041666679,
      "velocity": 92
    },
    {
      "duration": 0.6102083333335031,
      "end": 33.56192708333356,
      "pitch": 71,
      "start": 32.951718750000055,
      "velocity": 34
    },
    {
      "duration": 0.4839583333337032,
      "end": 33.56192708333356,
      "pitch": 66,
      "start": 33.077968749999854,
      "velocity": 72
    },
    {
      "duration": 0.48203125000009095,
      "end": 33.56192708333356,
      "pitch": 54,
      "start": 33.07989583333347,
      "velocity": 82
    },
    {
      "duration": 0.33463541666696983,
      "end": 33.56192708333356,
      "pitch": 85,
      "start": 33.22729166666659,
      "velocity": 90
    },
    {
      "duration": 0.322395833333303,
      "end": 33.56192708333356,
      "pitch": 73,
      "start": 33.239531250000255,
      "velocity": 75
    },
    {
      "duration": 0.16760416666693345,
      "end": 33.732864583333594,
      "pitch": 47,
      "start": 33.56526041666666,
      "velocity": 81
    },
    {
      "duration": 0.11562499999990905,
      "end": 33.68286458333341,
      "pitch": 35,
      "start": 33.5672395833335,
      "velocity": 80
    },
    {
      "duration": 1.7579687499996908,
      "end": 35.355260416666624,
      "pitch": 87,
      "start": 33.59729166666693,
      "velocity": 97
    },
    {
      "duration": 1.66796875,
      "end": 35.268541666666806,
      "pitch": 75,
      "start": 33.600572916666806,
      "velocity": 84
    },
    {
      "duration": 0.542708333333394,
      "end": 34.655260416666806,
      "pitch": 54,
      "start": 34.11255208333341,
      "velocity": 41
    },
    {
      "duration": 1.558333333333394,
      "end": 35.722916666666606,
      "pitch": 63,
      "start": 34.16458333333321,
      "velocity": 38
    },
    {
      "duration": 0.5526562499999272,
      "end": 34.77921874999993,
      "pitch": 71,
      "start": 34.2265625,
      "velocity": 92
    },
    {
      "duration": 0.5439062499999636,
      "end": 35.19916666666677,
      "pitch": 54,
      "start": 34.655260416666806,
      "velocity": 74
    },
    {
      "duration": 1.0063541666668243,
      "end": 35.78557291666675,
      "pitch": 71,
      "start": 34.77921874999993,
      "velocity": 81
    },
    {
      "duration": 1.077291666666497,
      "end": 36.08255208333321,
      "pitch": 78,
      "start": 35.005260416666715,
      "velocity": 94
    },
    {
      "duration": 1.0753124999996544,
      "end": 36.08255208333321,
      "pitch": 66,
      "start": 35.00723958333356,
      "velocity": 87
    },
    {
      "duration": 0.486458333333303,
      "end": 35.68562500000007,
      "pitch": 54,
      "start": 35.19916666666677,
      "velocity": 53
    },
    {
      "duration": 0.851249999999709,
      "end": 36.08255208333321,
      "pitch": 56,
      "start": 35.2313020833335,
      "velocity": 50
    },
    {
      "duration": 0.814010416666406,
      "end": 36.08255208333321,
      "pitch": 75,
      "start": 35.268541666666806,
      "velocity": 90
    },
    {
      "duration": 0.7646354166663514,
      "end": 36.08255208333321,
      "pitch": 72,
      "start": 35.31791666666686,
      "velocity": 80
    },
    {
      "duration": 1.7119791666668789,
      "end": 37.0672395833335,
      "pitch": 87,
      "start": 35.355260416666624,
      "velocity": 95
    },
    {
      "duration": 0.3969270833331393,
      "end": 36.08255208333321,
      "pitch": 54,
      "start": 35.68562500000007,
      "velocity": 77
    },
    {
      "duration": 0.35963541666660603,
      "end": 36.08255208333321,
      "pitch": 63,
      "start": 35.722916666666606,
      "velocity": 73
    },
    {
      "duration": 0.2969791666664605,
      "end": 36.08255208333321,
      "pitch": 71,
      "start": 35.78557291666675,
      "velocity": 88
    },
    {
      "duration": 0.05036458333324845,
      "end": 36.17140625000002,
      "pitch": 54,
      "start": 36.12104166666677,
      "velocity": 70
    },
    {
      "duration": 0.4679687500001819,
      "end": 36.61786458333336,
      "pitch": 64,
      "start": 36.149895833333176,
      "velocity": 64
    },
    {
      "duration": 0.8800000000001091,
      "end": 37.0672395833335,
      "pitch": 85,
      "start": 36.187239583333394,
      "velocity": 89
    },
    {
      "duration": 0.8673958333333758,
      "end": 37.0672395833335,
      "pitch": 73,
      "start": 36.19984375000013,
      "velocity": 80
    },
    {
      "duration": 0.44291666666640594,
      "end": 36.65854166666668,
      "pitch": 70,
      "start": 36.21562500000027,
      "velocity": 90
    },
    {
      "duration": 0.5067187499998909,
      "end": 37.0672395833335,
      "pitch": 54,
      "start": 36.56052083333361,
      "velocity": 68
    },
    {
      "duration": 0.4493750000001455,
      "end": 37.0672395833335,
      "pitch": 64,
      "start": 36.61786458333336,
      "velocity": 37
    },
    {
      "duration": 0.4086979166668243,
      "end": 37.0672395833335,
      "pitch": 70,
      "start": 36.65854166666668,
      "velocity": 86
    },
    {
      "duration": 0.07270833333359406,
      "end": 37.175885416666915,
      "pitch": 35,
      "start": 37.10317708333332,
      "velocity": 76
    },
    {
      "duration": 0.12828125000032742,
      "end": 37.23473958333352,
      "pitch": 47,
      "start": 37.106458333333194,
      "velocity": 74
    },
    {
      "duration": 1.2746875000002547,
      "end": 38.38317708333352,
      "pitch": 71,
      "start": 37.10848958333327,
      "velocity": 82
    },
    {
      "duration": 1.273697916666606,
      "end": 38.38317708333352,
      "pitch": 83,
      "start": 37.109479166666915,
      "velocity": 90
    },
    {
      "duration": 0.17796875000021828,
      "end": 37.7271354166669,
      "pitch": 63,
      "start": 37.54916666666668,
      "velocity": 79
    },
    {
      "duration": 0.3663541666664969,
      "end": 37.9278645833333,
      "pitch": 54,
      "start": 37.561510416666806,
      "velocity": 66
    },
    {
      "duration": 0.1418749999997999,
      "end": 37.71437500000002,
      "pitch": 59,
      "start": 37.57250000000022,
      "velocity": 56
    },
    {
      "duration": 0.2101041666664969,
      "end": 37.924479166666515,
      "pitch": 59,
      "start": 37.71437500000002,
      "velocity": 57
    },
    {
      "duration": 0.1848437499997999,
      "end": 37.9119791666667,
      "pitch": 63,
      "start": 37.7271354166669,
      "velocity": 54
    },
    {
      "duration": 1.0719791666665515,
      "end": 38.97317708333321,
      "pitch": 66,
      "start": 37.90119791666666,
      "velocity": 84
    },
    {
      "duration": 1.066666666666606,
      "end": 38.97317708333321,
      "pitch": 78,
      "start": 37.906510416666606,
      "velocity": 94
    },
    {
      "duration": 0.4711979166668243,
      "end": 38.38317708333352,
      "pitch": 63,
      "start": 37.9119791666667,
      "velocity": 59
    },
    {
      "duration": 0.4586979166670062,
      "end": 38.38317708333352,
      "pitch": 59,
      "start": 37.924479166666515,
      "velocity": 67
    },
    {
      "duration": 0.4553125000002183,
      "end": 38.38317708333352,
      "pitch": 54,
      "start": 37.9278645833333,
      "velocity": 44
    },
    {
      "duration": 0.5620312500000182,
      "end": 38.97317708333321,
      "pitch": 54,
      "start": 38.411145833333194,
      "velocity": 62
    },
    {
      "duration": 0.5501041666666424,
      "end": 38.97317708333321,
      "pitch": 59,
      "start": 38.42307291666657,
      "velocity": 60
    },
    {
      "duration": 0.5420312500000364,
      "end": 38.97317708333321,
      "pitch": 62,
      "start": 38.431145833333176,
      "velocity": 62
    },
    {
      "duration": 0.12104166666676974,
      "end": 39.10151041666677,
      "pitch": 68,
      "start": 38.98046875,
      "velocity": 96
    },
    {
      "duration": 1.2340104166664787,
      "end": 40.217812500000036,
      "pitch": 40,
      "start": 38.98380208333356,
      "velocity": 88
    },
    {
      "duration": 0.40088541666636957,
      "end": 39.38562499999989,
      "pitch": 80,
      "start": 38.98473958333352,
      "velocity": 94
    },
    {
      "duration": 1.2306770833333758,
      "end": 40.217812500000036,
      "pitch": 52,
      "start": 38.98713541666666,
      "velocity": 91
    },
    {
      "duration": 0.25265624999974534,
      "end": 39.453125,
      "pitch": 81,
      "start": 39.200468750000255,
      "velocity": 62
    },
    {
      "duration": 0.10484375000032742,
      "end": 39.49046875000022,
      "pitch": 80,
      "start": 39.38562499999989,
      "velocity": 73
    },
    {
      "duration": 0.12437499999987267,
      "end": 39.57749999999987,
      "pitch": 81,
      "start": 39.453125,
      "velocity": 64
    },
    {
      "duration": 0.7382291666667697,
      "end": 40.217812500000036,
      "pitch": 53,
      "start": 39.47958333333327,
      "velocity": 54
    },
    {
      "duration": 0.11197916666651508,
      "end": 39.60244791666673,
      "pitch": 80,
      "start": 39.49046875000022,
      "velocity": 84
    },
    {
      "duration": 0.7253645833334303,
      "end": 40.217812500000036,
      "pitch": 59,
      "start": 39.492447916666606,
      "velocity": 56
    },
    {
      "duration": 0.7240104166667152,
      "end": 40.217812500000036,
      "pitch": 62,
      "start": 39.49380208333332,
      "velocity": 48
    },
    {
      "duration": 0.6403125000001637,
      "end": 40.217812500000036,
      "pitch": 81,
      "start": 39.57749999999987,
      "velocity": 60
    },
    {
      "duration": 0.23135416666673336,
      "end": 39.83380208333347,
      "pitch": 80,
      "start": 39.60244791666673,
      "velocity": 58
    },
    {
      "duration": 0.5279687500001273,
      "end": 40.217812500000036,
      "pitch": 78,
      "start": 39.68984374999991,
      "velocity": 92
    },
    {
      "duration": 0.38401041666656965,
      "end": 40.217812500000036,
      "pitch": 80,
      "start": 39.83380208333347,
      "velocity": 82
    },
    {
      "duration": 0.12494791666676974,
      "end": 40.37807291666695,
      "pitch": 69,
      "start": 40.25312500000018,
      "velocity": 88
    },
    {
      "duration": 0.09630208333328483,
      "end": 40.35145833333354,
      "pitch": 81,
      "start": 40.255156250000255,
      "velocity": 101
    },
    {
      "duration": 0.058958333333521296,
      "end": 40.315364583333576,
      "pitch": 33,
      "start": 40.256406250000055,
      "velocity": 88
    },
    {
      "duration": 0.12098958333353949,
      "end": 40.381406250000055,
      "pitch": 45,
      "start": 40.260416666666515,
      "velocity": 88
    },
    {
      "duration": 0.47156249999989086,
      "end": 41.19708333333347,
      "pitch": 51,
      "start": 40.725520833333576,
      "velocity": 78
    },
    {
      "duration": 0.46755208333343035,
      "end": 41.19708333333347,
      "pitch": 75,
      "start": 40.729531250000036,
      "velocity": 79
    },
    {
      "duration": 0.36062500000025466,
      "end": 41.19708333333347,
      "pitch": 78,
      "start": 40.83645833333321,
      "velocity": 75
    },
    {
      "duration": 0.357291666666697,
      "end": 41.19708333333347,
      "pitch": 54,
      "start": 40.83979166666677,
      "velocity": 59
    },
    {
      "duration": 0.28796874999989086,
      "end": 41.19708333333347,
      "pitch": 76,
      "start": 40.909114583333576,
      "velocity": 73
    },
    {
      "duration": 0.2699999999999818,
      "end": 41.19708333333347,
      "pitch": 52,
      "start": 40.927083333333485,
      "velocity": 74
    },
    {
      "duration": 0.1972916666668425,
      "end": 41.19708333333347,
      "pitch": 73,
      "start": 40.999791666666624,
      "velocity": 81
    },
    {
      "duration": 0.19203125000012733,
      "end": 41.19708333333347,
      "pitch": 49,
      "start": 41.00505208333334,
      "velocity": 28
    },
    {
      "duration": 0.11734375000014552,
      "end": 41.19708333333347,
      "pitch": 45,
      "start": 41.07973958333332,
      "velocity": 95
    },
    {
      "duration": 0.10666666666656965,
      "end": 41.19708333333347,
      "pitch": 69,
      "start": 41.0904166666669,
      "velocity": 81
    },
    {
      "duration": 0.15494791666651508,
      "end": 41.61333333333323,
      "pitch": 75,
      "start": 41.458385416666715,
      "velocity": 81
    },
    {
      "duration": 0.06286458333306655,
      "end": 41.52463541666657,
      "pitch": 51,
      "start": 41.4617708333335,
      "velocity": 73
    },
    {
      "duration": 0.0906770833335031,
      "end": 41.64177083333334,
      "pitch": 54,
      "start": 41.551093749999836,
      "velocity": 68
    },
    {
      "duration": 0.183541666666315,
      "end": 41.74130208333327,
      "pitch": 78,
      "start": 41.55776041666695,
      "velocity": 83
    },
    {
      "duration": 0.13020833333303017,
      "end": 41.759270833333176,
      "pitch": 76,
      "start": 41.629062500000146,
      "velocity": 69
    },
    {
      "duration": 0.15911458333357587,
      "end": 41.796562500000164,
      "pitch": 52,
      "start": 41.63744791666659,
      "velocity": 74
    },
    {
      "duration": 0.10166666666646051,
      "end": 41.81942708333327,
      "pitch": 73,
      "start": 41.717760416666806,
      "velocity": 88
    },
    {
      "duration": 0.08750000000009095,
      "end": 41.81057291666684,
      "pitch": 49,
      "start": 41.72307291666675,
      "velocity": 55
    },
    {
      "duration": 0.0480208333333394,
      "end": 41.829479166666715,
      "pitch": 45,
      "start": 41.781458333333376,
      "velocity": 74
    },
    {
      "duration": 0.06739583333319388,
      "end": 41.87979166666673,
      "pitch": 69,
      "start": 41.81239583333354,
      "velocity": 86
    },
    {
      "duration": 0.04151041666682431,
      "end": 42.23390625000002,
      "pitch": 52,
      "start": 42.192395833333194,
      "velocity": 87
    },
    {
      "duration": 0.05703124999990905,
      "end": 42.27255208333327,
      "pitch": 40,
      "start": 42.21552083333336,
      "velocity": 87
    },
    {
      "duration": 1.0172916666665515,
      "end": 43.647031250000055,
      "pitch": 33,
      "start": 42.6297395833335,
      "velocity": 81
    },
    {
      "duration": 0.9132812500001819,
      "end": 43.547031250000146,
      "pitch": 45,
      "start": 42.633749999999964,
      "velocity": 81
    }
  ],
  [
    {
      "duration": 0.9470312500002365,
      "end": 43.58406250000007,
      "pitch": 69,
      "start": 42.637031249999836,
      "velocity": 95
    },
    {
      "duration": 0.9995312500000182,
      "end": 43.647031250000055,
      "pitch": 81,
      "start": 42.647500000000036,
      "velocity": 85
    },
    {
      "duration": 0.5245833333333394,
      "end": 43.20234375000018,
      "pitch": 79,
      "start": 42.67776041666684,
      "velocity": 54
    },
    {
      "duration": 0.5639583333331757,
      "end": 43.647031250000055,
      "pitch": 52,
      "start": 43.08307291666688,
      "velocity": 80
    },
    {
      "duration": 0.5532812500000546,
      "end": 43.647031250000055,
      "pitch": 76,
      "start": 43.09375,
      "velocity": 81
    },
    {
      "duration": 0.4586458333333212,
      "end": 43.647031250000055,
      "pitch": 55,
      "start": 43.18838541666673,
      "velocity": 74
    },
    {
      "duration": 0.44468749999987267,
      "end": 43.647031250000055,
      "pitch": 79,
      "start": 43.20234375000018,
      "velocity": 82
    },
    {
      "duration": 0.36999999999989086,
      "end": 43.647031250000055,
      "pitch": 77,
      "start": 43.277031250000164,
      "velocity": 74
    },
    {
      "duration": 0.36666666666678793,
      "end": 43.647031250000055,
      "pitch": 53,
      "start": 43.28036458333327,
      "velocity": 74
    },
    {
      "duration": 0.17468749999989086,
      "end": 43.647031250000055,
      "pitch": 74,
      "start": 43.472343750000164,
      "velocity": 47
    },
    {
      "duration": 0.1653124999997999,
      "end": 43.647031250000055,
      "pitch": 72,
      "start": 43.481718750000255,
      "velocity": 66
    },
    {
      "duration": 0.15468749999990905,
      "end": 43.647031250000055,
      "pitch": 50,
      "start": 43.492343750000146,
      "velocity": 59
    },
    {
      "duration": 0.14932291666673336,
      "end": 43.647031250000055,
      "pitch": 48,
      "start": 43.49770833333332,
      "velocity": 60
    },
    {
      "duration": 0.14427083333339397,
      "end": 43.69130208333354,
      "pitch": 45,
      "start": 43.547031250000146,
      "velocity": 76
    },
    {
      "duration": 0.1038541666666788,
      "end": 43.68791666666675,
      "pitch": 69,
      "start": 43.58406250000007,
      "velocity": 88
    },
    {
      "duration": 0.05906249999998181,
      "end": 44.100572916666806,
      "pitch": 41,
      "start": 44.041510416666824,
      "velocity": 91
    },
    {
      "duration": 0.07744791666664241,
      "end": 44.11989583333343,
      "pitch": 53,
      "start": 44.04244791666679,
      "velocity": 95
    },
    {
      "duration": 0.06218750000016371,
      "end": 44.52520833333347,
      "pitch": 57,
      "start": 44.4630208333333,
      "velocity": 97
    },
    {
      "duration": 0.09614583333359406,
      "end": 44.5711458333335,
      "pitch": 45,
      "start": 44.47499999999991,
      "velocity": 99
    },
    {
      "duration": 0.07151041666656965,
      "end": 44.985833333333176,
      "pitch": 38,
      "start": 44.914322916666606,
      "velocity": 101
    },
    {
      "duration": 0.04942708333328483,
      "end": 44.965781249999964,
      "pitch": 50,
      "start": 44.91635416666668,
      "velocity": 95
    },
    {
      "duration": 0.0875520833333212,
      "end": 45.218541666666624,
      "pitch": 79,
      "start": 45.1309895833333,
      "velocity": 90
    },
    {
      "duration": 0.11203124999974534,
      "end": 45.623697916666515,
      "pitch": 81,
      "start": 45.51166666666677,
      "velocity": 97
    },
    {
      "duration": 0.8213541666668789,
      "end": 46.83635416666675,
      "pitch": 33,
      "start": 46.01499999999987,
      "velocity": 90
    },
    {
      "duration": 0.820052083333394,
      "end": 46.83635416666675,
      "pitch": 45,
      "start": 46.01630208333336,
      "velocity": 95
    },
    {
      "duration": 0.8160416666664787,
      "end": 46.83635416666675,
      "pitch": 81,
      "start": 46.02031250000027,
      "velocity": 100
    },
    {
      "duration": 0.8146875000002183,
      "end": 46.83635416666675,
      "pitch": 69,
      "start": 46.02166666666653,
      "velocity": 87
    },
    {
      "duration": 0.3400520833333758,
      "end": 46.83635416666675,
      "pitch": 53,
      "start": 46.496302083333376,
      "velocity": 88
    },
    {
      "duration": 0.33604166666691526,
      "end": 46.83635416666675,
      "pitch": 77,
      "start": 46.500312499999836,
      "velocity": 84
    },
    {
      "duration": 0.23140624999996362,
      "end": 46.83635416666675,
      "pitch": 56,
      "start": 46.60494791666679,
      "velocity": 76
    },
    {
      "duration": 0.2280208333331757,
      "end": 46.83635416666675,
      "pitch": 80,
      "start": 46.608333333333576,
      "velocity": 87
    },
    {
      "duration": 0.16536458333348492,
      "end": 46.83635416666675,
      "pitch": 78,
      "start": 46.67098958333327,
      "velocity": 74
    },
    {
      "duration": 0.17437500000005457,
      "end": 46.87333333333345,
      "pitch": 54,
      "start": 46.698958333333394,
      "velocity": 79
    },
    {
      "duration": 0.11749999999983629,
      "end": 46.88052083333332,
      "pitch": 75,
      "start": 46.763020833333485,
      "velocity": 85
    },
    {
      "duration": 0.09812499999998181,
      "end": 46.88442708333332,
      "pitch": 51,
      "start": 46.78630208333334,
      "velocity": 21
    },
    {
      "duration": 0.06682291666675155,
      "end": 46.91708333333327,
      "pitch": 45,
      "start": 46.850260416666515,
      "velocity": 92
    },
    {
      "duration": 0.07088541666689707,
      "end": 46.92848958333343,
      "pitch": 69,
      "start": 46.85760416666653,
      "velocity": 84
    },
    {
      "duration": 0.12489583333308474,
      "end": 47.35713541666655,
      "pitch": 53,
      "start": 47.23223958333347,
      "velocity": 85
    },
    {
      "duration": 0.15286458333321207,
      "end": 47.389166666666824,
      "pitch": 77,
      "start": 47.23630208333361,
      "velocity": 79
    },
    {
      "duration": 0.09958333333361225,
      "end": 47.429843750000146,
      "pitch": 56,
      "start": 47.33026041666653,
      "velocity": 84
    },
    {
      "duration": 0.17307291666656965,
      "end": 47.52458333333334,
      "pitch": 80,
      "start": 47.35151041666677,
      "velocity": 87
    },
    {
      "duration": 0.13354166666658784,
      "end": 47.55119791666675,
      "pitch": 78,
      "start": 47.417656250000164,
      "velocity": 69
    },
    {
      "duration": 0.16427083333337578,
      "end": 47.59921875000009,
      "pitch": 54,
      "start": 47.434947916666715,
      "velocity": 85
    },
    {
      "duration": 0.1409374999998363,
      "end": 47.65786458333332,
      "pitch": 75,
      "start": 47.516927083333485,
      "velocity": 85
    },
    {
      "duration": 0.06218750000016371,
      "end": 47.62380208333343,
      "pitch": 51,
      "start": 47.56161458333327,
      "velocity": 55
    },
    {
      "duration": 0.06750000000010914,
      "end": 47.67182291666677,
      "pitch": 45,
      "start": 47.60432291666666,
      "velocity": 74
    },
    {
      "duration": 0.07057291666706078,
      "end": 47.68552083333361,
      "pitch": 69,
      "start": 47.61494791666655,
      "velocity": 92
    },
    {
      "duration": 0.0659895833337032,
      "end": 47.687604166666915,
      "pitch": 47,
      "start": 47.62161458333321,
      "velocity": 57
    },
    {
      "duration": 0.09421874999998181,
      "end": 48.15713541666673,
      "pitch": 54,
      "start": 48.06291666666675,
      "velocity": 105
    },
    {
      "duration": 0.08963541666662422,
      "end": 48.15906249999989,
      "pitch": 42,
      "start": 48.06942708333327,
      "velocity": 102
    },
    {
      "duration": 0.547135416666606,
      "end": 49.12536458333352,
      "pitch": 33,
      "start": 48.578229166666915,
      "velocity": 100
    },
    {
      "duration": 0.545104166666988,
      "end": 49.12536458333352,
      "pitch": 69,
      "start": 48.58026041666653,
      "velocity": 95
    },
    {
      "duration": 0.5437500000002728,
      "end": 49.12536458333352,
      "pitch": 45,
      "start": 48.58161458333325,
      "velocity": 104
    },
    {
      "duration": 0.5428125000003092,
      "end": 49.12536458333352,
      "pitch": 81,
      "start": 48.58255208333321,
      "velocity": 100
    },
    {
      "duration": 0.13505208333344854,
      "end": 49.17531250000002,
      "pitch": 52,
      "start": 49.04026041666657,
      "velocity": 82
    },
    {
      "duration": 0.1319791666664969,
      "end": 49.17624999999998,
      "pitch": 76,
      "start": 49.044270833333485,
      "velocity": 91
    },
    {
      "duration": 0.1995833333335213,
      "end": 49.34854166666673,
      "pitch": 79,
      "start": 49.14895833333321,
      "velocity": 90
    },
    {
      "duration": 0.08218750000014552,
      "end": 49.245104166666806,
      "pitch": 55,
      "start": 49.16291666666666,
      "velocity": 79
    },
    {
      "duration": 0.15494791666696983,
      "end": 49.389166666666824,
      "pitch": 53,
      "start": 49.234218749999854,
      "velocity": 80
    },
    {
      "duration": 0.13552083333343035,
      "end": 49.37312500000007,
      "pitch": 77,
      "start": 49.23760416666664,
      "velocity": 71
    },
    {
      "duration": 0.12088541666707897,
      "end": 49.45114583333361,
      "pitch": 72,
      "start": 49.33026041666653,
      "velocity": 76
    },
    {
      "duration": 0.10645833333319388,
      "end": 49.46140624999998,
      "pitch": 48,
      "start": 49.35494791666679,
      "velocity": 78
    },
    {
      "duration": 0.0715104166670244,
      "end": 49.49046875000022,
      "pitch": 45,
      "start": 49.418958333333194,
      "velocity": 86
    },
    {
      "duration": 0.0789583333335031,
      "end": 49.519218750000164,
      "pitch": 69,
      "start": 49.44026041666666,
      "velocity": 84
    },
    {
      "duration": 0.13218749999987267,
      "end": 49.865781250000055,
      "pitch": 76,
      "start": 49.73359375000018,
      "velocity": 86
    },
    {
      "duration": 0.13880208333330302,
      "end": 49.87437499999987,
      "pitch": 52,
      "start": 49.73557291666657,
      "velocity": 77
    },
    {
      "duration": 0.1303645833331757,
      "end": 49.97776041666657,
      "pitch": 55,
      "start": 49.847395833333394,
      "velocity": 77
    },
    {
      "duration": 0.1581770833331575,
      "end": 50.01109374999987,
      "pitch": 79,
      "start": 49.852916666666715,
      "velocity": 81
    },
    {
      "duration": 0.1534895833333394,
      "end": 50.06312500000013,
      "pitch": 77,
      "start": 49.90963541666679,
      "velocity": 74
    },
    {
      "duration": 0.14968750000025466,
      "end": 50.091093750000255,
      "pitch": 53,
      "start": 49.94140625,
      "velocity": 88
    },
    {
      "duration": 0.11895833333301198,
      "end": 50.149843749999945,
      "pitch": 74,
      "start": 50.03088541666693,
      "velocity": 79
    },
    {
      "duration": 0.10359375000007276,
      "end": 50.14645833333361,
      "pitch": 50,
      "start": 50.04286458333354,
      "velocity": 75
    },
    {
      "duration": 0.06291666666675155,
      "end": 50.16453124999998,
      "pitch": 45,
      "start": 50.10161458333323,
      "velocity": 94
    },
    {
      "duration": 0.06750000000010914,
      "end": 50.18906250000009,
      "pitch": 69,
      "start": 50.12156249999998,
      "velocity": 90
    },
    {
      "duration": 0.09953124999992724,
      "end": 50.59979166666653,
      "pitch": 53,
      "start": 50.500260416666606,
      "velocity": 101
    },
    {
      "duration": 0.10015625000005457,
      "end": 50.601718750000146,
      "pitch": 41,
      "start": 50.50156250000009,
      "velocity": 96
    },
    {
      "duration": 0.06208333333324845,
      "end": 50.99760416666686,
      "pitch": 57,
      "start": 50.93552083333361,
      "velocity": 99
    },
    {
      "duration": 0.08770833333346673,
      "end": 51.03901041666677,
      "pitch": 45,
      "start": 50.9513020833333,
      "velocity": 99
    },
    {
      "duration": 0.0675520833333394,
      "end": 51.42973958333323,
      "pitch": 38,
      "start": 51.36218749999989,
      "velocity": 96
    },
    {
      "duration": 0.04828124999994543,
      "end": 51.41244791666668,
      "pitch": 50,
      "start": 51.36416666666673,
      "velocity": 88
    },
    {
      "duration": 0.09739583333339397,
      "end": 51.701614583333594,
      "pitch": 81,
      "start": 51.6042187500002,
      "velocity": 94
    },
    {
      "duration": 0.5300520833329756,
      "end": 52.39687499999991,
      "pitch": 33,
      "start": 51.86682291666693,
      "velocity": 92
    },
    {
      "duration": 0.5280208333333576,
      "end": 52.39687499999991,
      "pitch": 81,
      "start": 51.86885416666655,
      "velocity": 100
    },
    {
      "duration": 0.5260416666665151,
      "end": 52.39687499999991,
      "pitch": 45,
      "start": 51.870833333333394,
      "velocity": 97
    },
    {
      "duration": 0.5250520833333212,
      "end": 52.39687499999991,
      "pitch": 69,
      "start": 51.87182291666659,
      "velocity": 95
    },
    {
      "duration": 0.23619791666669698,
      "end": 52.544374999999945,
      "pitch": 48,
      "start": 52.30817708333325,
      "velocity": 81
    },
    {
      "duration": 0.12625000000025466,
      "end": 52.44838541666695,
      "pitch": 72,
      "start": 52.3221354166667,
      "velocity": 85
    },
    {
      "duration": 0.12286458333346673,
      "end": 52.533697916666824,
      "pitch": 52,
      "start": 52.41083333333336,
      "velocity": 73
    },
    {
      "duration": 0.17562499999985448,
      "end": 52.59713541666679,
      "pitch": 76,
      "start": 52.42151041666693,
      "velocity": 86
    },
    {
      "duration": 0.1355729166666606,
      "end": 52.639114583333594,
      "pitch": 74,
      "start": 52.50354166666693,
      "velocity": 75
    },
    {
      "duration": 0.14953125000010914,
      "end": 52.6550000000002,
      "pitch": 50,
      "start": 52.50546875000009,
      "velocity": 85
    },
    {
      "duration": 0.08885416666635138,
      "end": 52.685052083333176,
      "pitch": 71,
      "start": 52.596197916666824,
      "velocity": 84
    },
    {
      "duration": 0.09614583333313931,
      "end": 52.702968749999854,
      "pitch": 47,
      "start": 52.606822916666715,
      "velocity": 64
    },
    {
      "duration": 0.10484374999987267,
      "end": 52.78635416666657,
      "pitch": 45,
      "start": 52.6815104166667,
      "velocity": 96
    },
    {
      "duration": 0.1034895833331575,
      "end": 52.791666666666515,
      "pitch": 69,
      "start": 52.68817708333336,
      "velocity": 89
    },
    {
      "duration": 0.1261979166670244,
      "end": 53.21635416666686,
      "pitch": 48,
      "start": 53.090156249999836,
      "velocity": 80
    },
    {
      "duration": 0.1121354166666606,
      "end": 53.205677083333285,
      "pitch": 72,
      "start": 53.093541666666624,
      "velocity": 81
    },
    {
      "duration": 0.12088541666662422,
      "end": 53.301718749999964,
      "pitch": 52,
      "start": 53.18083333333334,
      "velocity": 74
    },
    {
      "duration": 0.1461458333333212,
      "end": 53.335677083333394,
      "pitch": 76,
      "start": 53.18953125000007,
      "velocity": 80
    },
    {
      "duration": 0.14083333333337578,
      "end": 53.41567708333332,
      "pitch": 50,
      "start": 53.274843749999945,
      "velocity": 85
    }
  ],
  [
    {
      "duration": 0.12088541666662422,
      "end": 53.39770833333341,
      "pitch": 74,
      "start": 53.27682291666679,
      "velocity": 75
    },
    {
      "duration": 0.08218750000014552,
      "end": 53.45505208333361,
      "pitch": 71,
      "start": 53.37286458333347,
      "velocity": 83
    },
    {
      "duration": 0.11755208333306655,
      "end": 53.500989583333194,
      "pitch": 47,
      "start": 53.38343750000013,
      "velocity": 75
    },
    {
      "duration": 0.059010416666296805,
      "end": 53.517083333333176,
      "pitch": 43,
      "start": 53.45807291666688,
      "velocity": 66
    },
    {
      "duration": 0.053645833333575865,
      "end": 53.51369791666684,
      "pitch": 45,
      "start": 53.46005208333327,
      "velocity": 64
    },
    {
      "duration": 0.10557291666646051,
      "end": 53.5723958333333,
      "pitch": 69,
      "start": 53.46682291666684,
      "velocity": 90
    },
    {
      "duration": 0.08015625000007276,
      "end": 53.95765625000013,
      "pitch": 50,
      "start": 53.877500000000055,
      "velocity": 96
    },
    {
      "duration": 0.07151041666656965,
      "end": 53.95630208333341,
      "pitch": 38,
      "start": 53.88479166666684,
      "velocity": 95
    },
    {
      "duration": 0.048177083333484916,
      "end": 54.40963541666679,
      "pitch": 33,
      "start": 54.3614583333333,
      "velocity": 92
    },
    {
      "duration": 0.5211458333333212,
      "end": 54.88390625000011,
      "pitch": 45,
      "start": 54.36276041666679,
      "velocity": 95
    },
    {
      "duration": 0.5157291666669153,
      "end": 54.88390625000011,
      "pitch": 69,
      "start": 54.368177083333194,
      "velocity": 95
    },
    {
      "duration": 0.5147916666664969,
      "end": 54.88390625000011,
      "pitch": 81,
      "start": 54.36911458333361,
      "velocity": 101
    },
    {
      "duration": 0.1295833333333576,
      "end": 54.93901041666686,
      "pitch": 52,
      "start": 54.8094270833335,
      "velocity": 76
    },
    {
      "duration": 0.13885416666653327,
      "end": 54.95499999999993,
      "pitch": 76,
      "start": 54.816145833333394,
      "velocity": 84
    },
    {
      "duration": 0.13359375000027285,
      "end": 55.040364583333485,
      "pitch": 55,
      "start": 54.90677083333321,
      "velocity": 80
    },
    {
      "duration": 0.15182291666678793,
      "end": 55.07968750000009,
      "pitch": 79,
      "start": 54.9278645833333,
      "velocity": 83
    },
    {
      "duration": 0.1355208333329756,
      "end": 55.12963541666659,
      "pitch": 77,
      "start": 54.99411458333361,
      "velocity": 74
    },
    {
      "duration": 0.15359375000025466,
      "end": 55.15505208333343,
      "pitch": 53,
      "start": 55.001458333333176,
      "velocity": 79
    },
    {
      "duration": 0.0995833333331575,
      "end": 55.191718749999836,
      "pitch": 74,
      "start": 55.09213541666668,
      "velocity": 81
    },
    {
      "duration": 0.09953125000038199,
      "end": 55.2076041666669,
      "pitch": 50,
      "start": 55.108072916666515,
      "velocity": 71
    },
    {
      "duration": 0.10151041666676974,
      "end": 55.25562500000024,
      "pitch": 47,
      "start": 55.15411458333347,
      "velocity": 82
    },
    {
      "duration": 0.08895833333326664,
      "end": 55.26781250000022,
      "pitch": 69,
      "start": 55.17885416666695,
      "velocity": 89
    },
    {
      "duration": 0.08031250000021828,
      "end": 55.663072916666806,
      "pitch": 41,
      "start": 55.58276041666659,
      "velocity": 92
    },
    {
      "duration": 0.08635416666675155,
      "end": 55.6700520833333,
      "pitch": 53,
      "start": 55.58369791666655,
      "velocity": 95
    },
    {
      "duration": 0.058854166666606034,
      "end": 56.055624999999964,
      "pitch": 57,
      "start": 55.99677083333336,
      "velocity": 96
    },
    {
      "duration": 0.09614583333313931,
      "end": 56.100260416666515,
      "pitch": 45,
      "start": 56.004114583333376,
      "velocity": 99
    },
    {
      "duration": 0.08218750000014552,
      "end": 56.530260416666806,
      "pitch": 50,
      "start": 56.44807291666666,
      "velocity": 95
    },
    {
      "duration": 0.09614583333313931,
      "end": 56.54624999999987,
      "pitch": 38,
      "start": 56.45010416666673,
      "velocity": 100
    },
    {
      "duration": 0.08546875000001819,
      "end": 56.77026041666659,
      "pitch": 81,
      "start": 56.68479166666657,
      "velocity": 93
    },
    {
      "duration": 0.4800000000000182,
      "end": 57.449427083333376,
      "pitch": 81,
      "start": 56.96942708333336,
      "velocity": 94
    },
    {
      "duration": 0.47468750000007276,
      "end": 57.449427083333376,
      "pitch": 33,
      "start": 56.9747395833333,
      "velocity": 96
    },
    {
      "duration": 0.47375000000010914,
      "end": 57.449427083333376,
      "pitch": 45,
      "start": 56.97567708333327,
      "velocity": 97
    },
    {
      "duration": 0.4734374999998181,
      "end": 57.449427083333376,
      "pitch": 69,
      "start": 56.97598958333356,
      "velocity": 91
    },
    {
      "duration": 0.10682291666671517,
      "end": 57.50624999999991,
      "pitch": 50,
      "start": 57.399427083333194,
      "velocity": 83
    },
    {
      "duration": 0.1242187500001819,
      "end": 57.530937500000164,
      "pitch": 74,
      "start": 57.40671874999998,
      "velocity": 86
    },
    {
      "duration": 0.10494791666678793,
      "end": 57.60765625000022,
      "pitch": 53,
      "start": 57.50270833333343,
      "velocity": 75
    },
    {
      "duration": 0.16364583333324845,
      "end": 57.671718749999854,
      "pitch": 77,
      "start": 57.508072916666606,
      "velocity": 78
    },
    {
      "duration": 0.11953124999990905,
      "end": 57.70364583333321,
      "pitch": 76,
      "start": 57.5841145833333,
      "velocity": 66
    },
    {
      "duration": 0.1495312499996544,
      "end": 57.74291666666659,
      "pitch": 52,
      "start": 57.59338541666693,
      "velocity": 72
    },
    {
      "duration": 0.08885416666680612,
      "end": 57.76557291666677,
      "pitch": 72,
      "start": 57.676718749999964,
      "velocity": 75
    },
    {
      "duration": 0.11354166666660603,
      "end": 57.81359375000011,
      "pitch": 48,
      "start": 57.7000520833335,
      "velocity": 74
    },
    {
      "duration": 0.08020833333330302,
      "end": 57.83359375000009,
      "pitch": 45,
      "start": 57.75338541666679,
      "velocity": 90
    },
    {
      "duration": 0.1070833333333212,
      "end": 57.86890625000024,
      "pitch": 69,
      "start": 57.761822916666915,
      "velocity": 88
    },
    {
      "duration": 0.14619791666655146,
      "end": 58.308281250000164,
      "pitch": 74,
      "start": 58.16208333333361,
      "velocity": 80
    },
    {
      "duration": 0.0761458333331575,
      "end": 58.24015624999993,
      "pitch": 50,
      "start": 58.16401041666677,
      "velocity": 80
    },
    {
      "duration": 0.13875000000007276,
      "end": 58.388124999999945,
      "pitch": 53,
      "start": 58.24937499999987,
      "velocity": 82
    },
    {
      "duration": 0.14750000000003638,
      "end": 58.40223958333354,
      "pitch": 77,
      "start": 58.2547395833335,
      "velocity": 78
    },
    {
      "duration": 0.12447916666678793,
      "end": 58.46432291666679,
      "pitch": 76,
      "start": 58.33984375,
      "velocity": 72
    },
    {
      "duration": 0.1530208333333576,
      "end": 58.50171875000024,
      "pitch": 52,
      "start": 58.34869791666688,
      "velocity": 75
    },
    {
      "duration": 0.08421874999976353,
      "end": 58.5216145833333,
      "pitch": 72,
      "start": 58.43739583333354,
      "velocity": 78
    },
    {
      "duration": 0.11885416666700621,
      "end": 58.56557291666695,
      "pitch": 48,
      "start": 58.446718749999945,
      "velocity": 75
    },
    {
      "duration": 0.09291666666695164,
      "end": 58.59958333333361,
      "pitch": 45,
      "start": 58.50666666666666,
      "velocity": 89
    },
    {
      "duration": 0.09822916666689707,
      "end": 58.63359375000027,
      "pitch": 69,
      "start": 58.535364583333376,
      "velocity": 88
    },
    {
      "duration": 0.050208333333557675,
      "end": 58.99421875000007,
      "pitch": 52,
      "start": 58.944010416666515,
      "velocity": 92
    },
    {
      "duration": 0.05671875000007276,
      "end": 59.008072916666606,
      "pitch": 40,
      "start": 58.95135416666653,
      "velocity": 96
    },
    {
      "duration": 0.4778645833334849,
      "end": 59.87177083333336,
      "pitch": 81,
      "start": 59.39390624999987,
      "velocity": 99
    },
    {
      "duration": 0.47593749999987267,
      "end": 59.87177083333336,
      "pitch": 33,
      "start": 59.395833333333485,
      "velocity": 95
    },
    {
      "duration": 0.4749479166666788,
      "end": 59.87177083333336,
      "pitch": 45,
      "start": 59.39682291666668,
      "velocity": 99
    },
    {
      "duration": 0.47453124999992724,
      "end": 59.87177083333336,
      "pitch": 69,
      "start": 59.39723958333343,
      "velocity": 88
    },
    {
      "duration": 0.07854166666675155,
      "end": 59.90421874999993,
      "pitch": 50,
      "start": 59.825677083333176,
      "velocity": 84
    },
    {
      "duration": 0.07958333333317569,
      "end": 59.90619791666677,
      "pitch": 74,
      "start": 59.826614583333594,
      "velocity": 83
    },
    {
      "duration": 0.1567187499999818,
      "end": 60.06796875000009,
      "pitch": 77,
      "start": 59.91125000000011,
      "velocity": 86
    },
    {
      "duration": 0.12484374999985448,
      "end": 60.03953124999998,
      "pitch": 53,
      "start": 59.91468750000013,
      "velocity": 77
    },
    {
      "duration": 0.11958333333359406,
      "end": 60.119635416666824,
      "pitch": 76,
      "start": 60.00005208333323,
      "velocity": 75
    },
    {
      "duration": 0.13552083333343035,
      "end": 60.140885416666606,
      "pitch": 52,
      "start": 60.005364583333176,
      "velocity": 77
    },
    {
      "duration": 0.08744791666686069,
      "end": 60.178177083333594,
      "pitch": 72,
      "start": 60.09072916666673,
      "velocity": 80
    },
    {
      "duration": 0.08661458333335759,
      "end": 60.20791666666673,
      "pitch": 48,
      "start": 60.121302083333376,
      "velocity": 72
    },
    {
      "duration": 0.08218750000014552,
      "end": 60.24953125000002,
      "pitch": 45,
      "start": 60.16734374999987,
      "velocity": 95
    },
    {
      "duration": 0.09088541666642413,
      "end": 60.27619791666666,
      "pitch": 69,
      "start": 60.18531250000024,
      "velocity": 88
    },
    {
      "duration": 0.07864583333321207,
      "end": 60.64401041666679,
      "pitch": 52,
      "start": 60.565364583333576,
      "velocity": 92
    },
    {
      "duration": 0.05682291666698802,
      "end": 60.62416666666695,
      "pitch": 40,
      "start": 60.567343749999964,
      "velocity": 91
    },
    {
      "duration": 0.05223958333317569,
      "end": 61.038906249999854,
      "pitch": 57,
      "start": 60.98666666666668,
      "velocity": 97
    },
    {
      "duration": 0.09416666666675155,
      "end": 61.093489583333394,
      "pitch": 45,
      "start": 60.99932291666664,
      "velocity": 100
    },
    {
      "duration": 0.1155729166666788,
      "end": 61.55749999999989,
      "pitch": 36,
      "start": 61.44192708333321,
      "velocity": 100
    },
    {
      "duration": 0.09244791666651508,
      "end": 61.53635416666657,
      "pitch": 48,
      "start": 61.443906250000055,
      "velocity": 97
    },
    {
      "duration": 0.09083333333319388,
      "end": 61.80151041666659,
      "pitch": 81,
      "start": 61.710677083333394,
      "velocity": 94
    },
    {
      "duration": 0.5400520833331939,
      "end": 62.5546875,
      "pitch": 29,
      "start": 62.014635416666806,
      "velocity": 95
    },
    {
      "duration": 0.5391666666664605,
      "end": 62.5546875,
      "pitch": 41,
      "start": 62.01552083333354,
      "velocity": 97
    },
    {
      "duration": 0.536718750000091,
      "end": 62.5546875,
      "pitch": 81,
      "start": 62.01796874999991,
      "velocity": 99
    },
    {
      "duration": 0.5228645833331029,
      "end": 62.5546875,
      "pitch": 69,
      "start": 62.0318229166669,
      "velocity": 91
    },
    {
      "duration": 0.13218750000032742,
      "end": 62.61755208333352,
      "pitch": 76,
      "start": 62.485364583333194,
      "velocity": 83
    },
    {
      "duration": 0.06739583333319388,
      "end": 62.5546875,
      "pitch": 52,
      "start": 62.487291666666806,
      "velocity": 75
    },
    {
      "duration": 0.15369791666671517,
      "end": 62.74031250000007,
      "pitch": 79,
      "start": 62.58661458333336,
      "velocity": 81
    },
    {
      "duration": 0.09817708333321207,
      "end": 62.68682291666664,
      "pitch": 55,
      "start": 62.58864583333343,
      "velocity": 57
    },
    {
      "duration": 0.14786458333355768,
      "end": 62.8055208333335,
      "pitch": 77,
      "start": 62.657656249999945,
      "velocity": 76
    },
    {
      "duration": 0.14218750000009095,
      "end": 62.81281250000029,
      "pitch": 53,
      "start": 62.6706250000002,
      "velocity": 73
    },
    {
      "duration": 0.11552083333299379,
      "end": 62.874843749999854,
      "pitch": 72,
      "start": 62.75932291666686,
      "velocity": 74
    },
    {
      "duration": 0.09619791666682431,
      "end": 62.87880208333354,
      "pitch": 48,
      "start": 62.782604166666715,
      "velocity": 74
    },
    {
      "duration": 0.10354166666638775,
      "end": 62.93015624999998,
      "pitch": 45,
      "start": 62.826614583333594,
      "velocity": 87
    },
    {
      "duration": 0.10020833333328483,
      "end": 62.95348958333352,
      "pitch": 69,
      "start": 62.85328125000024,
      "velocity": 90
    },
    {
      "duration": 0.09072916666673336,
      "end": 63.333385416666715,
      "pitch": 52,
      "start": 63.24265624999998,
      "velocity": 69
    },
    {
      "duration": 0.11354166666706078,
      "end": 63.36015625000027,
      "pitch": 76,
      "start": 63.24661458333321,
      "velocity": 87
    },
    {
      "duration": 0.09093750000010914,
      "end": 63.438854166666715,
      "pitch": 55,
      "start": 63.347916666666606,
      "velocity": 44
    },
    {
      "duration": 0.14963541666656965,
      "end": 63.500937499999964,
      "pitch": 79,
      "start": 63.351302083333394,
      "velocity": 79
    },
    {
      "duration": 0.12520833333292103,
      "end": 63.54901041666653,
      "pitch": 77,
      "start": 63.42380208333361,
      "velocity": 78
    },
    {
      "duration": 0.17598958333337578,
      "end": 63.61791666666659,
      "pitch": 53,
      "start": 63.44192708333321,
      "velocity": 74
    },
    {
      "duration": 0.11619791666680612,
      "end": 63.64682291666668,
      "pitch": 72,
      "start": 63.53062499999987,
      "velocity": 80
    },
    {
      "duration": 0.10291666666671517,
      "end": 63.68015624999998,
      "pitch": 48,
      "start": 63.57723958333327,
      "velocity": 67
    },
    {
      "duration": 0.0929166666664969,
      "end": 63.700156249999964,
      "pitch": 45,
      "start": 63.60723958333347,
      "velocity": 90
    },
    {
      "duration": 0.10020833333328483,
      "end": 63.73218750000024,
      "pitch": 69,
      "start": 63.63197916666695,
      "velocity": 92
    }
  ],
  [
    {
      "duration": 0.04484375000038199,
      "end": 64.08213541666692,
      "pitch": 53,
      "start": 64.03729166666653,
      "velocity": 95
    },
    {
      "duration": 0.05218749999994543,
      "end": 64.10541666666677,
      "pitch": 41,
      "start": 64.05322916666682,
      "velocity": 95
    },
    {
      "duration": 0.9280208333334485,
      "end": 65.48125000000027,
      "pitch": 29,
      "start": 64.55322916666682,
      "velocity": 106
    },
    {
      "duration": 0.9246875000003456,
      "end": 65.48125000000027,
      "pitch": 41,
      "start": 64.55656249999993,
      "velocity": 105
    },
    {
      "duration": 0.9213020833335577,
      "end": 65.48125000000027,
      "pitch": 81,
      "start": 64.55994791666672,
      "velocity": 100
    },
    {
      "duration": 0.9173437500003274,
      "end": 65.48125000000027,
      "pitch": 69,
      "start": 64.56390624999995,
      "velocity": 88
    },
    {
      "duration": 0.14083333333337578,
      "end": 65.56671875000029,
      "pitch": 52,
      "start": 65.42588541666692,
      "velocity": 82
    },
    {
      "duration": 0.16416666666691526,
      "end": 65.59338541666693,
      "pitch": 76,
      "start": 65.42921875000002,
      "velocity": 85
    },
    {
      "duration": 0.13062499999978172,
      "end": 65.66817708333338,
      "pitch": 79,
      "start": 65.5375520833336,
      "velocity": 75
    },
    {
      "duration": 0.05749999999989086,
      "end": 65.61473958333318,
      "pitch": 55,
      "start": 65.55723958333328,
      "velocity": 73
    },
    {
      "duration": 0.12484375000030923,
      "end": 65.7214062500002,
      "pitch": 77,
      "start": 65.59656249999989,
      "velocity": 78
    },
    {
      "duration": 0.15286458333321207,
      "end": 65.7547395833335,
      "pitch": 53,
      "start": 65.60187500000029,
      "velocity": 54
    },
    {
      "duration": 0.1315625000002001,
      "end": 65.82947916666672,
      "pitch": 74,
      "start": 65.69791666666652,
      "velocity": 84
    },
    {
      "duration": 0.07890625000027285,
      "end": 65.81744791666688,
      "pitch": 50,
      "start": 65.7385416666666,
      "velocity": 38
    },
    {
      "duration": 0.0929687500001819,
      "end": 65.87953125000013,
      "pitch": 46,
      "start": 65.78656249999995,
      "velocity": 93
    },
    {
      "duration": 0.10281250000025466,
      "end": 65.89875000000029,
      "pitch": 70,
      "start": 65.79593750000004,
      "velocity": 96
    },
    {
      "duration": 0.07885416666658784,
      "end": 66.2760937500002,
      "pitch": 41,
      "start": 66.19723958333361,
      "velocity": 97
    },
    {
      "duration": 0.06932291666680612,
      "end": 66.26869791666695,
      "pitch": 53,
      "start": 66.19937500000015,
      "velocity": 101
    },
    {
      "duration": 0.046145833333412156,
      "end": 66.64187500000025,
      "pitch": 58,
      "start": 66.59572916666684,
      "velocity": 90
    },
    {
      "duration": 0.09614583333313931,
      "end": 66.69536458333323,
      "pitch": 46,
      "start": 66.59921875000009,
      "velocity": 103
    },
    {
      "duration": 0.09416666666675155,
      "end": 67.19671874999995,
      "pitch": 50,
      "start": 67.1025520833332,
      "velocity": 97
    },
    {
      "duration": 0.08416666666653327,
      "end": 67.18802083333321,
      "pitch": 38,
      "start": 67.10385416666668,
      "velocity": 95
    },
    {
      "duration": 0.1476562500001819,
      "end": 67.5573437500002,
      "pitch": 81,
      "start": 67.40968750000002,
      "velocity": 101
    },
    {
      "duration": 0.5013541666667152,
      "end": 71.47046875000024,
      "pitch": 41,
      "start": 70.96911458333352,
      "velocity": 96
    },
    {
      "duration": 0.4998958333335395,
      "end": 71.47046875000024,
      "pitch": 81,
      "start": 70.9705729166667,
      "velocity": 96
    },
    {
      "duration": 0.49802083333361225,
      "end": 71.47046875000024,
      "pitch": 29,
      "start": 70.97244791666662,
      "velocity": 95
    },
    {
      "duration": 0.4958854166666242,
      "end": 71.47046875000024,
      "pitch": 69,
      "start": 70.97458333333361,
      "velocity": 91
    },
    {
      "duration": 0.09442708333335759,
      "end": 71.53958333333321,
      "pitch": 50,
      "start": 71.44515624999985,
      "velocity": 75
    },
    {
      "duration": 0.15145833333326664,
      "end": 71.60192708333352,
      "pitch": 74,
      "start": 71.45046875000025,
      "velocity": 76
    },
    {
      "duration": 0.11427083333319388,
      "end": 71.66265625000005,
      "pitch": 53,
      "start": 71.54838541666686,
      "velocity": 72
    },
    {
      "duration": 0.1334895833333576,
      "end": 71.68531250000024,
      "pitch": 77,
      "start": 71.55182291666688,
      "velocity": 74
    },
    {
      "duration": 0.12817708333341216,
      "end": 71.74932291666664,
      "pitch": 76,
      "start": 71.62114583333323,
      "velocity": 66
    },
    {
      "duration": 0.1441666666664787,
      "end": 71.80124999999998,
      "pitch": 52,
      "start": 71.6570833333335,
      "velocity": 68
    },
    {
      "duration": 0.08885416666635138,
      "end": 71.80796874999987,
      "pitch": 72,
      "start": 71.71911458333352,
      "velocity": 73
    },
    {
      "duration": 0.09281250000003638,
      "end": 71.83661458333336,
      "pitch": 48,
      "start": 71.74380208333332,
      "velocity": 64
    },
    {
      "duration": 0.07994791666669698,
      "end": 71.87567708333336,
      "pitch": 45,
      "start": 71.79572916666666,
      "velocity": 93
    },
    {
      "duration": 0.10364583333330302,
      "end": 71.9080729166667,
      "pitch": 69,
      "start": 71.8044270833334,
      "velocity": 87
    },
    {
      "duration": 0.12291666666669698,
      "end": 72.32536458333334,
      "pitch": 74,
      "start": 72.20244791666664,
      "velocity": 83
    },
    {
      "duration": 0.08255208333321207,
      "end": 72.29203125000004,
      "pitch": 50,
      "start": 72.20947916666682,
      "velocity": 64
    },
    {
      "duration": 0.1155729166666788,
      "end": 72.40531250000004,
      "pitch": 53,
      "start": 72.28973958333336,
      "velocity": 74
    },
    {
      "duration": 0.13885416666698802,
      "end": 72.46057291666693,
      "pitch": 77,
      "start": 72.32171874999995,
      "velocity": 76
    },
    {
      "duration": 0.16354166666678793,
      "end": 72.55463541666677,
      "pitch": 52,
      "start": 72.39109374999998,
      "velocity": 73
    },
    {
      "duration": 0.13020833333303017,
      "end": 72.52463541666657,
      "pitch": 76,
      "start": 72.39442708333354,
      "velocity": 59
    },
    {
      "duration": 0.07817708333323026,
      "end": 72.58130208333341,
      "pitch": 72,
      "start": 72.50312500000018,
      "velocity": 69
    },
    {
      "duration": 0.08229166666706078,
      "end": 72.62072916666693,
      "pitch": 48,
      "start": 72.53843749999987,
      "velocity": 73
    },
    {
      "duration": 0.10291666666671517,
      "end": 72.67729166666686,
      "pitch": 45,
      "start": 72.57437500000015,
      "velocity": 94
    },
    {
      "duration": 0.10375000000021828,
      "end": 72.69723958333361,
      "pitch": 69,
      "start": 72.5934895833334,
      "velocity": 84
    },
    {
      "duration": 0.05015624999987267,
      "end": 73.07927083333334,
      "pitch": 41,
      "start": 73.02911458333347,
      "velocity": 97
    },
    {
      "duration": 0.04203125000003638,
      "end": 73.07203125000024,
      "pitch": 53,
      "start": 73.0300000000002,
      "velocity": 94
    },
    {
      "duration": 0.04088541666669698,
      "end": 73.71927083333321,
      "pitch": 29,
      "start": 73.67838541666652,
      "velocity": 101
    },
    {
      "duration": 0.576041666666697,
      "end": 74.25640625000005,
      "pitch": 81,
      "start": 73.68036458333336,
      "velocity": 97
    },
    {
      "duration": 0.5747395833332121,
      "end": 74.25640625000005,
      "pitch": 69,
      "start": 73.68166666666684,
      "velocity": 83
    },
    {
      "duration": 0.572656249999909,
      "end": 74.25640625000005,
      "pitch": 41,
      "start": 73.68375000000015,
      "velocity": 99
    },
    {
      "duration": 0.14218750000009095,
      "end": 74.38588541666695,
      "pitch": 50,
      "start": 74.24369791666686,
      "velocity": 80
    },
    {
      "duration": 0.14546874999996362,
      "end": 74.39651041666684,
      "pitch": 74,
      "start": 74.25104166666688,
      "velocity": 88
    },
    {
      "duration": 0.2558333333331575,
      "end": 74.62390624999989,
      "pitch": 53,
      "start": 74.36807291666673,
      "velocity": 75
    },
    {
      "duration": 0.27401041666689707,
      "end": 74.65437500000007,
      "pitch": 77,
      "start": 74.38036458333318,
      "velocity": 85
    },
    {
      "duration": 0.15098958333373957,
      "end": 74.86062500000025,
      "pitch": 50,
      "start": 74.70963541666652,
      "velocity": 80
    },
    {
      "duration": 0.12062500000001819,
      "end": 74.8443229166669,
      "pitch": 74,
      "start": 74.72369791666688,
      "velocity": 86
    },
    {
      "duration": 0.1515104166664969,
      "end": 74.96921874999998,
      "pitch": 53,
      "start": 74.81770833333348,
      "velocity": 77
    },
    {
      "duration": 0.1488541666662968,
      "end": 74.98119791666659,
      "pitch": 77,
      "start": 74.83234375000029,
      "velocity": 81
    },
    {
      "duration": 0.15687500000012733,
      "end": 75.06526041666666,
      "pitch": 75,
      "start": 74.90838541666653,
      "velocity": 81
    },
    {
      "duration": 0.16906250000010914,
      "end": 75.1111979166667,
      "pitch": 51,
      "start": 74.94213541666659,
      "velocity": 81
    },
    {
      "duration": 0.1476562500001819,
      "end": 75.16656250000005,
      "pitch": 72,
      "start": 75.01890624999987,
      "velocity": 75
    },
    {
      "duration": 0.05307291666667879,
      "end": 75.14125000000013,
      "pitch": 48,
      "start": 75.08817708333345,
      "velocity": 69
    },
    {
      "duration": 0.10286458333348492,
      "end": 75.21588541666688,
      "pitch": 45,
      "start": 75.1130208333334,
      "velocity": 88
    },
    {
      "duration": 0.1082291666666606,
      "end": 75.23192708333318,
      "pitch": 69,
      "start": 75.12369791666652,
      "velocity": 83
    },
    {
      "duration": 0.1101562499998181,
      "end": 75.59119791666672,
      "pitch": 74,
      "start": 75.4810416666669,
      "velocity": 90
    },
    {
      "duration": 0.09421874999998181,
      "end": 75.58588541666677,
      "pitch": 50,
      "start": 75.49166666666679,
      "velocity": 89
    },
    {
      "duration": 0.15093750000005457,
      "end": 75.81859375000022,
      "pitch": 74,
      "start": 75.66765625000016,
      "velocity": 80
    },
    {
      "duration": 0.1382812499996362,
      "end": 75.81322916666659,
      "pitch": 50,
      "start": 75.67494791666695,
      "velocity": 75
    },
    {
      "duration": 0.18151041666669698,
      "end": 75.96453125000016,
      "pitch": 77,
      "start": 75.78302083333347,
      "velocity": 86
    },
    {
      "duration": 0.08697916666642413,
      "end": 75.87729166666668,
      "pitch": 53,
      "start": 75.79031250000025,
      "velocity": 78
    },
    {
      "duration": 0.14416666666693345,
      "end": 75.99828125000022,
      "pitch": 75,
      "start": 75.85411458333328,
      "velocity": 75
    },
    {
      "duration": 0.15421874999992724,
      "end": 76.02656250000018,
      "pitch": 51,
      "start": 75.87234375000025,
      "velocity": 77
    },
    {
      "duration": 0.11177083333313931,
      "end": 76.06390624999995,
      "pitch": 71,
      "start": 75.9521354166668,
      "velocity": 78
    },
    {
      "duration": 0.10828125000034561,
      "end": 76.09593750000022,
      "pitch": 47,
      "start": 75.98765624999987,
      "velocity": 80
    },
    {
      "duration": 0.08604166666691526,
      "end": 76.13203125000018,
      "pitch": 45,
      "start": 76.04598958333327,
      "velocity": 87
    },
    {
      "duration": 0.09625000000005457,
      "end": 76.15322916666673,
      "pitch": 69,
      "start": 76.05697916666668,
      "velocity": 95
    },
    {
      "duration": 0.09427083333321207,
      "end": 76.53187500000013,
      "pitch": 53,
      "start": 76.43760416666692,
      "velocity": 100
    },
    {
      "duration": 0.07093750000012733,
      "end": 76.51192708333338,
      "pitch": 41,
      "start": 76.44098958333325,
      "velocity": 95
    },
    {
      "duration": 0.05156250000027285,
      "end": 76.89791666666679,
      "pitch": 57,
      "start": 76.84635416666652,
      "velocity": 95
    },
    {
      "duration": 0.09421874999998181,
      "end": 76.9458854166669,
      "pitch": 45,
      "start": 76.85166666666692,
      "velocity": 95
    },
    {
      "duration": 0.09427083333321207,
      "end": 77.42390625000007,
      "pitch": 39,
      "start": 77.32963541666686,
      "velocity": 97
    },
    {
      "duration": 0.09760416666676974,
      "end": 77.42921875000002,
      "pitch": 51,
      "start": 77.33161458333325,
      "velocity": 91
    },
    {
      "duration": 0.08348958333363043,
      "end": 77.74250000000029,
      "pitch": 81,
      "start": 77.65901041666666,
      "velocity": 88
    },
    {
      "duration": 0.5386979166664787,
      "end": 79.0489583333333,
      "pitch": 40,
      "start": 78.51026041666682,
      "velocity": 90
    },
    {
      "duration": 0.5333854166665333,
      "end": 79.0489583333333,
      "pitch": 28,
      "start": 78.51557291666677,
      "velocity": 86
    },
    {
      "duration": 0.5259895833332848,
      "end": 79.0489583333333,
      "pitch": 81,
      "start": 78.52296875000002,
      "velocity": 97
    },
    {
      "duration": 0.5246354166665697,
      "end": 79.0489583333333,
      "pitch": 69,
      "start": 78.52432291666673,
      "velocity": 88
    },
    {
      "duration": 0.11958333333359406,
      "end": 79.12921875000029,
      "pitch": 74,
      "start": 79.0096354166667,
      "velocity": 83
    },
    {
      "duration": 0.06744791666642413,
      "end": 79.0791145833332,
      "pitch": 50,
      "start": 79.01166666666677,
      "velocity": 81
    },
    {
      "duration": 0.1295833333333576,
      "end": 79.23385416666679,
      "pitch": 53,
      "start": 79.10427083333343,
      "velocity": 74
    },
    {
      "duration": 0.14427083333339397,
      "end": 79.26213541666675,
      "pitch": 77,
      "start": 79.11786458333336,
      "velocity": 74
    },
    {
      "duration": 0.11927083333330302,
      "end": 79.31020833333332,
      "pitch": 76,
      "start": 79.19093750000002,
      "velocity": 69
    },
    {
      "duration": 0.1422395833333212,
      "end": 79.35979166666675,
      "pitch": 52,
      "start": 79.21755208333343,
      "velocity": 73
    },
    {
      "duration": 0.06317708333335759,
      "end": 79.36072916666672,
      "pitch": 72,
      "start": 79.29755208333336,
      "velocity": 74
    },
    {
      "duration": 0.09640624999974534,
      "end": 79.39593749999995,
      "pitch": 48,
      "start": 79.2995312500002,
      "velocity": 52
    },
    {
      "duration": 0.08182291666662422,
      "end": 79.45406249999996,
      "pitch": 45,
      "start": 79.37223958333334,
      "velocity": 88
    },
    {
      "duration": 0.10484375000032742,
      "end": 79.48244791666684,
      "pitch": 69,
      "start": 79.37760416666652,
      "velocity": 83
    }
  ],
  [
    {
      "duration": 0.058645833333685005,
      "end": 79.83625000000029,
      "pitch": 50,
      "start": 79.7776041666666,
      "velocity": 73
    },
    {
      "duration": 0.13458333333346673,
      "end": 79.91312500000004,
      "pitch": 74,
      "start": 79.77854166666657,
      "velocity": 78
    },
    {
      "duration": 0.09953124999992724,
      "end": 79.96979166666688,
      "pitch": 53,
      "start": 79.87026041666695,
      "velocity": 65
    },
    {
      "duration": 0.11421874999996362,
      "end": 80.01447916666666,
      "pitch": 77,
      "start": 79.9002604166667,
      "velocity": 64
    },
    {
      "duration": 0.17947916666662422,
      "end": 80.15104166666652,
      "pitch": 52,
      "start": 79.97156249999989,
      "velocity": 66
    },
    {
      "duration": 0.09541666666655146,
      "end": 80.06796875000009,
      "pitch": 76,
      "start": 79.97255208333354,
      "velocity": 64
    },
    {
      "duration": 0.05166666666673336,
      "end": 80.13526041666682,
      "pitch": 72,
      "start": 80.08359375000009,
      "velocity": 71
    },
    {
      "duration": 0.10687499999994543,
      "end": 80.19911458333354,
      "pitch": 48,
      "start": 80.0922395833336,
      "velocity": 64
    },
    {
      "duration": 0.10489583333310293,
      "end": 80.24911458333327,
      "pitch": 45,
      "start": 80.14421875000016,
      "velocity": 88
    },
    {
      "duration": 0.0941666666662968,
      "end": 80.25442708333321,
      "pitch": 69,
      "start": 80.16026041666692,
      "velocity": 83
    },
    {
      "duration": 0.08557291666693345,
      "end": 80.74713541666688,
      "pitch": 48,
      "start": 80.66156249999995,
      "velocity": 88
    },
    {
      "duration": 0.07682291666651508,
      "end": 80.74171875000002,
      "pitch": 36,
      "start": 80.6648958333335,
      "velocity": 91
    },
    {
      "duration": 0.09812499999998181,
      "end": 81.09171874999993,
      "pitch": 81,
      "start": 80.99359374999995,
      "velocity": 90
    },
    {
      "duration": 0.5246354166665697,
      "end": 82.05354166666666,
      "pitch": 81,
      "start": 81.52890625000009,
      "velocity": 90
    },
    {
      "duration": 0.5226562499997272,
      "end": 82.05354166666666,
      "pitch": 26,
      "start": 81.53088541666693,
      "velocity": 91
    },
    {
      "duration": 0.5223958333331211,
      "end": 82.05354166666666,
      "pitch": 38,
      "start": 81.53114583333354,
      "velocity": 95
    },
    {
      "duration": 0.5193229166666242,
      "end": 82.05354166666666,
      "pitch": 69,
      "start": 81.53421875000004,
      "velocity": 86
    },
    {
      "duration": 0.14218750000009095,
      "end": 82.12442708333356,
      "pitch": 48,
      "start": 81.98223958333347,
      "velocity": 84
    },
    {
      "duration": 0.12520833333337578,
      "end": 82.10833333333358,
      "pitch": 72,
      "start": 81.9831250000002,
      "velocity": 87
    },
    {
      "duration": 0.14598958333363043,
      "end": 82.23979166666686,
      "pitch": 76,
      "start": 82.09380208333323,
      "velocity": 76
    },
    {
      "duration": 0.11953124999990905,
      "end": 82.21708333333345,
      "pitch": 52,
      "start": 82.09755208333354,
      "velocity": 65
    },
    {
      "duration": 0.1381770833331757,
      "end": 82.31979166666679,
      "pitch": 74,
      "start": 82.18161458333361,
      "velocity": 79
    },
    {
      "duration": 0.15682291666689707,
      "end": 82.35234375000027,
      "pitch": 50,
      "start": 82.19552083333338,
      "velocity": 81
    },
    {
      "duration": 0.0929687500001819,
      "end": 82.39515625000013,
      "pitch": 71,
      "start": 82.30218749999995,
      "velocity": 77
    },
    {
      "duration": 0.09052083333335759,
      "end": 82.43005208333352,
      "pitch": 47,
      "start": 82.33953125000016,
      "velocity": 57
    },
    {
      "duration": 0.05828124999970896,
      "end": 82.453125,
      "pitch": 43,
      "start": 82.39484375000029,
      "velocity": 76
    },
    {
      "duration": 0.09953124999992724,
      "end": 82.49776041666655,
      "pitch": 69,
      "start": 82.39822916666662,
      "velocity": 91
    },
    {
      "duration": 0.044947916666387755,
      "end": 82.44645833333334,
      "pitch": 45,
      "start": 82.40151041666695,
      "velocity": 76
    },
    {
      "duration": 0.05161458333304836,
      "end": 82.83046874999991,
      "pitch": 38,
      "start": 82.77885416666686,
      "velocity": 97
    },
    {
      "duration": 0.0534895833329756,
      "end": 82.83369791666655,
      "pitch": 50,
      "start": 82.78020833333358,
      "velocity": 96
    },
    {
      "duration": 0.05828124999970896,
      "end": 83.26911458333325,
      "pitch": 57,
      "start": 83.21083333333354,
      "velocity": 79
    },
    {
      "duration": 0.08223958333337578,
      "end": 83.30505208333352,
      "pitch": 45,
      "start": 83.22281250000015,
      "velocity": 88
    },
    {
      "duration": 0.09421874999998181,
      "end": 83.76171875,
      "pitch": 52,
      "start": 83.66750000000002,
      "velocity": 95
    },
    {
      "duration": 0.055729166666424135,
      "end": 83.73166666666657,
      "pitch": 40,
      "start": 83.67593750000015,
      "velocity": 92
    },
    {
      "duration": 0.08218750000014552,
      "end": 84.02505208333332,
      "pitch": 81,
      "start": 83.94286458333318,
      "velocity": 97
    },
    {
      "duration": 0.5099999999997635,
      "end": 84.98484374999998,
      "pitch": 81,
      "start": 84.47484375000022,
      "velocity": 88
    },
    {
      "duration": 0.5046874999998181,
      "end": 84.98484374999998,
      "pitch": 45,
      "start": 84.48015625000016,
      "velocity": 85
    },
    {
      "duration": 0.5044270833332121,
      "end": 84.98484374999998,
      "pitch": 69,
      "start": 84.48041666666677,
      "velocity": 83
    },
    {
      "duration": 0.5014062499999454,
      "end": 84.98484374999998,
      "pitch": 33,
      "start": 84.48343750000004,
      "velocity": 68
    },
    {
      "duration": 0.13296874999969077,
      "end": 85.07177083333318,
      "pitch": 50,
      "start": 84.93880208333348,
      "velocity": 75
    },
    {
      "duration": 0.08750000000009095,
      "end": 85.02765625000029,
      "pitch": 74,
      "start": 84.9401562500002,
      "velocity": 83
    },
    {
      "duration": 0.11229166666680612,
      "end": 85.15572916666679,
      "pitch": 53,
      "start": 85.04343749999998,
      "velocity": 74
    },
    {
      "duration": 0.1515625000001819,
      "end": 85.19838541666695,
      "pitch": 77,
      "start": 85.04682291666677,
      "velocity": 75
    },
    {
      "duration": 0.10552083333323026,
      "end": 85.23234374999993,
      "pitch": 76,
      "start": 85.1268229166667,
      "velocity": 64
    },
    {
      "duration": 0.13692708333337578,
      "end": 85.27307291666693,
      "pitch": 52,
      "start": 85.13614583333356,
      "velocity": 74
    },
    {
      "duration": 0.05687499999976353,
      "end": 85.28703124999993,
      "pitch": 72,
      "start": 85.23015625000016,
      "velocity": 74
    },
    {
      "duration": 0.10286458333348492,
      "end": 85.34567708333361,
      "pitch": 48,
      "start": 85.24281250000013,
      "velocity": 74
    },
    {
      "duration": 0.09411458333306655,
      "end": 85.41161458333318,
      "pitch": 69,
      "start": 85.31750000000011,
      "velocity": 80
    },
    {
      "duration": 0.05765625000003638,
      "end": 85.38166666666666,
      "pitch": 47,
      "start": 85.32401041666662,
      "velocity": 74
    },
    {
      "duration": 0.09625000000005457,
      "end": 85.7956250000002,
      "pitch": 50,
      "start": 85.69937500000015,
      "velocity": 76
    },
    {
      "duration": 0.07348958333341216,
      "end": 85.77630208333358,
      "pitch": 74,
      "start": 85.70281250000016,
      "velocity": 81
    },
    {
      "duration": 0.10031249999974534,
      "end": 85.9044270833333,
      "pitch": 53,
      "start": 85.80411458333356,
      "velocity": 74
    },
    {
      "duration": 0.13364583333304836,
      "end": 85.94307291666655,
      "pitch": 77,
      "start": 85.8094270833335,
      "velocity": 76
    },
    {
      "duration": 0.1334895833333576,
      "end": 86.00895833333334,
      "pitch": 76,
      "start": 85.87546874999998,
      "velocity": 64
    },
    {
      "duration": 0.16026041666691526,
      "end": 86.06036458333347,
      "pitch": 52,
      "start": 85.90010416666655,
      "velocity": 75
    },
    {
      "duration": 0.08223958333292103,
      "end": 86.06968749999987,
      "pitch": 72,
      "start": 85.98744791666695,
      "velocity": 73
    },
    {
      "duration": 0.09968750000007276,
      "end": 86.13161458333343,
      "pitch": 48,
      "start": 86.03192708333336,
      "velocity": 74
    },
    {
      "duration": 0.09953124999992724,
      "end": 86.18499999999995,
      "pitch": 69,
      "start": 86.08546875000002,
      "velocity": 90
    },
    {
      "duration": 0.09625000000005457,
      "end": 86.1883333333335,
      "pitch": 45,
      "start": 86.09208333333345,
      "velocity": 88
    },
    {
      "duration": 0.07489583333335759,
      "end": 86.57098958333336,
      "pitch": 50,
      "start": 86.49609375,
      "velocity": 66
    },
    {
      "duration": 0.07885416666658784,
      "end": 86.59229166666682,
      "pitch": 62,
      "start": 86.51343750000024,
      "velocity": 74
    },
    {
      "duration": 0.10692708333317569,
      "end": 86.6916666666666,
      "pitch": 53,
      "start": 86.58473958333343,
      "velocity": 74
    },
    {
      "duration": 0.12427083333295741,
      "end": 86.73765624999987,
      "pitch": 65,
      "start": 86.61338541666692,
      "velocity": 67
    },
    {
      "duration": 0.1613020833333394,
      "end": 86.84406250000029,
      "pitch": 52,
      "start": 86.68276041666695,
      "velocity": 74
    },
    {
      "duration": 0.12557291666689707,
      "end": 86.80968750000011,
      "pitch": 64,
      "start": 86.68411458333321,
      "velocity": 66
    },
    {
      "duration": 0.08546875000001819,
      "end": 86.87494791666677,
      "pitch": 60,
      "start": 86.78947916666675,
      "velocity": 73
    },
    {
      "duration": 0.10479166666664241,
      "end": 86.91354166666679,
      "pitch": 48,
      "start": 86.80875000000015,
      "velocity": 69
    },
    {
      "duration": 0.4185937499996726,
      "end": 87.31229166666662,
      "pitch": 45,
      "start": 86.89369791666695,
      "velocity": 78
    },
    {
      "duration": 0.41437500000029104,
      "end": 87.31380208333348,
      "pitch": 57,
      "start": 86.8994270833332,
      "velocity": 78
    },
    {
      "duration": 0.1781770833331393,
      "end": 87.47562500000004,
      "pitch": 62,
      "start": 87.2974479166669,
      "velocity": 74
    },
    {
      "duration": 0.109427083333685,
      "end": 87.42197916666692,
      "pitch": 50,
      "start": 87.31255208333323,
      "velocity": 52
    },
    {
      "duration": 0.12687499999992724,
      "end": 87.5309895833334,
      "pitch": 53,
      "start": 87.40411458333347,
      "velocity": 60
    },
    {
      "duration": 0.15124999999989086,
      "end": 87.5750520833335,
      "pitch": 65,
      "start": 87.42380208333361,
      "velocity": 67
    },
    {
      "duration": 0.14020833333324845,
      "end": 87.62828124999987,
      "pitch": 64,
      "start": 87.48807291666662,
      "velocity": 58
    },
    {
      "duration": 0.15484375000005457,
      "end": 87.66421875000015,
      "pitch": 52,
      "start": 87.50937500000009,
      "velocity": 74
    },
    {
      "duration": 0.09088541666642413,
      "end": 87.6963020833332,
      "pitch": 60,
      "start": 87.60541666666677,
      "velocity": 70
    },
    {
      "duration": 0.09942708333346673,
      "end": 87.73687500000005,
      "pitch": 48,
      "start": 87.63744791666659,
      "velocity": 65
    },
    {
      "duration": 0.41630208333344854,
      "end": 88.13161458333343,
      "pitch": 45,
      "start": 87.71531249999998,
      "velocity": 79
    },
    {
      "duration": 0.40848958333344854,
      "end": 88.1325520833334,
      "pitch": 57,
      "start": 87.72406249999995,
      "velocity": 73
    },
    {
      "duration": 0.16416666666691526,
      "end": 88.26692708333348,
      "pitch": 62,
      "start": 88.10276041666657,
      "velocity": 77
    },
    {
      "duration": 0.08562499999970896,
      "end": 88.20635416666664,
      "pitch": 50,
      "start": 88.12072916666693,
      "velocity": 42
    },
    {
      "duration": 0.11421874999996362,
      "end": 88.31494791666682,
      "pitch": 53,
      "start": 88.20072916666686,
      "velocity": 75
    },
    {
      "duration": 0.1282291666666424,
      "end": 88.34494791666657,
      "pitch": 65,
      "start": 88.21671874999993,
      "velocity": 64
    },
    {
      "duration": 0.11223958333357587,
      "end": 88.40567708333356,
      "pitch": 64,
      "start": 88.29343749999998,
      "velocity": 57
    },
    {
      "duration": 0.1461458333333212,
      "end": 88.45687499999985,
      "pitch": 52,
      "start": 88.31072916666653,
      "velocity": 66
    },
    {
      "duration": 0.11885416666655146,
      "end": 88.52963541666668,
      "pitch": 60,
      "start": 88.41078125000013,
      "velocity": 71
    },
    {
      "duration": 0.13864583333361225,
      "end": 88.57203125000024,
      "pitch": 48,
      "start": 88.43338541666662,
      "velocity": 63
    },
    {
      "duration": 0.4548437499997817,
      "end": 88.99359374999995,
      "pitch": 45,
      "start": 88.53875000000016,
      "velocity": 67
    },
    {
      "duration": 0.43354166666676974,
      "end": 88.98828125,
      "pitch": 57,
      "start": 88.55473958333323,
      "velocity": 69
    },
    {
      "duration": 0.20291666666662422,
      "end": 89.18031250000013,
      "pitch": 62,
      "start": 88.9773958333335,
      "velocity": 65
    },
    {
      "duration": 0.15161458333341216,
      "end": 89.13432291666686,
      "pitch": 50,
      "start": 88.98270833333345,
      "velocity": 51
    },
    {
      "duration": 0.11885416666655146,
      "end": 89.22822916666655,
      "pitch": 53,
      "start": 89.109375,
      "velocity": 54
    },
    {
      "duration": 0.19104166666693345,
      "end": 89.32619791666684,
      "pitch": 65,
      "start": 89.13515624999991,
      "velocity": 57
    },
    {
      "duration": 0.17630208333366681,
      "end": 89.42223958333352,
      "pitch": 52,
      "start": 89.24593749999985,
      "velocity": 60
    },
    {
      "duration": 0.2239062499997999,
      "end": 89.48598958333332,
      "pitch": 64,
      "start": 89.26208333333352,
      "velocity": 55
    },
    {
      "duration": 0.6279687500000364,
      "end": 90.0427083333334,
      "pitch": 48,
      "start": 89.41473958333336,
      "velocity": 56
    },
    {
      "duration": 0.8161458333329392,
      "end": 90.27557291666653,
      "pitch": 60,
      "start": 89.4594270833336,
      "velocity": 60
    },
    {
      "duration": 3.914583333333212,
      "end": 93.86994791666666,
      "pitch": 33,
      "start": 89.95536458333345,
      "velocity": 40
    },
    {
      "duration": 1.3026562499999272,
      "end": 91.47869791666653,
      "pitch": 57,
      "start": 90.1760416666666,
      "velocity": 63
    },
    {
      "duration": 2.0923437500000546,
      "end": 93.08770833333347,
      "pitch": 52,
      "start": 90.99536458333341,
      "velocity": 60
    }
  ],
  [
    {
      "duration": 0.9726041666667697,
      "end": 92.4513020833333,
      "pitch": 57,
      "start": 91.47869791666653,
      "velocity": 74
    },
    {
      "duration": 3.577031249999891,
      "end": 95.53031250000004,
      "pitch": 64,
      "start": 91.95328125000015,
      "velocity": 72
    },
    {
      "duration": 2.6079166666668243,
      "end": 95.05921875000013,
      "pitch": 57,
      "start": 92.4513020833333,
      "velocity": 62
    },
    {
      "duration": 1.5202083333333576,
      "end": 94.60791666666682,
      "pitch": 52,
      "start": 93.08770833333347,
      "velocity": 47
    },
    {
      "duration": 3.787968749999891,
      "end": 97.36124999999993,
      "pitch": 73,
      "start": 93.57328125000004,
      "velocity": 78
    },
    {
      "duration": 3.4045833333334485,
      "end": 97.27453125000011,
      "pitch": 33,
      "start": 93.86994791666666,
      "velocity": 57
    },
    {
      "duration": 3.2655208333330847,
      "end": 97.36124999999993,
      "pitch": 76,
      "start": 94.09572916666684,
      "velocity": 81
    },
    {
      "duration": 0.4403645833331211,
      "end": 95.04828124999995,
      "pitch": 52,
      "start": 94.60791666666682,
      "velocity": 45
    },
    {
      "duration": 1.9909374999997453,
      "end": 96.60921874999985,
      "pitch": 45,
      "start": 94.61828125000011,
      "velocity": 57
    },
    {
      "duration": 0.9869791666669698,
      "end": 96.03526041666692,
      "pitch": 52,
      "start": 95.04828124999995,
      "velocity": 49
    },
    {
      "duration": 0.46708333333344854,
      "end": 95.52630208333358,
      "pitch": 57,
      "start": 95.05921875000013,
      "velocity": 60
    },
    {
      "duration": 0.5056249999997817,
      "end": 96.03192708333336,
      "pitch": 57,
      "start": 95.52630208333358,
      "velocity": 74
    },
    {
      "duration": 1.8309374999998909,
      "end": 97.36124999999993,
      "pitch": 64,
      "start": 95.53031250000004,
      "velocity": 68
    },
    {
      "duration": 1.3293229166665697,
      "end": 97.36124999999993,
      "pitch": 57,
      "start": 96.03192708333336,
      "velocity": 60
    },
    {
      "duration": 0.5599479166662604,
      "end": 96.59520833333318,
      "pitch": 52,
      "start": 96.03526041666692,
      "velocity": 66
    },
    {
      "duration": 0.7660416666667516,
      "end": 97.36124999999993,
      "pitch": 52,
      "start": 96.59520833333318,
      "velocity": 39
    },
    {
      "duration": 0.7520312500000728,
      "end": 97.36124999999993,
      "pitch": 45,
      "start": 96.60921874999985,
      "velocity": 56
    },
    {
      "duration": 0.47598958333310293,
      "end": 97.36124999999993,
      "pitch": 75,
      "start": 96.88526041666682,
      "velocity": 59
    },
    {
      "duration": 0.46536458333321207,
      "end": 97.36124999999993,
      "pitch": 72,
      "start": 96.89588541666672,
      "velocity": 56
    },
    {
      "duration": 1.9573437499998363,
      "end": 99.23187499999995,
      "pitch": 33,
      "start": 97.27453125000011,
      "velocity": 56
    },
    {
      "duration": 1.5926041666666606,
      "end": 98.91515625000011,
      "pitch": 74,
      "start": 97.32255208333345,
      "velocity": 63
    },
    {
      "duration": 0.7606249999998909,
      "end": 98.10453125000004,
      "pitch": 71,
      "start": 97.34390625000015,
      "velocity": 64
    },
    {
      "duration": 1.545572916666515,
      "end": 99.23187499999995,
      "pitch": 73,
      "start": 97.68630208333343,
      "velocity": 72
    },
    {
      "duration": 1.530677083333103,
      "end": 99.23187499999995,
      "pitch": 69,
      "start": 97.70119791666684,
      "velocity": 65
    },
    {
      "duration": 1.1399999999998727,
      "end": 99.23187499999995,
      "pitch": 68,
      "start": 98.09187500000007,
      "velocity": 66
    },
    {
      "duration": 1.127343749999909,
      "end": 99.23187499999995,
      "pitch": 71,
      "start": 98.10453125000004,
      "velocity": 74
    },
    {
      "duration": 0.5533333333332848,
      "end": 98.67718749999995,
      "pitch": 62,
      "start": 98.12385416666666,
      "velocity": 47
    },
    {
      "duration": 1.1060416666664423,
      "end": 99.23187499999995,
      "pitch": 59,
      "start": 98.1258333333335,
      "velocity": 33
    },
    {
      "duration": 1.0793749999998,
      "end": 99.23187499999995,
      "pitch": 52,
      "start": 98.15250000000015,
      "velocity": 37
    },
    {
      "duration": 0.5566666666663878,
      "end": 99.23187499999995,
      "pitch": 64,
      "start": 98.67520833333356,
      "velocity": 36
    },
    {
      "duration": 0.5546875,
      "end": 99.23187499999995,
      "pitch": 62,
      "start": 98.67718749999995,
      "velocity": 57
    },
    {
      "duration": 0.28067708333310293,
      "end": 99.19255208333334,
      "pitch": 78,
      "start": 98.91187500000024,
      "velocity": 70
    },
    {
      "duration": 0.3090624999999818,
      "end": 99.22421875000009,
      "pitch": 74,
      "start": 98.91515625000011,
      "velocity": 67
    },
    {
      "duration": 1.6992708333332303,
      "end": 100.89182291666657,
      "pitch": 78,
      "start": 99.19255208333334,
      "velocity": 76
    },
    {
      "duration": 0.1655208333331757,
      "end": 99.36000000000013,
      "pitch": 45,
      "start": 99.19447916666695,
      "velocity": 57
    },
    {
      "duration": 1.6089062500000182,
      "end": 100.83312500000011,
      "pitch": 74,
      "start": 99.22421875000009,
      "velocity": 65
    },
    {
      "duration": 0.3110416666668243,
      "end": 99.75223958333345,
      "pitch": 73,
      "start": 99.44119791666662,
      "velocity": 73
    },
    {
      "duration": 0.2860937499999636,
      "end": 99.74187500000016,
      "pitch": 76,
      "start": 99.4557812500002,
      "velocity": 75
    },
    {
      "duration": 1.149947916666406,
      "end": 100.89182291666657,
      "pitch": 76,
      "start": 99.74187500000016,
      "velocity": 39
    },
    {
      "duration": 1.1395833333331211,
      "end": 100.89182291666657,
      "pitch": 73,
      "start": 99.75223958333345,
      "velocity": 70
    },
    {
      "duration": 1.1375520833330484,
      "end": 100.89182291666657,
      "pitch": 61,
      "start": 99.75427083333352,
      "velocity": 62
    },
    {
      "duration": 1.1232812499997635,
      "end": 100.89182291666657,
      "pitch": 52,
      "start": 99.7685416666668,
      "velocity": 43
    },
    {
      "duration": 0.4853124999999636,
      "end": 100.25713541666664,
      "pitch": 57,
      "start": 99.77182291666668,
      "velocity": 45
    },
    {
      "duration": 0.6560416666666242,
      "end": 100.89182291666657,
      "pitch": 64,
      "start": 100.23578124999995,
      "velocity": 61
    },
    {
      "duration": 0.6346874999999272,
      "end": 100.89182291666657,
      "pitch": 57,
      "start": 100.25713541666664,
      "velocity": 54
    },
    {
      "duration": 0.42156249999970896,
      "end": 100.89182291666657,
      "pitch": 75,
      "start": 100.47026041666686,
      "velocity": 76
    },
    {
      "duration": 0.3979687500000182,
      "end": 100.89182291666657,
      "pitch": 72,
      "start": 100.49385416666655,
      "velocity": 39
    },
    {
      "duration": 0.5813020833334122,
      "end": 101.40250000000015,
      "pitch": 71,
      "start": 100.82119791666673,
      "velocity": 61
    },
    {
      "duration": 0.2509374999999636,
      "end": 101.07536458333334,
      "pitch": 33,
      "start": 100.82442708333338,
      "velocity": 64
    },
    {
      "duration": 1.2980208333333394,
      "end": 102.13114583333345,
      "pitch": 74,
      "start": 100.83312500000011,
      "velocity": 39
    },
    {
      "duration": 1.4986458333332848,
      "end": 102.61848958333348,
      "pitch": 73,
      "start": 101.1198437500002,
      "velocity": 74
    },
    {
      "duration": 1.4953645833334122,
      "end": 102.61848958333348,
      "pitch": 69,
      "start": 101.12312500000007,
      "velocity": 60
    },
    {
      "duration": 0.45468750000009095,
      "end": 101.8518229166666,
      "pitch": 62,
      "start": 101.39713541666652,
      "velocity": 70
    },
    {
      "duration": 1.2210416666666788,
      "end": 102.61848958333348,
      "pitch": 68,
      "start": 101.3974479166668,
      "velocity": 75
    },
    {
      "duration": 1.2159895833333394,
      "end": 102.61848958333348,
      "pitch": 71,
      "start": 101.40250000000015,
      "velocity": 69
    },
    {
      "duration": 1.2146875000003092,
      "end": 102.61848958333348,
      "pitch": 52,
      "start": 101.40380208333318,
      "velocity": 58
    },
    {
      "duration": 0.7806770833335577,
      "end": 102.61848958333348,
      "pitch": 64,
      "start": 101.83781249999993,
      "velocity": 61
    },
    {
      "duration": 0.7666666666668789,
      "end": 102.61848958333348,
      "pitch": 62,
      "start": 101.8518229166666,
      "velocity": 66
    },
    {
      "duration": 0.42328124999994543,
      "end": 102.5544270833334,
      "pitch": 74,
      "start": 102.13114583333345,
      "velocity": 69
    },
    {
      "duration": 0.4246354166666606,
      "end": 102.55776041666695,
      "pitch": 66,
      "start": 102.13312500000029,
      "velocity": 65
    },
    {
      "duration": 1.2467187499996726,
      "end": 103.75442708333321,
      "pitch": 40,
      "start": 102.50770833333354,
      "velocity": 49
    },
    {
      "duration": 1.199999999999818,
      "end": 103.75442708333321,
      "pitch": 74,
      "start": 102.5544270833334,
      "velocity": 72
    },
    {
      "duration": 1.1966666666662604,
      "end": 103.75442708333321,
      "pitch": 66,
      "start": 102.55776041666695,
      "velocity": 70
    },
    {
      "duration": 2.092656249999891,
      "end": 105.83437499999991,
      "pitch": 45,
      "start": 103.74171875000002,
      "velocity": 44
    },
    {
      "duration": 2.0766145833331393,
      "end": 105.83437499999991,
      "pitch": 66,
      "start": 103.75776041666677,
      "velocity": 65
    },
    {
      "duration": 2.0756770833331757,
      "end": 105.83437499999991,
      "pitch": 74,
      "start": 103.75869791666673,
      "velocity": 72
    },
    {
      "duration": 0.33390624999992724,
      "end": 104.50406250000015,
      "pitch": 64,
      "start": 104.17015625000022,
      "velocity": 58
    },
    {
      "duration": 0.31468749999976353,
      "end": 104.49177083333325,
      "pitch": 73,
      "start": 104.17708333333348,
      "velocity": 72
    },
    {
      "duration": 1.3426041666666606,
      "end": 105.83437499999991,
      "pitch": 73,
      "start": 104.49177083333325,
      "velocity": 81
    },
    {
      "duration": 0.5516666666667334,
      "end": 105.05572916666688,
      "pitch": 64,
      "start": 104.50406250000015,
      "velocity": 64
    },
    {
      "duration": 1.3211458333330484,
      "end": 105.83437499999991,
      "pitch": 52,
      "start": 104.51322916666686,
      "velocity": 35
    },
    {
      "duration": 0.5420833333332666,
      "end": 105.06776041666672,
      "pitch": 57,
      "start": 104.52567708333345,
      "velocity": 57
    },
    {
      "duration": 0.7786458333330302,
      "end": 105.83437499999991,
      "pitch": 64,
      "start": 105.05572916666688,
      "velocity": 55
    },
    {
      "duration": 0.7666145833331939,
      "end": 105.83437499999991,
      "pitch": 57,
      "start": 105.06776041666672,
      "velocity": 59
    },
    {
      "duration": 0.4682812500000182,
      "end": 105.83437499999991,
      "pitch": 63,
      "start": 105.36609374999989,
      "velocity": 75
    },
    {
      "duration": 0.46067708333339397,
      "end": 105.83437499999991,
      "pitch": 72,
      "start": 105.37369791666652,
      "velocity": 67
    },
    {
      "duration": 2.1133333333332303,
      "end": 107.8836458333335,
      "pitch": 33,
      "start": 105.77031250000027,
      "velocity": 57
    },
    {
      "duration": 2.102291666666588,
      "end": 107.90999999999985,
      "pitch": 71,
      "start": 105.80770833333327,
      "velocity": 74
    },
    {
      "duration": 1.3213020833331939,
      "end": 107.13036458333318,
      "pitch": 62,
      "start": 105.80906249999998,
      "velocity": 73
    },
    {
      "duration": 1.7257812499997272,
      "end": 107.90999999999985,
      "pitch": 61,
      "start": 106.18421875000013,
      "velocity": 43
    },
    {
      "duration": 1.7238020833333394,
      "end": 107.90999999999985,
      "pitch": 69,
      "start": 106.18619791666652,
      "velocity": 74
    },
    {
      "duration": 0.6501562500002365,
      "end": 107.14583333333348,
      "pitch": 52,
      "start": 106.49567708333325,
      "velocity": 49
    },
    {
      "duration": 1.4089583333329756,
      "end": 107.90999999999985,
      "pitch": 68,
      "start": 106.50104166666688,
      "velocity": 75
    },
    {
      "duration": 1.4056249999998727,
      "end": 107.90999999999985,
      "pitch": 45,
      "start": 106.50437499999998,
      "velocity": 46
    },
    {
      "duration": 1.404687499999909,
      "end": 107.90999999999985,
      "pitch": 59,
      "start": 106.50531249999995,
      "velocity": 56
    },
    {
      "duration": 0.7796354166666788,
      "end": 107.90999999999985,
      "pitch": 62,
      "start": 107.13036458333318,
      "velocity": 53
    },
    {
      "duration": 0.7743229166662786,
      "end": 107.90999999999985,
      "pitch": 56,
      "start": 107.13567708333358,
      "velocity": 40
    },
    {
      "duration": 0.7641666666663696,
      "end": 107.90999999999985,
      "pitch": 52,
      "start": 107.14583333333348,
      "velocity": 39
    },
    {
      "duration": 0.4490104166666242,
      "end": 107.90999999999985,
      "pitch": 74,
      "start": 107.46098958333323,
      "velocity": 60
    },
    {
      "duration": 0.42432291666636957,
      "end": 107.90999999999985,
      "pitch": 66,
      "start": 107.48567708333348,
      "velocity": 30
    },
    {
      "duration": 0.16421874999969077,
      "end": 108.0478645833332,
      "pitch": 33,
      "start": 107.8836458333335,
      "velocity": 52
    },
    {
      "duration": 1.6872916666666242,
      "end": 109.60828124999989,
      "pitch": 74,
      "start": 107.92098958333327,
      "velocity": 53
    },
    {
      "duration": 1.6766666666662786,
      "end": 109.60828124999989,
      "pitch": 66,
      "start": 107.93161458333361,
      "velocity": 34
    },
    {
      "duration": 0.2895312499999818,
      "end": 108.5396354166669,
      "pitch": 73,
      "start": 108.25010416666692,
      "velocity": 54
    },
    {
      "duration": 1.0686458333329938,
      "end": 109.60828124999989,
      "pitch": 73,
      "start": 108.5396354166669,
      "velocity": 61
    },
    {
      "duration": 0.49734375000025466,
      "end": 109.04630208333356,
      "pitch": 52,
      "start": 108.5489583333333,
      "velocity": 35
    },
    {
      "duration": 0.7373437500000364,
      "end": 109.29161458333328,
      "pitch": 64,
      "start": 108.55427083333325,
      "velocity": 43
    },
    {
      "duration": 0.9172916666666424,
      "end": 109.60828124999989,
      "pitch": 45,
      "start": 108.69098958333325,
      "velocity": 1
    },
    {
      "duration": 0.5619791666663332,
      "end": 109.60828124999989,
      "pitch": 52,
      "start": 109.04630208333356,
      "velocity": 39
    },
    {
      "duration": 0.5610416666663696,
      "end": 109.60828124999989,
      "pitch": 57,
      "start": 109.04723958333352,
      "velocity": 44
    }
  ],
  [
    {
      "duration": 0.3326562499996726,
      "end": 109.60828124999989,
      "pitch": 61,
      "start": 109.27562500000022,
      "velocity": 32
    },
    {
      "duration": 0.1460416666668607,
      "end": 109.43765625000015,
      "pitch": 64,
      "start": 109.29161458333328,
      "velocity": 53
    },
    {
      "duration": 0.17062499999974534,
      "end": 109.60828124999989,
      "pitch": 64,
      "start": 109.43765625000015,
      "velocity": 52
    },
    {
      "duration": 0.14979166666671517,
      "end": 109.6938020833336,
      "pitch": 68,
      "start": 109.54401041666688,
      "velocity": 76
    },
    {
      "duration": 0.5789062500002728,
      "end": 110.20114583333361,
      "pitch": 62,
      "start": 109.62223958333334,
      "velocity": 51
    },
    {
      "duration": 0.6177604166668971,
      "end": 110.24098958333343,
      "pitch": 66,
      "start": 109.62322916666653,
      "velocity": 75
    },
    {
      "duration": 0.09614583333359406,
      "end": 109.7451041666668,
      "pitch": 33,
      "start": 109.64895833333321,
      "velocity": 29
    },
    {
      "duration": 0.3150520833332848,
      "end": 110.24098958333343,
      "pitch": 61,
      "start": 109.92593750000015,
      "velocity": 68
    },
    {
      "duration": 0.31848958333375776,
      "end": 110.24640625000029,
      "pitch": 64,
      "start": 109.92791666666653,
      "velocity": 58
    },
    {
      "duration": 0.49927083333341216,
      "end": 110.68557291666684,
      "pitch": 52,
      "start": 110.18630208333343,
      "velocity": 47
    },
    {
      "duration": 1.0717187500004002,
      "end": 111.2719270833336,
      "pitch": 45,
      "start": 110.2002083333332,
      "velocity": 47
    },
    {
      "duration": 0.7530729166664969,
      "end": 110.95421875000011,
      "pitch": 62,
      "start": 110.20114583333361,
      "velocity": 76
    },
    {
      "duration": 1.0539583333334122,
      "end": 111.2719270833336,
      "pitch": 59,
      "start": 110.21796875000018,
      "velocity": 57
    },
    {
      "duration": 0.6023437500002728,
      "end": 111.2719270833336,
      "pitch": 56,
      "start": 110.66958333333332,
      "velocity": 57
    },
    {
      "duration": 0.5863541666667516,
      "end": 111.2719270833336,
      "pitch": 52,
      "start": 110.68557291666684,
      "velocity": 29
    },
    {
      "duration": 0.3037500000000364,
      "end": 111.22401041666672,
      "pitch": 71,
      "start": 110.92026041666668,
      "velocity": 68
    },
    {
      "duration": 0.3177083333334849,
      "end": 111.2719270833336,
      "pitch": 62,
      "start": 110.95421875000011,
      "velocity": 32
    },
    {
      "duration": 1.6215624999999818,
      "end": 112.8455729166667,
      "pitch": 71,
      "start": 111.22401041666672,
      "velocity": 49
    },
    {
      "duration": 0.18479166666656965,
      "end": 111.41635416666668,
      "pitch": 33,
      "start": 111.23156250000011,
      "velocity": 59
    },
    {
      "duration": 0.30588541666656965,
      "end": 111.78625000000011,
      "pitch": 61,
      "start": 111.48036458333354,
      "velocity": 59
    },
    {
      "duration": 0.29437499999994543,
      "end": 111.79796875000011,
      "pitch": 69,
      "start": 111.50359375000016,
      "velocity": 56
    },
    {
      "duration": 0.7357291666667152,
      "end": 112.52197916666682,
      "pitch": 61,
      "start": 111.78625000000011,
      "velocity": 52
    },
    {
      "duration": 1.0560416666667152,
      "end": 112.8455729166667,
      "pitch": 45,
      "start": 111.78953124999998,
      "velocity": 43
    },
    {
      "duration": 0.5046874999998181,
      "end": 112.29624999999987,
      "pitch": 52,
      "start": 111.79156250000005,
      "velocity": 38
    },
    {
      "duration": 1.0476041666665878,
      "end": 112.8455729166667,
      "pitch": 69,
      "start": 111.79796875000011,
      "velocity": 40
    },
    {
      "duration": 0.5566666666668425,
      "end": 112.8455729166667,
      "pitch": 57,
      "start": 112.28890624999985,
      "velocity": 60
    },
    {
      "duration": 0.5493229166668243,
      "end": 112.8455729166667,
      "pitch": 52,
      "start": 112.29624999999987,
      "velocity": 36
    },
    {
      "duration": 0.32359374999987267,
      "end": 112.8455729166667,
      "pitch": 61,
      "start": 112.52197916666682,
      "velocity": 50
    },
    {
      "duration": 0.30072916666676974,
      "end": 112.8455729166667,
      "pitch": 64,
      "start": 112.54484374999993,
      "velocity": 54
    },
    {
      "duration": 0.13682291666691526,
      "end": 112.85968750000029,
      "pitch": 68,
      "start": 112.72286458333338,
      "velocity": 70
    },
    {
      "duration": 0.7449479166666606,
      "end": 113.5528645833333,
      "pitch": 66,
      "start": 112.80791666666664,
      "velocity": 75
    },
    {
      "duration": 0.7360416666665515,
      "end": 113.5528645833333,
      "pitch": 62,
      "start": 112.81682291666675,
      "velocity": 56
    },
    {
      "duration": 0.7200520833330302,
      "end": 113.5528645833333,
      "pitch": 33,
      "start": 112.83281250000027,
      "velocity": 56
    },
    {
      "duration": 0.3413541666668607,
      "end": 113.49421875000007,
      "pitch": 61,
      "start": 113.15286458333321,
      "velocity": 65
    },
    {
      "duration": 0.32312499999989086,
      "end": 113.47796874999995,
      "pitch": 64,
      "start": 113.15484375000005,
      "velocity": 59
    },
    {
      "duration": 3.0391666666669153,
      "end": 116.51713541666686,
      "pitch": 64,
      "start": 113.47796874999995,
      "velocity": 38
    },
    {
      "duration": 2.9963020833333758,
      "end": 116.49052083333345,
      "pitch": 61,
      "start": 113.49421875000007,
      "velocity": 59
    },
    {
      "duration": 3.488020833332939,
      "end": 116.99156249999987,
      "pitch": 45,
      "start": 113.50354166666693,
      "velocity": 46
    },
    {
      "duration": 1.0613020833334303,
      "end": 114.5682291666667,
      "pitch": 52,
      "start": 113.50692708333327,
      "velocity": 36
    },
    {
      "duration": 0.3521354166664423,
      "end": 114.77968749999991,
      "pitch": 54,
      "start": 114.42755208333347,
      "velocity": 40
    },
    {
      "duration": 0.36479166666640594,
      "end": 115.09833333333336,
      "pitch": 52,
      "start": 114.73354166666695,
      "velocity": 59
    },
    {
      "duration": 0.3415104166670062,
      "end": 115.38109375000022,
      "pitch": 54,
      "start": 115.03958333333321,
      "velocity": 46
    },
    {
      "duration": 0.6899479166668243,
      "end": 116.02083333333348,
      "pitch": 52,
      "start": 115.33088541666666,
      "velocity": 56
    },
    {
      "duration": 0.6379166666665697,
      "end": 116.61963541666682,
      "pitch": 54,
      "start": 115.98171875000025,
      "velocity": 52
    },
    {
      "duration": 0.3701041666663514,
      "end": 116.99156249999987,
      "pitch": 52,
      "start": 116.62145833333352,
      "velocity": 47
    },
    {
      "duration": 0.3982291666666242,
      "end": 117.33635416666675,
      "pitch": 73,
      "start": 116.93812500000013,
      "velocity": 64
    },
    {
      "duration": 0.2682291666665151,
      "end": 117.22765625000011,
      "pitch": 61,
      "start": 116.9594270833336,
      "velocity": 39
    },
    {
      "duration": 0.6216145833332121,
      "end": 117.84375,
      "pitch": 71,
      "start": 117.22213541666679,
      "velocity": 64
    },
    {
      "duration": 0.6060416666664423,
      "end": 117.84281250000004,
      "pitch": 59,
      "start": 117.2367708333336,
      "velocity": 54
    },
    {
      "duration": 0.6201562500000364,
      "end": 118.40093750000005,
      "pitch": 69,
      "start": 117.78078125000002,
      "velocity": 74
    },
    {
      "duration": 0.6101562499998181,
      "end": 118.39223958333332,
      "pitch": 57,
      "start": 117.7820833333335,
      "velocity": 57
    },
    {
      "duration": 0.38937499999974534,
      "end": 118.72817708333332,
      "pitch": 54,
      "start": 118.33880208333358,
      "velocity": 65
    },
    {
      "duration": 0.3854166666665151,
      "end": 118.73687500000005,
      "pitch": 66,
      "start": 118.35145833333354,
      "velocity": 80
    },
    {
      "duration": 0.13765624999996362,
      "end": 118.84229166666682,
      "pitch": 56,
      "start": 118.70463541666686,
      "velocity": 65
    },
    {
      "duration": 0.09218749999990905,
      "end": 118.81161458333327,
      "pitch": 68,
      "start": 118.71942708333336,
      "velocity": 74
    },
    {
      "duration": 1.2555729166670062,
      "end": 120.0883333333336,
      "pitch": 64,
      "start": 118.83276041666659,
      "velocity": 79
    },
    {
      "duration": 1.4741666666668607,
      "end": 120.3227083333336,
      "pitch": 52,
      "start": 118.84854166666673,
      "velocity": 57
    },
    {
      "duration": 0.5364062499997999,
      "end": 119.95447916666672,
      "pitch": 40,
      "start": 119.41807291666692,
      "velocity": 64
    },
    {
      "duration": 0.5259895833332848,
      "end": 119.95447916666672,
      "pitch": 74,
      "start": 119.42848958333343,
      "velocity": 67
    },
    {
      "duration": 0.6091145833329392,
      "end": 120.04854166666655,
      "pitch": 68,
      "start": 119.43942708333361,
      "velocity": 53
    },
    {
      "duration": 0.28244791666656965,
      "end": 120.29250000000002,
      "pitch": 73,
      "start": 120.01005208333345,
      "velocity": 63
    },
    {
      "duration": 0.05359374999989086,
      "end": 120.07229166666684,
      "pitch": 45,
      "start": 120.01869791666695,
      "velocity": 56
    },
    {
      "duration": 0.2666666666668789,
      "end": 120.3227083333336,
      "pitch": 69,
      "start": 120.05604166666672,
      "velocity": 39
    },
    {
      "duration": 0.3323437499998363,
      "end": 120.62484374999985,
      "pitch": 73,
      "start": 120.29250000000002,
      "velocity": 59
    },
    {
      "duration": 0.2902083333333394,
      "end": 120.59489583333334,
      "pitch": 61,
      "start": 120.3046875,
      "velocity": 24
    },
    {
      "duration": 0.6317708333331211,
      "end": 121.1622395833333,
      "pitch": 71,
      "start": 120.53046875000018,
      "velocity": 74
    },
    {
      "duration": 0.578125,
      "end": 121.11416666666673,
      "pitch": 59,
      "start": 120.53604166666673,
      "velocity": 57
    },
    {
      "duration": 0.6221354166664241,
      "end": 121.68619791666652,
      "pitch": 57,
      "start": 121.06406250000009,
      "velocity": 59
    },
    {
      "duration": 0.5781770833332303,
      "end": 121.64755208333327,
      "pitch": 69,
      "start": 121.06937500000004,
      "velocity": 74
    },
    {
      "duration": 0.42354166666655146,
      "end": 121.99953125000002,
      "pitch": 54,
      "start": 121.57598958333347,
      "velocity": 61
    },
    {
      "duration": 0.43973958333344854,
      "end": 122.02421875000027,
      "pitch": 66,
      "start": 121.58447916666682,
      "velocity": 79
    },
    {
      "duration": 0.11567708333313931,
      "end": 122.08822916666668,
      "pitch": 68,
      "start": 121.97255208333354,
      "velocity": 74
    },
    {
      "duration": 0.1442187500001637,
      "end": 122.1255729166669,
      "pitch": 56,
      "start": 121.98135416666673,
      "velocity": 60
    },
    {
      "duration": 1.166406249999909,
      "end": 123.23291666666682,
      "pitch": 64,
      "start": 122.06651041666692,
      "velocity": 86
    },
    {
      "duration": 1.4473437500000728,
      "end": 123.54067708333332,
      "pitch": 52,
      "start": 122.09333333333325,
      "velocity": 54
    },
    {
      "duration": 0.5155208333335395,
      "end": 123.1120312500002,
      "pitch": 74,
      "start": 122.59651041666666,
      "velocity": 75
    },
    {
      "duration": 0.5100520833334485,
      "end": 123.1120312500002,
      "pitch": 40,
      "start": 122.60197916666675,
      "velocity": 57
    },
    {
      "duration": 0.5880729166665333,
      "end": 123.19546875000015,
      "pitch": 68,
      "start": 122.60739583333361,
      "velocity": 65
    },
    {
      "duration": 0.36468749999994543,
      "end": 123.54067708333332,
      "pitch": 73,
      "start": 123.17598958333338,
      "velocity": 54
    },
    {
      "duration": 0.06958333333341216,
      "end": 123.24885416666666,
      "pitch": 45,
      "start": 123.17927083333325,
      "velocity": 57
    },
    {
      "duration": 0.35406250000005457,
      "end": 123.54067708333332,
      "pitch": 69,
      "start": 123.18661458333327,
      "velocity": 56
    },
    {
      "duration": 0.17677083333319388,
      "end": 123.76338541666655,
      "pitch": 56,
      "start": 123.58661458333336,
      "velocity": 62
    },
    {
      "duration": 0.1886458333333394,
      "end": 123.79463541666655,
      "pitch": 68,
      "start": 123.60598958333321,
      "velocity": 79
    },
    {
      "duration": 0.6361979166667879,
      "end": 124.35822916666666,
      "pitch": 69,
      "start": 123.72203124999987,
      "velocity": 74
    },
    {
      "duration": 0.592187499999909,
      "end": 124.34619791666682,
      "pitch": 57,
      "start": 123.75401041666692,
      "velocity": 67
    },
    {
      "duration": 0.6380208333330302,
      "end": 124.89666666666653,
      "pitch": 73,
      "start": 124.2586458333335,
      "velocity": 65
    },
    {
      "duration": 0.5281249999998181,
      "end": 124.82078124999998,
      "pitch": 61,
      "start": 124.29265625000016,
      "velocity": 49
    },
    {
      "duration": 0.22812500000009095,
      "end": 125.04473958333347,
      "pitch": 59,
      "start": 124.81661458333338,
      "velocity": 57
    },
    {
      "duration": 0.33817708333344854,
      "end": 125.16015625,
      "pitch": 71,
      "start": 124.82197916666655,
      "velocity": 57
    },
    {
      "duration": 0.36276041666678793,
      "end": 125.4286979166668,
      "pitch": 57,
      "start": 125.06593750000002,
      "velocity": 59
    },
    {
      "duration": 0.28156250000029104,
      "end": 125.38614583333356,
      "pitch": 69,
      "start": 125.10458333333327,
      "velocity": 59
    },
    {
      "duration": 0.2842187500000364,
      "end": 125.6328125,
      "pitch": 54,
      "start": 125.34859374999996,
      "velocity": 55
    },
    {
      "duration": 0.27531249999992724,
      "end": 125.63468749999993,
      "pitch": 66,
      "start": 125.359375,
      "velocity": 74
    },
    {
      "duration": 0.42953125000030923,
      "end": 126.06328125000027,
      "pitch": 56,
      "start": 125.63374999999996,
      "velocity": 53
    },
    {
      "duration": 0.4264583333333576,
      "end": 126.06328125000027,
      "pitch": 68,
      "start": 125.63682291666692,
      "velocity": 75
    },
    {
      "duration": 0.7400520833334667,
      "end": 126.74598958333354,
      "pitch": 63,
      "start": 126.00593750000007,
      "velocity": 68
    },
    {
      "duration": 0.7327083333334485,
      "end": 126.74598958333354,
      "pitch": 57,
      "start": 126.01328125000009,
      "velocity": 57
    },
    {
      "duration": 0.7254687500003456,
      "end": 126.74598958333354,
      "pitch": 47,
      "start": 126.0205208333332,
      "velocity": 40
    },
    {
      "duration": 4.825260416666879,
      "end": 131.52984375000005,
      "pitch": 40,
      "start": 126.70458333333318,
      "velocity": 47
    },
    {
      "duration": 4.815937500000018,
      "end": 131.52984375000005,
      "pitch": 56,
      "start": 126.71390625000004,
      "velocity": 52
    }
  ],
  [
    {
      "duration": 1.7086458333333212,
      "end": 128.43453124999996,
      "pitch": 64,
      "start": 126.72588541666664,
      "velocity": 69
    },
    {
      "duration": 0.572656249999909,
      "end": 127.8798958333332,
      "pitch": 52,
      "start": 127.30723958333328,
      "velocity": 45
    },
    {
      "duration": 2.3306249999996,
      "end": 129.65380208333318,
      "pitch": 47,
      "start": 127.32317708333358,
      "velocity": 38
    },
    {
      "duration": 1.16796875,
      "end": 129.0478645833332,
      "pitch": 52,
      "start": 127.8798958333332,
      "velocity": 50
    },
    {
      "duration": 0.5376562499995998,
      "end": 128.4184895833332,
      "pitch": 59,
      "start": 127.88083333333361,
      "velocity": 65
    },
    {
      "duration": 0.5953645833333212,
      "end": 129.01385416666653,
      "pitch": 59,
      "start": 128.4184895833332,
      "velocity": 34
    },
    {
      "duration": 3.095312500000091,
      "end": 131.52984375000005,
      "pitch": 64,
      "start": 128.43453124999996,
      "velocity": 57
    },
    {
      "duration": 2.5159895833335213,
      "end": 131.52984375000005,
      "pitch": 59,
      "start": 129.01385416666653,
      "velocity": 58
    },
    {
      "duration": 0.5939583333333758,
      "end": 129.64182291666657,
      "pitch": 52,
      "start": 129.0478645833332,
      "velocity": 37
    },
    {
      "duration": 1.888020833333485,
      "end": 131.52984375000005,
      "pitch": 52,
      "start": 129.64182291666657,
      "velocity": 36
    },
    {
      "duration": 1.8760416666668789,
      "end": 131.52984375000005,
      "pitch": 47,
      "start": 129.65380208333318,
      "velocity": 51
    },
    {
      "duration": 0.2653125000001637,
      "end": 130.35651041666688,
      "pitch": 71,
      "start": 130.09119791666672,
      "velocity": 64
    },
    {
      "duration": 1.4346875000001091,
      "end": 131.52984375000005,
      "pitch": 68,
      "start": 130.09515624999995,
      "velocity": 60
    },
    {
      "duration": 1.0805729166663696,
      "end": 131.43708333333325,
      "pitch": 71,
      "start": 130.35651041666688,
      "velocity": 57
    },
    {
      "duration": 0.8373437499999454,
      "end": 131.52984375000005,
      "pitch": 41,
      "start": 130.6925000000001,
      "velocity": 46
    },
    {
      "duration": 0.7146354166666242,
      "end": 131.52984375000005,
      "pitch": 83,
      "start": 130.81520833333343,
      "velocity": 81
    },
    {
      "duration": 0.7102083333334122,
      "end": 131.52984375000005,
      "pitch": 80,
      "start": 130.81963541666664,
      "velocity": 75
    },
    {
      "duration": 1.7191666666667516,
      "end": 133.15625,
      "pitch": 71,
      "start": 131.43708333333325,
      "velocity": 92
    },
    {
      "duration": 4.735937499999636,
      "end": 136.2936979166666,
      "pitch": 40,
      "start": 131.55776041666695,
      "velocity": 58
    },
    {
      "duration": 4.729218749999745,
      "end": 136.32973958333332,
      "pitch": 80,
      "start": 131.60052083333358,
      "velocity": 83
    },
    {
      "duration": 4.711979166666424,
      "end": 136.32973958333332,
      "pitch": 83,
      "start": 131.6177604166669,
      "velocity": 92
    },
    {
      "duration": 2.940572916666497,
      "end": 135.06369791666657,
      "pitch": 52,
      "start": 132.12312500000007,
      "velocity": 64
    },
    {
      "duration": 0.5193229166666242,
      "end": 132.64442708333354,
      "pitch": 59,
      "start": 132.12510416666692,
      "velocity": 65
    },
    {
      "duration": 0.5300000000002001,
      "end": 133.16713541666695,
      "pitch": 64,
      "start": 132.63713541666675,
      "velocity": 70
    },
    {
      "duration": 1.7333333333331211,
      "end": 134.37776041666666,
      "pitch": 59,
      "start": 132.64442708333354,
      "velocity": 58
    },
    {
      "duration": 3.173489583333321,
      "end": 136.32973958333332,
      "pitch": 71,
      "start": 133.15625,
      "velocity": 76
    },
    {
      "duration": 0.5026041666665151,
      "end": 133.66973958333347,
      "pitch": 64,
      "start": 133.16713541666695,
      "velocity": 67
    },
    {
      "duration": 0.7304166666667697,
      "end": 134.40015625000024,
      "pitch": 64,
      "start": 133.66973958333347,
      "velocity": 64
    },
    {
      "duration": 2.6386458333331575,
      "end": 136.32973958333332,
      "pitch": 57,
      "start": 133.69109375000016,
      "velocity": 74
    },
    {
      "duration": 0.6645833333332121,
      "end": 135.04234374999987,
      "pitch": 59,
      "start": 134.37776041666666,
      "velocity": 53
    },
    {
      "duration": 1.9295833333330847,
      "end": 136.32973958333332,
      "pitch": 64,
      "start": 134.40015625000024,
      "velocity": 52
    },
    {
      "duration": 1.9286458333331211,
      "end": 136.32973958333332,
      "pitch": 65,
      "start": 134.4010937500002,
      "velocity": 45
    },
    {
      "duration": 1.2873958333334485,
      "end": 136.32973958333332,
      "pitch": 59,
      "start": 135.04234374999987,
      "velocity": 59
    },
    {
      "duration": 1.2660416666667516,
      "end": 136.32973958333332,
      "pitch": 52,
      "start": 135.06369791666657,
      "velocity": 48
    },
    {
      "duration": 0.8893229166665151,
      "end": 136.32973958333332,
      "pitch": 82,
      "start": 135.4404166666668,
      "velocity": 74
    },
    {
      "duration": 0.8680208333330484,
      "end": 136.32973958333332,
      "pitch": 79,
      "start": 135.46171875000027,
      "velocity": 61
    },
    {
      "duration": 2.1172916666669153,
      "end": 138.4109895833335,
      "pitch": 40,
      "start": 136.2936979166666,
      "velocity": 39
    },
    {
      "duration": 0.810677083333303,
      "end": 137.10635416666673,
      "pitch": 78,
      "start": 136.29567708333343,
      "velocity": 72
    },
    {
      "duration": 1.731979166666406,
      "end": 138.03104166666662,
      "pitch": 81,
      "start": 136.29906250000022,
      "velocity": 64
    },
    {
      "duration": 1.7722916666666606,
      "end": 138.43046875000027,
      "pitch": 80,
      "start": 136.6581770833336,
      "velocity": 78
    },
    {
      "duration": 1.7703125000002728,
      "end": 138.43046875000027,
      "pitch": 76,
      "start": 136.66015625,
      "velocity": 57
    },
    {
      "duration": 1.3403124999999818,
      "end": 138.43046875000027,
      "pitch": 52,
      "start": 137.0901562500003,
      "velocity": 59
    },
    {
      "duration": 0.6577604166668607,
      "end": 137.75677083333358,
      "pitch": 63,
      "start": 137.09901041666672,
      "velocity": 59
    },
    {
      "duration": 1.3241145833335395,
      "end": 138.43046875000027,
      "pitch": 78,
      "start": 137.10635416666673,
      "velocity": 79
    },
    {
      "duration": 1.3114583333335759,
      "end": 138.43046875000027,
      "pitch": 57,
      "start": 137.1190104166667,
      "velocity": 40
    },
    {
      "duration": 1.3105208333336122,
      "end": 138.43046875000027,
      "pitch": 75,
      "start": 137.11994791666666,
      "velocity": 63
    },
    {
      "duration": 0.673697916666697,
      "end": 138.43046875000027,
      "pitch": 63,
      "start": 137.75677083333358,
      "velocity": 62
    },
    {
      "duration": 0.6554166666669516,
      "end": 138.43046875000027,
      "pitch": 59,
      "start": 137.77505208333332,
      "velocity": 39
    },
    {
      "duration": 0.6545312500002183,
      "end": 138.43046875000027,
      "pitch": 69,
      "start": 137.77593750000005,
      "velocity": 51
    },
    {
      "duration": 0.3786979166666242,
      "end": 138.40437500000007,
      "pitch": 85,
      "start": 138.02567708333345,
      "velocity": 61
    },
    {
      "duration": 0.38531250000005457,
      "end": 138.41635416666668,
      "pitch": 81,
      "start": 138.03104166666662,
      "velocity": 61
    },
    {
      "duration": 0.5023958333331393,
      "end": 138.9067708333332,
      "pitch": 85,
      "start": 138.40437500000007,
      "velocity": 74
    },
    {
      "duration": 0.16203124999992724,
      "end": 138.57302083333343,
      "pitch": 40,
      "start": 138.4109895833335,
      "velocity": 66
    },
    {
      "duration": 2.6185937499999454,
      "end": 141.03494791666662,
      "pitch": 81,
      "start": 138.41635416666668,
      "velocity": 66
    },
    {
      "duration": 0.2719791666668243,
      "end": 138.99630208333338,
      "pitch": 80,
      "start": 138.72432291666655,
      "velocity": 72
    },
    {
      "duration": 0.2643750000002001,
      "end": 139.00270833333343,
      "pitch": 83,
      "start": 138.73833333333323,
      "velocity": 73
    },
    {
      "duration": 2.149531250000109,
      "end": 141.05630208333332,
      "pitch": 85,
      "start": 138.9067708333332,
      "velocity": 72
    },
    {
      "duration": 2.072656249999909,
      "end": 141.05630208333332,
      "pitch": 56,
      "start": 138.9836458333334,
      "velocity": 56
    },
    {
      "duration": 2.0599999999999454,
      "end": 141.05630208333332,
      "pitch": 80,
      "start": 138.99630208333338,
      "velocity": 74
    },
    {
      "duration": 2.053593749999891,
      "end": 141.05630208333332,
      "pitch": 83,
      "start": 139.00270833333343,
      "velocity": 77
    },
    {
      "duration": 2.0459895833332666,
      "end": 141.05630208333332,
      "pitch": 64,
      "start": 139.01031250000005,
      "velocity": 34
    },
    {
      "duration": 2.0386458333332484,
      "end": 141.05630208333332,
      "pitch": 52,
      "start": 139.01765625000007,
      "velocity": 36
    },
    {
      "duration": 1.366666666666788,
      "end": 141.05630208333332,
      "pitch": 58,
      "start": 139.68963541666653,
      "velocity": 38
    },
    {
      "duration": 0.6113020833336122,
      "end": 140.31494791666682,
      "pitch": 68,
      "start": 139.7036458333332,
      "velocity": 45
    },
    {
      "duration": 0.7446875000000546,
      "end": 141.05630208333332,
      "pitch": 59,
      "start": 140.31161458333327,
      "velocity": 41
    },
    {
      "duration": 0.7413541666664969,
      "end": 141.05630208333332,
      "pitch": 68,
      "start": 140.31494791666682,
      "velocity": 63
    },
    {
      "duration": 0.4386458333333394,
      "end": 141.05630208333332,
      "pitch": 82,
      "start": 140.61765624999998,
      "velocity": 74
    },
    {
      "duration": 0.4319791666666788,
      "end": 141.05630208333332,
      "pitch": 79,
      "start": 140.62432291666664,
      "velocity": 64
    },
    {
      "duration": 1.836458333333212,
      "end": 142.8466666666668,
      "pitch": 40,
      "start": 141.0102083333336,
      "velocity": 39
    },
    {
      "duration": 0.6386458333331575,
      "end": 141.6629687499999,
      "pitch": 78,
      "start": 141.02432291666673,
      "velocity": 72
    },
    {
      "duration": 1.488020833333394,
      "end": 142.52296875000002,
      "pitch": 81,
      "start": 141.03494791666662,
      "velocity": 65
    },
    {
      "duration": 1.5634895833336486,
      "end": 142.8852083333336,
      "pitch": 80,
      "start": 141.32171874999995,
      "velocity": 81
    },
    {
      "duration": 1.552916666666988,
      "end": 142.8852083333336,
      "pitch": 76,
      "start": 141.3322916666666,
      "velocity": 65
    },
    {
      "duration": 1.2276041666668789,
      "end": 142.8852083333336,
      "pitch": 48,
      "start": 141.65760416666672,
      "velocity": 54
    },
    {
      "duration": 1.2222395833337032,
      "end": 142.8852083333336,
      "pitch": 78,
      "start": 141.6629687499999,
      "velocity": 74
    },
    {
      "duration": 1.216927083333303,
      "end": 142.8852083333336,
      "pitch": 75,
      "start": 141.6682812500003,
      "velocity": 74
    },
    {
      "duration": 0.5399999999999636,
      "end": 142.22427083333332,
      "pitch": 57,
      "start": 141.68427083333336,
      "velocity": 37
    },
    {
      "duration": 0.6749479166669516,
      "end": 142.8852083333336,
      "pitch": 63,
      "start": 142.21026041666664,
      "velocity": 76
    },
    {
      "duration": 0.6609375000002728,
      "end": 142.8852083333336,
      "pitch": 57,
      "start": 142.22427083333332,
      "velocity": 49
    },
    {
      "duration": 0.3432812500000182,
      "end": 142.86625000000004,
      "pitch": 81,
      "start": 142.52296875000002,
      "velocity": 79
    },
    {
      "duration": 0.359375,
      "end": 142.88432291666686,
      "pitch": 73,
      "start": 142.52494791666686,
      "velocity": 75
    },
    {
      "duration": 2.2775520833333758,
      "end": 145.12421875000018,
      "pitch": 40,
      "start": 142.8466666666668,
      "velocity": 62
    },
    {
      "duration": 2.2579687500001455,
      "end": 145.12421875000018,
      "pitch": 81,
      "start": 142.86625000000004,
      "velocity": 72
    },
    {
      "duration": 2.239895833333321,
      "end": 145.12421875000018,
      "pitch": 73,
      "start": 142.88432291666686,
      "velocity": 53
    },
    {
      "duration": 0.42526041666678793,
      "end": 143.63088541666684,
      "pitch": 71,
      "start": 143.20562500000005,
      "velocity": 60
    },
    {
      "duration": 0.418020833333685,
      "end": 143.6255729166669,
      "pitch": 80,
      "start": 143.2075520833332,
      "velocity": 79
    },
    {
      "duration": 1.5198958333335213,
      "end": 145.12421875000018,
      "pitch": 47,
      "start": 143.60432291666666,
      "velocity": 34
    },
    {
      "duration": 0.6797916666664605,
      "end": 144.2922395833334,
      "pitch": 56,
      "start": 143.61244791666695,
      "velocity": 74
    },
    {
      "duration": 1.4986458333332848,
      "end": 145.12421875000018,
      "pitch": 80,
      "start": 143.6255729166669,
      "velocity": 75
    },
    {
      "duration": 1.4933333333333394,
      "end": 145.12421875000018,
      "pitch": 71,
      "start": 143.63088541666684,
      "velocity": 57
    },
    {
      "duration": 0.8396875000003092,
      "end": 145.12421875000018,
      "pitch": 64,
      "start": 144.28453124999987,
      "velocity": 67
    },
    {
      "duration": 0.8319791666667697,
      "end": 145.12421875000018,
      "pitch": 56,
      "start": 144.2922395833334,
      "velocity": 47
    },
    {
      "duration": 0.5386979166669335,
      "end": 145.12421875000018,
      "pitch": 79,
      "start": 144.58552083333325,
      "velocity": 66
    },
    {
      "duration": 0.5280208333333576,
      "end": 145.12421875000018,
      "pitch": 70,
      "start": 144.59619791666682,
      "velocity": 43
    },
    {
      "duration": 1.9746875000000728,
      "end": 147.04020833333334,
      "pitch": 28,
      "start": 145.06552083333327,
      "velocity": 57
    },
    {
      "duration": 0.1829166666666424,
      "end": 145.25911458333348,
      "pitch": 78,
      "start": 145.07619791666684,
      "velocity": 78
    },
    {
      "duration": 1.9359895833331393,
      "end": 147.04020833333334,
      "pitch": 69,
      "start": 145.1042187500002,
      "velocity": 47
    },
    {
      "duration": 0.14000000000032742,
      "end": 145.61088541666686,
      "pitch": 68,
      "start": 145.47088541666653,
      "velocity": 64
    },
    {
      "duration": 1.564010416666406,
      "end": 147.04020833333334,
      "pitch": 76,
      "start": 145.47619791666693,
      "velocity": 74
    },
    {
      "duration": 1.4293229166664787,
      "end": 147.04020833333334,
      "pitch": 68,
      "start": 145.61088541666686,
      "velocity": 9
    }
  ],
  [
    {
      "duration": 1.2173958333332848,
      "end": 147.04020833333334,
      "pitch": 75,
      "start": 145.82281250000005,
      "velocity": 80
    },
    {
      "duration": 1.2086458333333212,
      "end": 147.04020833333334,
      "pitch": 47,
      "start": 145.83156250000002,
      "velocity": 66
    },
    {
      "duration": 0.6111458333334667,
      "end": 146.44463541666664,
      "pitch": 57,
      "start": 145.83348958333318,
      "velocity": 46
    },
    {
      "duration": 1.2057812499997453,
      "end": 147.04020833333334,
      "pitch": 66,
      "start": 145.8344270833336,
      "velocity": 57
    },
    {
      "duration": 0.6540624999997817,
      "end": 147.04020833333334,
      "pitch": 63,
      "start": 146.38614583333356,
      "velocity": 68
    },
    {
      "duration": 0.595572916666697,
      "end": 147.04020833333334,
      "pitch": 57,
      "start": 146.44463541666664,
      "velocity": 39
    },
    {
      "duration": 0.3553124999998545,
      "end": 147.0241666666666,
      "pitch": 73,
      "start": 146.66885416666673,
      "velocity": 54
    },
    {
      "duration": 0.35536458333308474,
      "end": 147.02510416666655,
      "pitch": 81,
      "start": 146.66973958333347,
      "velocity": 70
    },
    {
      "duration": 0.22421875000009095,
      "end": 147.22703124999998,
      "pitch": 40,
      "start": 147.0028124999999,
      "velocity": 65
    },
    {
      "duration": 1.7566145833334303,
      "end": 148.78078125000002,
      "pitch": 73,
      "start": 147.0241666666666,
      "velocity": 62
    },
    {
      "duration": 1.7740625000001273,
      "end": 148.79916666666668,
      "pitch": 81,
      "start": 147.02510416666655,
      "velocity": 72
    },
    {
      "duration": 0.2996354166666606,
      "end": 147.5944791666666,
      "pitch": 71,
      "start": 147.29484374999993,
      "velocity": 40
    },
    {
      "duration": 0.2923958333335577,
      "end": 147.58817708333345,
      "pitch": 80,
      "start": 147.2957812499999,
      "velocity": 74
    },
    {
      "duration": 1.2183854166664787,
      "end": 148.79916666666668,
      "pitch": 47,
      "start": 147.5807812500002,
      "velocity": 64
    },
    {
      "duration": 0.5973437500001637,
      "end": 148.18145833333347,
      "pitch": 56,
      "start": 147.5841145833333,
      "velocity": 45
    },
    {
      "duration": 1.2109895833332303,
      "end": 148.79916666666668,
      "pitch": 80,
      "start": 147.58817708333345,
      "velocity": 90
    },
    {
      "duration": 0.8486458333336486,
      "end": 148.44312500000024,
      "pitch": 71,
      "start": 147.5944791666666,
      "velocity": 75
    },
    {
      "duration": 0.6190624999999272,
      "end": 148.79916666666668,
      "pitch": 64,
      "start": 148.18010416666675,
      "velocity": 60
    },
    {
      "duration": 0.6177083333332121,
      "end": 148.79916666666668,
      "pitch": 56,
      "start": 148.18145833333347,
      "velocity": 51
    },
    {
      "duration": 0.3650520833334667,
      "end": 148.79916666666668,
      "pitch": 68,
      "start": 148.4341145833332,
      "velocity": 59
    },
    {
      "duration": 0.1703645833331393,
      "end": 148.61348958333338,
      "pitch": 71,
      "start": 148.44312500000024,
      "velocity": 67
    },
    {
      "duration": 0.18567708333330302,
      "end": 148.79916666666668,
      "pitch": 71,
      "start": 148.61348958333338,
      "velocity": 66
    },
    {
      "duration": 0.13218749999987267,
      "end": 148.83635416666675,
      "pitch": 75,
      "start": 148.70416666666688,
      "velocity": 79
    },
    {
      "duration": 0.19979166666689707,
      "end": 148.98057291666692,
      "pitch": 73,
      "start": 148.78078125000002,
      "velocity": 75
    },
    {
      "duration": 0.7913541666666788,
      "end": 149.57546875000025,
      "pitch": 40,
      "start": 148.78411458333358,
      "velocity": 54
    },
    {
      "duration": 0.659895833333394,
      "end": 149.4581250000001,
      "pitch": 69,
      "start": 148.79822916666672,
      "velocity": 54
    },
    {
      "duration": 0.48890625000012733,
      "end": 149.57546875000025,
      "pitch": 68,
      "start": 149.08656250000013,
      "velocity": 74
    },
    {
      "duration": 0.4853645833336486,
      "end": 149.57546875000025,
      "pitch": 71,
      "start": 149.0901041666666,
      "velocity": 67
    },
    {
      "duration": 1.5220312500000546,
      "end": 150.9641145833334,
      "pitch": 66,
      "start": 149.44208333333336,
      "velocity": 72
    },
    {
      "duration": 0.6753645833332484,
      "end": 150.13010416666657,
      "pitch": 47,
      "start": 149.45473958333332,
      "velocity": 50
    },
    {
      "duration": 1.0220312500000546,
      "end": 150.48015625000016,
      "pitch": 69,
      "start": 149.4581250000001,
      "velocity": 62
    },
    {
      "duration": 0.6680208333332303,
      "end": 150.12812500000018,
      "pitch": 59,
      "start": 149.46010416666695,
      "velocity": 40
    },
    {
      "duration": 0.8359895833332303,
      "end": 150.9641145833334,
      "pitch": 59,
      "start": 150.12812500000018,
      "velocity": 52
    },
    {
      "duration": 1.6498958333336304,
      "end": 151.7800000000002,
      "pitch": 47,
      "start": 150.13010416666657,
      "velocity": 38
    },
    {
      "duration": 0.46927083333321207,
      "end": 150.92463541666666,
      "pitch": 78,
      "start": 150.45536458333345,
      "velocity": 73
    },
    {
      "duration": 0.48395833333324845,
      "end": 150.9641145833334,
      "pitch": 69,
      "start": 150.48015625000016,
      "velocity": 57
    },
    {
      "duration": 2.2326562499997635,
      "end": 153.1486979166666,
      "pitch": 40,
      "start": 150.91604166666684,
      "velocity": 44
    },
    {
      "duration": 2.272083333333285,
      "end": 153.19671874999995,
      "pitch": 78,
      "start": 150.92463541666666,
      "velocity": 67
    },
    {
      "duration": 2.2313020833330484,
      "end": 153.19671874999995,
      "pitch": 69,
      "start": 150.9654166666669,
      "velocity": 23
    },
    {
      "duration": 0.45546874999990905,
      "end": 151.79598958333327,
      "pitch": 76,
      "start": 151.34052083333336,
      "velocity": 58
    },
    {
      "duration": 0.4013541666668061,
      "end": 151.76005208333345,
      "pitch": 68,
      "start": 151.35869791666664,
      "velocity": 37
    },
    {
      "duration": 0.9372916666666242,
      "end": 152.69734375000007,
      "pitch": 68,
      "start": 151.76005208333345,
      "velocity": 44
    },
    {
      "duration": 1.4167187499997453,
      "end": 153.19671874999995,
      "pitch": 47,
      "start": 151.7800000000002,
      "velocity": 33
    },
    {
      "duration": 0.6332812499999818,
      "end": 152.42531250000002,
      "pitch": 52,
      "start": 151.79203125000004,
      "velocity": 38
    },
    {
      "duration": 1.4007291666666788,
      "end": 153.19671874999995,
      "pitch": 76,
      "start": 151.79598958333327,
      "velocity": 41
    },
    {
      "duration": 0.7913541666666788,
      "end": 153.19671874999995,
      "pitch": 59,
      "start": 152.40536458333327,
      "velocity": 45
    },
    {
      "duration": 0.7714062499999272,
      "end": 153.19671874999995,
      "pitch": 52,
      "start": 152.42531250000002,
      "velocity": 38
    },
    {
      "duration": 0.49937499999987267,
      "end": 153.19671874999995,
      "pitch": 68,
      "start": 152.69734375000007,
      "velocity": 52
    },
    {
      "duration": 0.20994791666680612,
      "end": 152.95333333333338,
      "pitch": 71,
      "start": 152.74338541666657,
      "velocity": 35
    },
    {
      "duration": 0.24338541666656965,
      "end": 153.19671874999995,
      "pitch": 71,
      "start": 152.95333333333338,
      "velocity": 33
    },
    {
      "duration": 0.13744791666658784,
      "end": 153.22015624999995,
      "pitch": 75,
      "start": 153.08270833333336,
      "velocity": 64
    },
    {
      "duration": 0.19427083333357587,
      "end": 153.34296875000018,
      "pitch": 40,
      "start": 153.1486979166666,
      "velocity": 48
    },
    {
      "duration": 0.17322916666626043,
      "end": 153.33760416666655,
      "pitch": 73,
      "start": 153.1643750000003,
      "velocity": 61
    },
    {
      "duration": 0.8640104166665878,
      "end": 154.06270833333338,
      "pitch": 69,
      "start": 153.1986979166668,
      "velocity": 44
    },
    {
      "duration": 0.4993229166666424,
      "end": 153.97000000000025,
      "pitch": 68,
      "start": 153.4706770833336,
      "velocity": 54
    },
    {
      "duration": 0.48583333333363043,
      "end": 153.95739583333352,
      "pitch": 71,
      "start": 153.4715624999999,
      "velocity": 60
    },
    {
      "duration": 1.515937500000291,
      "end": 155.43463541666688,
      "pitch": 59,
      "start": 153.9186979166666,
      "velocity": 73
    },
    {
      "duration": 3.6923437499999636,
      "end": 157.63031249999995,
      "pitch": 52,
      "start": 153.93796874999998,
      "velocity": 44
    },
    {
      "duration": 2.1943229166663514,
      "end": 156.15171874999987,
      "pitch": 71,
      "start": 153.95739583333352,
      "velocity": 46
    },
    {
      "duration": 2.1782812499996,
      "end": 156.14828124999985,
      "pitch": 68,
      "start": 153.97000000000025,
      "velocity": 42
    },
    {
      "duration": 0.4054687500001819,
      "end": 155.52546875000007,
      "pitch": 61,
      "start": 155.1199999999999,
      "velocity": 52
    },
    {
      "duration": 0.3556250000001455,
      "end": 155.7922395833334,
      "pitch": 59,
      "start": 155.43661458333327,
      "velocity": 69
    },
    {
      "duration": 0.38218749999987267,
      "end": 156.09255208333343,
      "pitch": 61,
      "start": 155.71036458333356,
      "velocity": 81
    },
    {
      "duration": 0.6522395833330847,
      "end": 156.6721354166666,
      "pitch": 59,
      "start": 156.01989583333352,
      "velocity": 70
    },
    {
      "duration": 0.6655208333331757,
      "end": 157.2254687499999,
      "pitch": 61,
      "start": 156.55994791666672,
      "velocity": 73
    },
    {
      "duration": 0.419739583333012,
      "end": 157.63031249999995,
      "pitch": 59,
      "start": 157.21057291666693,
      "velocity": 59
    },
    {
      "duration": 0.36968750000005457,
      "end": 157.90411458333347,
      "pitch": 78,
      "start": 157.5344270833334,
      "velocity": 67
    },
    {
      "duration": 0.3328645833335031,
      "end": 157.89208333333363,
      "pitch": 66,
      "start": 157.55921875000013,
      "velocity": 24
    },
    {
      "duration": 0.49421875000007276,
      "end": 158.33614583333338,
      "pitch": 76,
      "start": 157.8419270833333,
      "velocity": 81
    },
    {
      "duration": 0.49390625000023647,
      "end": 158.3484895833335,
      "pitch": 64,
      "start": 157.85458333333327,
      "velocity": 64
    },
    {
      "duration": 0.3808333333331575,
      "end": 158.78078125000002,
      "pitch": 68,
      "start": 158.39994791666686,
      "velocity": 29
    },
    {
      "duration": 0.2207291666668425,
      "end": 158.64932291666673,
      "pitch": 80,
      "start": 158.4285937499999,
      "velocity": 41
    },
    {
      "duration": 0.568802083333594,
      "end": 159.23406250000016,
      "pitch": 78,
      "start": 158.66526041666657,
      "velocity": 73
    },
    {
      "duration": 0.5759374999997817,
      "end": 159.2531770833334,
      "pitch": 66,
      "start": 158.67723958333363,
      "velocity": 64
    },
    {
      "duration": 0.6135937499998363,
      "end": 159.81208333333325,
      "pitch": 64,
      "start": 159.1984895833334,
      "velocity": 53
    },
    {
      "duration": 0.5370312499999272,
      "end": 159.74406249999993,
      "pitch": 76,
      "start": 159.20703125,
      "velocity": 62
    },
    {
      "duration": 0.4301562499999818,
      "end": 160.15140625000004,
      "pitch": 73,
      "start": 159.72125000000005,
      "velocity": 68
    },
    {
      "duration": 0.3608333333331757,
      "end": 160.10140624999985,
      "pitch": 61,
      "start": 159.74057291666668,
      "velocity": 43
    },
    {
      "duration": 0.17291666666642413,
      "end": 160.2794270833333,
      "pitch": 63,
      "start": 160.10651041666688,
      "velocity": 53
    },
    {
      "duration": 0.12510416666646051,
      "end": 160.24406249999993,
      "pitch": 75,
      "start": 160.11895833333347,
      "velocity": 70
    },
    {
      "duration": 1.4866145833329938,
      "end": 161.71052083333325,
      "pitch": 71,
      "start": 160.22390625000025,
      "velocity": 80
    },
    {
      "duration": 1.4653124999999818,
      "end": 161.71052083333325,
      "pitch": 59,
      "start": 160.24520833333327,
      "velocity": 44
    },
    {
      "duration": 0.5473437499999818,
      "end": 161.27989583333328,
      "pitch": 81,
      "start": 160.7325520833333,
      "velocity": 78
    },
    {
      "duration": 0.9677083333331211,
      "end": 161.71052083333325,
      "pitch": 75,
      "start": 160.74281250000013,
      "velocity": 69
    },
    {
      "duration": 0.5293229166663878,
      "end": 161.27989583333328,
      "pitch": 47,
      "start": 160.7505729166669,
      "velocity": 45
    },
    {
      "duration": 0.2880208333331211,
      "end": 161.58921874999987,
      "pitch": 80,
      "start": 161.30119791666675,
      "velocity": 60
    },
    {
      "duration": 0.38973958333326664,
      "end": 161.71052083333325,
      "pitch": 52,
      "start": 161.32078124999998,
      "velocity": 44
    },
    {
      "duration": 0.3679687499998181,
      "end": 161.71052083333325,
      "pitch": 76,
      "start": 161.34255208333343,
      "velocity": 44
    },
    {
      "duration": 0.43416666666689707,
      "end": 162.02338541666677,
      "pitch": 80,
      "start": 161.58921874999987,
      "velocity": 41
    },
    {
      "duration": 0.34156250000023647,
      "end": 161.9667708333336,
      "pitch": 68,
      "start": 161.62520833333338,
      "velocity": 52
    },
    {
      "duration": 0.5794270833334849,
      "end": 162.43401041666675,
      "pitch": 78,
      "start": 161.85458333333327,
      "velocity": 74
    },
    {
      "duration": 0.5974479166666242,
      "end": 162.4572916666666,
      "pitch": 66,
      "start": 161.85984374999998,
      "velocity": 57
    },
    {
      "duration": 0.5847916666666606,
      "end": 162.96734375000005,
      "pitch": 76,
      "start": 162.3825520833334,
      "velocity": 75
    },
    {
      "duration": 0.6188020833333212,
      "end": 163.00270833333343,
      "pitch": 64,
      "start": 162.3839062500001,
      "velocity": 46
    },
    {
      "duration": 0.4193229166667152,
      "end": 163.3352083333334,
      "pitch": 73,
      "start": 162.9158854166667,
      "velocity": 67
    },
    {
      "duration": 0.39609375000009095,
      "end": 163.31734374999996,
      "pitch": 61,
      "start": 162.92124999999987,
      "velocity": 45
    },
    {
      "duration": 0.11005208333335759,
      "end": 163.40463541666668,
      "pitch": 75,
      "start": 163.29458333333332,
      "velocity": 71
    },
    {
      "duration": 0.13208333333341216,
      "end": 163.4385937500001,
      "pitch": 63,
      "start": 163.3065104166667,
      "velocity": 46
    },
    {
      "duration": 1.1468229166666788,
      "end": 164.53869791666693,
      "pitch": 71,
      "start": 163.39187500000025,
      "velocity": 74
    },
    {
      "duration": 2.9639583333332666,
      "end": 166.3984375,
      "pitch": 59,
      "start": 163.43447916666673,
      "velocity": 42
    }
  ],
  [
    {
      "duration": 2.4959895833330847,
      "end": 166.3984375,
      "pitch": 75,
      "start": 163.90244791666692,
      "velocity": 73
    },
    {
      "duration": 0.5070833333334122,
      "end": 164.4104687500003,
      "pitch": 81,
      "start": 163.90338541666688,
      "velocity": 78
    },
    {
      "duration": 0.49067708333359406,
      "end": 164.4104687500003,
      "pitch": 47,
      "start": 163.9197916666667,
      "velocity": 49
    },
    {
      "duration": 0.0675520833333394,
      "end": 164.5619791666668,
      "pitch": 52,
      "start": 164.49442708333345,
      "velocity": 47
    },
    {
      "duration": 1.8919791666667152,
      "end": 166.3984375,
      "pitch": 80,
      "start": 164.50645833333328,
      "velocity": 74
    },
    {
      "duration": 1.7476041666668607,
      "end": 166.2844270833334,
      "pitch": 76,
      "start": 164.53682291666655,
      "velocity": 35
    },
    {
      "duration": 0.16885416666673336,
      "end": 166.43927083333347,
      "pitch": 85,
      "start": 166.27041666666673,
      "velocity": 59
    },
    {
      "duration": 0.11401041666658784,
      "end": 166.3984375,
      "pitch": 76,
      "start": 166.2844270833334,
      "velocity": 57
    },
    {
      "duration": 0.12286458333346673,
      "end": 166.41062499999998,
      "pitch": 70,
      "start": 166.28776041666652,
      "velocity": 49
    },
    {
      "duration": 0.6788020833332666,
      "end": 167.07859374999998,
      "pitch": 86,
      "start": 166.39979166666672,
      "velocity": 74
    },
    {
      "duration": 0.6453125000002728,
      "end": 167.07041666666692,
      "pitch": 74,
      "start": 166.42510416666664,
      "velocity": 64
    },
    {
      "duration": 0.6332812499999818,
      "end": 167.05973958333334,
      "pitch": 71,
      "start": 166.42645833333336,
      "velocity": 57
    },
    {
      "duration": 0.6326562500003092,
      "end": 167.0630729166669,
      "pitch": 78,
      "start": 166.4304166666666,
      "velocity": 74
    },
    {
      "duration": 0.18833333333304836,
      "end": 167.13609374999987,
      "pitch": 85,
      "start": 166.94776041666682,
      "velocity": 75
    },
    {
      "duration": 0.14937499999996362,
      "end": 167.10041666666666,
      "pitch": 70,
      "start": 166.9510416666667,
      "velocity": 60
    },
    {
      "duration": 0.14005208333310293,
      "end": 167.10041666666666,
      "pitch": 76,
      "start": 166.96036458333356,
      "velocity": 53
    },
    {
      "duration": 0.5970312499998727,
      "end": 167.6567708333332,
      "pitch": 71,
      "start": 167.05973958333334,
      "velocity": 59
    },
    {
      "duration": 0.593697916666315,
      "end": 167.6567708333332,
      "pitch": 78,
      "start": 167.0630729166669,
      "velocity": 90
    },
    {
      "duration": 0.5863541666662968,
      "end": 167.6567708333332,
      "pitch": 74,
      "start": 167.07041666666692,
      "velocity": 64
    },
    {
      "duration": 0.5781770833332303,
      "end": 167.6567708333332,
      "pitch": 86,
      "start": 167.07859374999998,
      "velocity": 80
    },
    {
      "duration": 0.5653124999998909,
      "end": 168.19901041666662,
      "pitch": 87,
      "start": 167.63369791666673,
      "velocity": 74
    },
    {
      "duration": 0.14552083333319388,
      "end": 167.78328125000007,
      "pitch": 72,
      "start": 167.63776041666688,
      "velocity": 62
    },
    {
      "duration": 0.14088541666660603,
      "end": 167.77989583333328,
      "pitch": 69,
      "start": 167.63901041666668,
      "velocity": 54
    },
    {
      "duration": 0.5560416666667152,
      "end": 168.19901041666662,
      "pitch": 77,
      "start": 167.6429687499999,
      "velocity": 64
    },
    {
      "duration": 0.8246874999999818,
      "end": 169.03640625000025,
      "pitch": 88,
      "start": 168.21171875000027,
      "velocity": 79
    },
    {
      "duration": 0.06901041666696983,
      "end": 168.28802083333358,
      "pitch": 76,
      "start": 168.2190104166666,
      "velocity": 59
    },
    {
      "duration": 0.8119791666667879,
      "end": 169.03640625000025,
      "pitch": 68,
      "start": 168.22442708333347,
      "velocity": 45
    },
    {
      "duration": 0.7893749999998363,
      "end": 169.0190104166668,
      "pitch": 71,
      "start": 168.22963541666695,
      "velocity": 52
    },
    {
      "duration": 0.06427083333346673,
      "end": 168.31661458333338,
      "pitch": 64,
      "start": 168.2523437499999,
      "velocity": 27
    },
    {
      "duration": 0.1983854166664969,
      "end": 169.04671874999985,
      "pitch": 85,
      "start": 168.84833333333336,
      "velocity": 73
    },
    {
      "duration": 0.16005208333353949,
      "end": 169.03640625000025,
      "pitch": 76,
      "start": 168.87635416666672,
      "velocity": 75
    },
    {
      "duration": 0.14739583333357587,
      "end": 169.03640625000025,
      "pitch": 70,
      "start": 168.88901041666668,
      "velocity": 57
    },
    {
      "duration": 0.5813541666666424,
      "end": 169.59104166666657,
      "pitch": 86,
      "start": 169.00968749999993,
      "velocity": 83
    },
    {
      "duration": 0.5720312499997817,
      "end": 169.59104166666657,
      "pitch": 71,
      "start": 169.0190104166668,
      "velocity": 75
    },
    {
      "duration": 0.5686979166666788,
      "end": 169.59104166666657,
      "pitch": 74,
      "start": 169.0223437499999,
      "velocity": 77
    },
    {
      "duration": 0.5600520833331757,
      "end": 169.59104166666657,
      "pitch": 78,
      "start": 169.0309895833334,
      "velocity": 92
    },
    {
      "duration": 0.6342708333331757,
      "end": 170.20062499999995,
      "pitch": 87,
      "start": 169.56635416666677,
      "velocity": 89
    },
    {
      "duration": 0.11588541666696983,
      "end": 169.69057291666695,
      "pitch": 69,
      "start": 169.57468749999998,
      "velocity": 57
    },
    {
      "duration": 0.12291666666669698,
      "end": 169.70322916666692,
      "pitch": 72,
      "start": 169.58031250000022,
      "velocity": 54
    },
    {
      "duration": 0.612968749999709,
      "end": 170.20062499999995,
      "pitch": 77,
      "start": 169.58765625000024,
      "velocity": 74
    },
    {
      "duration": 1.8172916666667334,
      "end": 172.03760416666682,
      "pitch": 68,
      "start": 170.2203125000001,
      "velocity": 69
    },
    {
      "duration": 1.8163541666667697,
      "end": 172.03760416666682,
      "pitch": 88,
      "start": 170.22125000000005,
      "velocity": 86
    },
    {
      "duration": 1.8132812500002728,
      "end": 172.03760416666682,
      "pitch": 76,
      "start": 170.22432291666655,
      "velocity": 74
    },
    {
      "duration": 1.8099479166667152,
      "end": 172.03760416666682,
      "pitch": 71,
      "start": 170.2276562500001,
      "velocity": 66
    },
    {
      "duration": 1.8066145833336122,
      "end": 172.03760416666682,
      "pitch": 64,
      "start": 170.2309895833332,
      "velocity": 54
    },
    {
      "duration": 1.034635416666788,
      "end": 172.0336458333336,
      "pitch": 75,
      "start": 170.9990104166668,
      "velocity": 53
    },
    {
      "duration": 1.0332812500000728,
      "end": 172.03760416666682,
      "pitch": 90,
      "start": 171.00432291666675,
      "velocity": 77
    },
    {
      "duration": 1.013281250000091,
      "end": 172.03760416666682,
      "pitch": 72,
      "start": 171.02432291666673,
      "velocity": 32
    },
    {
      "duration": 0.7486458333332848,
      "end": 172.78229166666688,
      "pitch": 75,
      "start": 172.0336458333336,
      "velocity": 49
    },
    {
      "duration": 0.738020833333394,
      "end": 172.78229166666688,
      "pitch": 72,
      "start": 172.04427083333348,
      "velocity": 56
    },
    {
      "duration": 0.7387499999999818,
      "end": 172.7839062500002,
      "pitch": 90,
      "start": 172.04515625000022,
      "velocity": 66
    },
    {
      "duration": 0.7273437500002728,
      "end": 172.78229166666688,
      "pitch": 81,
      "start": 172.0549479166666,
      "velocity": 64
    },
    {
      "duration": 0.8369270833331939,
      "end": 173.55854166666677,
      "pitch": 80,
      "start": 172.72161458333358,
      "velocity": 75
    },
    {
      "duration": 0.778906250000091,
      "end": 173.52359375000015,
      "pitch": 76,
      "start": 172.74468750000005,
      "velocity": 61
    },
    {
      "duration": 0.8118749999998727,
      "end": 173.55854166666677,
      "pitch": 83,
      "start": 172.7466666666669,
      "velocity": 75
    },
    {
      "duration": 0.8102604166665515,
      "end": 173.55854166666677,
      "pitch": 71,
      "start": 172.74828125000022,
      "velocity": 44
    },
    {
      "duration": 0.6792708333332484,
      "end": 174.2028645833334,
      "pitch": 76,
      "start": 173.52359375000015,
      "velocity": 49
    },
    {
      "duration": 0.6998958333333576,
      "end": 174.22442708333347,
      "pitch": 82,
      "start": 173.5245312500001,
      "velocity": 66
    },
    {
      "duration": 0.698958333333394,
      "end": 174.22442708333347,
      "pitch": 90,
      "start": 173.52546875000007,
      "velocity": 71
    },
    {
      "duration": 0.6955208333333758,
      "end": 174.22442708333347,
      "pitch": 73,
      "start": 173.5289062500001,
      "velocity": 50
    },
    {
      "duration": 0.6902083333334303,
      "end": 174.22442708333347,
      "pitch": 66,
      "start": 173.53421875000004,
      "velocity": 49
    },
    {
      "duration": 0.5771875000000364,
      "end": 174.77489583333363,
      "pitch": 83,
      "start": 174.1977083333336,
      "velocity": 70
    },
    {
      "duration": 0.5683333333336122,
      "end": 174.7661979166669,
      "pitch": 86,
      "start": 174.19786458333328,
      "velocity": 69
    },
    {
      "duration": 0.5900000000001455,
      "end": 174.79286458333354,
      "pitch": 76,
      "start": 174.2028645833334,
      "velocity": 57
    },
    {
      "duration": 0.575989583333012,
      "end": 174.7822395833332,
      "pitch": 71,
      "start": 174.20625000000018,
      "velocity": 49
    },
    {
      "duration": 0.6293749999999818,
      "end": 175.39557291666688,
      "pitch": 86,
      "start": 174.7661979166669,
      "velocity": 54
    },
    {
      "duration": 0.615364583333303,
      "end": 175.39026041666693,
      "pitch": 83,
      "start": 174.77489583333363,
      "velocity": 58
    },
    {
      "duration": 0.613333333333685,
      "end": 175.39557291666688,
      "pitch": 71,
      "start": 174.7822395833332,
      "velocity": 47
    },
    {
      "duration": 0.6100000000001273,
      "end": 175.39557291666688,
      "pitch": 74,
      "start": 174.78557291666675,
      "velocity": 64
    },
    {
      "duration": 0.16026041666646051,
      "end": 175.4065104166666,
      "pitch": 85,
      "start": 175.24625000000015,
      "velocity": 74
    },
    {
      "duration": 0.14203124999994543,
      "end": 175.39557291666688,
      "pitch": 82,
      "start": 175.25354166666693,
      "velocity": 49
    },
    {
      "duration": 0.2082291666670244,
      "end": 175.47046875000024,
      "pitch": 66,
      "start": 175.2622395833332,
      "velocity": 39
    },
    {
      "duration": 0.17770833333361225,
      "end": 175.4472395833336,
      "pitch": 73,
      "start": 175.26953125,
      "velocity": 44
    },
    {
      "duration": 0.12291666666669698,
      "end": 175.48442708333323,
      "pitch": 88,
      "start": 175.36151041666653,
      "velocity": 71
    },
    {
      "duration": 0.7309374999999818,
      "end": 176.12119791666692,
      "pitch": 83,
      "start": 175.39026041666693,
      "velocity": 45
    },
    {
      "duration": 0.6949479166664787,
      "end": 176.0958333333333,
      "pitch": 74,
      "start": 175.40088541666682,
      "velocity": 50
    },
    {
      "duration": 0.6877083333333758,
      "end": 176.11192708333328,
      "pitch": 86,
      "start": 175.4242187499999,
      "velocity": 62
    },
    {
      "duration": 0.6219791666667334,
      "end": 176.06552083333327,
      "pitch": 71,
      "start": 175.44354166666653,
      "velocity": 45
    },
    {
      "duration": 0.7753124999999272,
      "end": 176.81088541666668,
      "pitch": 82,
      "start": 176.03557291666675,
      "velocity": 51
    },
    {
      "duration": 0.7680208333331393,
      "end": 176.81088541666668,
      "pitch": 85,
      "start": 176.04286458333354,
      "velocity": 76
    },
    {
      "duration": 0.7666666666664241,
      "end": 176.81088541666668,
      "pitch": 73,
      "start": 176.04421875000025,
      "velocity": 39
    },
    {
      "duration": 0.7414062499997272,
      "end": 176.81088541666668,
      "pitch": 66,
      "start": 176.06947916666695,
      "velocity": 40
    },
    {
      "duration": 0.1901562500002001,
      "end": 177.02031250000027,
      "pitch": 47,
      "start": 176.83015625000007,
      "velocity": 41
    },
    {
      "duration": 2.2172916666668243,
      "end": 179.06682291666675,
      "pitch": 86,
      "start": 176.84953124999993,
      "velocity": 68
    },
    {
      "duration": 2.196302083333194,
      "end": 179.06682291666675,
      "pitch": 83,
      "start": 176.87052083333356,
      "velocity": 74
    },
    {
      "duration": 1.505989583333303,
      "end": 179.06682291666675,
      "pitch": 69,
      "start": 177.56083333333345,
      "velocity": 39
    },
    {
      "duration": 1.5040104166664605,
      "end": 179.06682291666675,
      "pitch": 74,
      "start": 177.5628125000003,
      "velocity": 38
    },
    {
      "duration": 1.5006250000001273,
      "end": 179.06682291666675,
      "pitch": 78,
      "start": 177.56619791666662,
      "velocity": 37
    },
    {
      "duration": 1.495312500000182,
      "end": 179.06682291666675,
      "pitch": 59,
      "start": 177.57151041666657,
      "velocity": 40
    },
    {
      "duration": 0.8179687499996362,
      "end": 179.01682291666657,
      "pitch": 85,
      "start": 178.19885416666693,
      "velocity": 45
    },
    {
      "duration": 0.8333333333334849,
      "end": 179.0414583333336,
      "pitch": 81,
      "start": 178.2081250000001,
      "velocity": 54
    },
    {
      "duration": 2.8213020833336486,
      "end": 181.82411458333354,
      "pitch": 52,
      "start": 179.0028124999999,
      "velocity": 35
    },
    {
      "duration": 0.6793229166669335,
      "end": 179.6961458333335,
      "pitch": 85,
      "start": 179.01682291666657,
      "velocity": 55
    },
    {
      "duration": 1.0259895833332848,
      "end": 180.06744791666688,
      "pitch": 81,
      "start": 179.0414583333336,
      "velocity": 49
    },
    {
      "duration": 0.3613020833331575,
      "end": 179.80812500000002,
      "pitch": 80,
      "start": 179.44682291666686,
      "velocity": 62
    },
    {
      "duration": 0.3250520833335031,
      "end": 179.8005208333334,
      "pitch": 83,
      "start": 179.4754687499999,
      "velocity": 57
    },
    {
      "duration": 1.1530208333333576,
      "end": 180.84916666666686,
      "pitch": 85,
      "start": 179.6961458333335,
      "velocity": 67
    },
    {
      "duration": 2.05729166666697,
      "end": 181.82411458333354,
      "pitch": 68,
      "start": 179.76682291666657,
      "velocity": 48
    },
    {
      "duration": 2.0426562500001637,
      "end": 181.82411458333354,
      "pitch": 62,
      "start": 179.78145833333338,
      "velocity": 46
    },
    {
      "duration": 0.6349479166665333,
      "end": 180.43546874999993,
      "pitch": 83,
      "start": 179.8005208333334,
      "velocity": 76
    }
  ],
  [
    {
      "duration": 2.0159895833335213,
      "end": 181.82411458333354,
      "pitch": 80,
      "start": 179.80812500000002,
      "velocity": 56
    },
    {
      "duration": 1.7566666666666606,
      "end": 181.82411458333354,
      "pitch": 81,
      "start": 180.06744791666688,
      "velocity": 66
    },
    {
      "duration": 1.744010416666697,
      "end": 181.82411458333354,
      "pitch": 78,
      "start": 180.08010416666684,
      "velocity": 64
    },
    {
      "duration": 1.391927083333485,
      "end": 181.82411458333354,
      "pitch": 76,
      "start": 180.43218750000005,
      "velocity": 47
    },
    {
      "duration": 1.3172916666667334,
      "end": 181.75276041666666,
      "pitch": 83,
      "start": 180.43546874999993,
      "velocity": 64
    },
    {
      "duration": 0.9749479166666788,
      "end": 181.82411458333354,
      "pitch": 85,
      "start": 180.84916666666686,
      "velocity": 67
    },
    {
      "duration": 0.8900520833331029,
      "end": 181.7619791666666,
      "pitch": 74,
      "start": 180.8719270833335,
      "velocity": 53
    },
    {
      "duration": 0.5686458333334485,
      "end": 182.3214062500001,
      "pitch": 83,
      "start": 181.75276041666666,
      "velocity": 55
    },
    {
      "duration": 0.6925520833333394,
      "end": 182.45359374999998,
      "pitch": 65,
      "start": 181.76104166666664,
      "velocity": 34
    },
    {
      "duration": 2.1420833333336304,
      "end": 183.90406250000024,
      "pitch": 74,
      "start": 181.7619791666666,
      "velocity": 39
    },
    {
      "duration": 3.7853124999996908,
      "end": 185.56802083333332,
      "pitch": 57,
      "start": 181.78270833333363,
      "velocity": 52
    },
    {
      "duration": 0.2717187500002183,
      "end": 182.3891145833336,
      "pitch": 81,
      "start": 182.11739583333338,
      "velocity": 54
    },
    {
      "duration": 0.11927083333330302,
      "end": 182.4406770833334,
      "pitch": 83,
      "start": 182.3214062500001,
      "velocity": 39
    },
    {
      "duration": 0.6972916666668425,
      "end": 183.07203125000024,
      "pitch": 66,
      "start": 182.3747395833334,
      "velocity": 32
    },
    {
      "duration": 0.6809374999997999,
      "end": 183.0700520833334,
      "pitch": 81,
      "start": 182.3891145833336,
      "velocity": 53
    },
    {
      "duration": 0.4426562499997999,
      "end": 183.1320833333334,
      "pitch": 80,
      "start": 182.6894270833336,
      "velocity": 72
    },
    {
      "duration": 0.43203124999990905,
      "end": 183.1320833333334,
      "pitch": 65,
      "start": 182.7000520833335,
      "velocity": 37
    },
    {
      "duration": 0.8340104166668425,
      "end": 183.90406250000024,
      "pitch": 81,
      "start": 183.0700520833334,
      "velocity": 72
    },
    {
      "duration": 0.83203125,
      "end": 183.90406250000024,
      "pitch": 66,
      "start": 183.07203125000024,
      "velocity": 39
    },
    {
      "duration": 0.21536458333366681,
      "end": 183.90406250000024,
      "pitch": 78,
      "start": 183.68869791666657,
      "velocity": 59
    },
    {
      "duration": 1.0915104166665515,
      "end": 184.92067708333343,
      "pitch": 75,
      "start": 183.82916666666688,
      "velocity": 62
    },
    {
      "duration": 1.0793229166665697,
      "end": 184.92067708333343,
      "pitch": 69,
      "start": 183.84135416666686,
      "velocity": 39
    },
    {
      "duration": 1.0700000000001637,
      "end": 184.92067708333343,
      "pitch": 72,
      "start": 183.85067708333327,
      "velocity": 47
    },
    {
      "duration": 0.41265625000005457,
      "end": 184.84802083333352,
      "pitch": 76,
      "start": 184.43536458333347,
      "velocity": 36
    },
    {
      "duration": 1.3439062500001455,
      "end": 186.17703125000025,
      "pitch": 64,
      "start": 184.8331250000001,
      "velocity": 40
    },
    {
      "duration": 0.7682812499997453,
      "end": 185.61630208333327,
      "pitch": 76,
      "start": 184.84802083333352,
      "velocity": 34
    },
    {
      "duration": 0.8268229166665151,
      "end": 185.67619791666675,
      "pitch": 73,
      "start": 184.84937500000024,
      "velocity": 49
    },
    {
      "duration": 0.6357291666668061,
      "end": 186.17703125000025,
      "pitch": 56,
      "start": 185.54130208333345,
      "velocity": 36
    },
    {
      "duration": 0.6143750000001091,
      "end": 186.17703125000025,
      "pitch": 71,
      "start": 185.56265625000015,
      "velocity": 37
    },
    {
      "duration": 2.010729166666806,
      "end": 188.20598958333358,
      "pitch": 54,
      "start": 186.19526041666677,
      "velocity": 33
    },
    {
      "duration": 2.0033333333335577,
      "end": 188.20598958333358,
      "pitch": 81,
      "start": 186.20265625000002,
      "velocity": 62
    },
    {
      "duration": 1.3886979166668425,
      "end": 188.20598958333358,
      "pitch": 73,
      "start": 186.81729166666673,
      "velocity": 28
    },
    {
      "duration": 1.384687500000382,
      "end": 188.20598958333358,
      "pitch": 76,
      "start": 186.8213020833332,
      "velocity": 41
    },
    {
      "duration": 1.3832291666667516,
      "end": 188.20598958333358,
      "pitch": 69,
      "start": 186.82276041666682,
      "velocity": 30
    },
    {
      "duration": 1.3780208333337214,
      "end": 188.20598958333358,
      "pitch": 66,
      "start": 186.82796874999985,
      "velocity": 39
    },
    {
      "duration": 1.365364583333303,
      "end": 188.20598958333358,
      "pitch": 61,
      "start": 186.84062500000027,
      "velocity": 37
    },
    {
      "duration": 0.7241145833331757,
      "end": 188.18130208333332,
      "pitch": 80,
      "start": 187.45718750000015,
      "velocity": 73
    },
    {
      "duration": 2.797916666666879,
      "end": 190.96317708333345,
      "pitch": 47,
      "start": 188.16526041666657,
      "velocity": 35
    },
    {
      "duration": 0.7076041666668971,
      "end": 188.88890625000022,
      "pitch": 80,
      "start": 188.18130208333332,
      "velocity": 73
    },
    {
      "duration": 0.3128645833335213,
      "end": 188.98791666666693,
      "pitch": 78,
      "start": 188.6750520833334,
      "velocity": 70
    },
    {
      "duration": 1.0821354166664605,
      "end": 189.97104166666668,
      "pitch": 80,
      "start": 188.88890625000022,
      "velocity": 58
    },
    {
      "duration": 1.9819270833331757,
      "end": 190.96317708333345,
      "pitch": 63,
      "start": 188.98125000000027,
      "velocity": 44
    },
    {
      "duration": 0.6240104166663514,
      "end": 189.61192708333328,
      "pitch": 78,
      "start": 188.98791666666693,
      "velocity": 71
    },
    {
      "duration": 1.964583333333394,
      "end": 190.96317708333345,
      "pitch": 75,
      "start": 188.99859375000005,
      "velocity": 75
    },
    {
      "duration": 0.9792708333329756,
      "end": 189.97984374999987,
      "pitch": 69,
      "start": 189.0005729166669,
      "velocity": 34
    },
    {
      "duration": 1.9522395833332666,
      "end": 190.96317708333345,
      "pitch": 59,
      "start": 189.01093750000018,
      "velocity": 35
    },
    {
      "duration": 1.626562500000091,
      "end": 190.96317708333345,
      "pitch": 73,
      "start": 189.33661458333336,
      "velocity": 60
    },
    {
      "duration": 1.6256770833333576,
      "end": 190.96317708333345,
      "pitch": 76,
      "start": 189.3375000000001,
      "velocity": 81
    },
    {
      "duration": 1.2766666666666424,
      "end": 190.88859374999993,
      "pitch": 78,
      "start": 189.61192708333328,
      "velocity": 83
    },
    {
      "duration": 1.3472916666669335,
      "end": 190.96317708333345,
      "pitch": 71,
      "start": 189.61588541666652,
      "velocity": 71
    },
    {
      "duration": 0.9921354166667697,
      "end": 190.96317708333345,
      "pitch": 80,
      "start": 189.97104166666668,
      "velocity": 82
    },
    {
      "duration": 0.933385416667079,
      "end": 190.91322916666695,
      "pitch": 69,
      "start": 189.97984374999987,
      "velocity": 59
    },
    {
      "duration": 0.552604166666697,
      "end": 191.44119791666662,
      "pitch": 78,
      "start": 190.88859374999993,
      "velocity": 69
    },
    {
      "duration": 3.863229166666315,
      "end": 194.76041666666652,
      "pitch": 52,
      "start": 190.8971875000002,
      "velocity": 52
    },
    {
      "duration": 2.5779166666666242,
      "end": 193.49114583333358,
      "pitch": 69,
      "start": 190.91322916666695,
      "velocity": 38
    },
    {
      "duration": 0.281302083333685,
      "end": 191.5198437500003,
      "pitch": 76,
      "start": 191.2385416666666,
      "velocity": 64
    },
    {
      "duration": 0.14432291666662422,
      "end": 191.58552083333325,
      "pitch": 78,
      "start": 191.44119791666662,
      "velocity": 77
    },
    {
      "duration": 0.42687500000010914,
      "end": 191.91473958333336,
      "pitch": 60,
      "start": 191.48786458333325,
      "velocity": 44
    },
    {
      "duration": 0.353645833333303,
      "end": 191.8734895833336,
      "pitch": 76,
      "start": 191.5198437500003,
      "velocity": 72
    },
    {
      "duration": 0.4161979166665333,
      "end": 192.23604166666655,
      "pitch": 75,
      "start": 191.81984375000002,
      "velocity": 76
    },
    {
      "duration": 0.3665104166666424,
      "end": 192.21135416666675,
      "pitch": 61,
      "start": 191.8448437500001,
      "velocity": 52
    },
    {
      "duration": 0.3128645833335213,
      "end": 192.50468750000027,
      "pitch": 60,
      "start": 192.19182291666675,
      "velocity": 57
    },
    {
      "duration": 0.9155208333336304,
      "end": 193.1180208333335,
      "pitch": 76,
      "start": 192.20249999999987,
      "velocity": 74
    },
    {
      "duration": 0.6841666666668971,
      "end": 193.16401041666677,
      "pitch": 61,
      "start": 192.47984374999987,
      "velocity": 25
    },
    {
      "duration": 0.33062500000005457,
      "end": 193.45380208333336,
      "pitch": 64,
      "start": 193.1231770833333,
      "velocity": 33
    },
    {
      "duration": 0.3646354166667152,
      "end": 193.49114583333358,
      "pitch": 73,
      "start": 193.12651041666686,
      "velocity": 56
    },
    {
      "duration": 0.7470312499999636,
      "end": 194.20083333333332,
      "pitch": 64,
      "start": 193.45380208333336,
      "velocity": 54
    },
    {
      "duration": 0.6706770833329756,
      "end": 194.1278124999999,
      "pitch": 70,
      "start": 193.45713541666692,
      "velocity": 60
    },
    {
      "duration": 0.6653645833330302,
      "end": 194.1278124999999,
      "pitch": 67,
      "start": 193.46244791666686,
      "velocity": 46
    },
    {
      "duration": 0.1320312500001819,
      "end": 194.11713541666677,
      "pitch": 71,
      "start": 193.9851041666666,
      "velocity": 31
    },
    {
      "duration": 1.219270833333212,
      "end": 195.3257812500001,
      "pitch": 68,
      "start": 194.10651041666688,
      "velocity": 40
    },
    {
      "duration": 1.2086458333333212,
      "end": 195.3257812500001,
      "pitch": 71,
      "start": 194.11713541666677,
      "velocity": 44
    },
    {
      "duration": 1.1966666666667152,
      "end": 195.3257812500001,
      "pitch": 59,
      "start": 194.12911458333338,
      "velocity": 60
    },
    {
      "duration": 0.5653645833335759,
      "end": 195.3257812500001,
      "pitch": 52,
      "start": 194.76041666666652,
      "velocity": 40
    },
    {
      "duration": 1.6623958333334485,
      "end": 196.98088541666675,
      "pitch": 74,
      "start": 195.3184895833333,
      "velocity": 57
    },
    {
      "duration": 0.5772916666664969,
      "end": 196.4330729166668,
      "pitch": 59,
      "start": 195.8557812500003,
      "velocity": 25
    },
    {
      "duration": 0.6189062500002365,
      "end": 196.47598958333356,
      "pitch": 47,
      "start": 195.85708333333332,
      "velocity": 33
    },
    {
      "duration": 0.566666666666606,
      "end": 196.4330729166668,
      "pitch": 66,
      "start": 195.86640625000018,
      "velocity": 34
    },
    {
      "duration": 0.5546354166667697,
      "end": 196.4330729166668,
      "pitch": 69,
      "start": 195.87843750000002,
      "velocity": 35
    },
    {
      "duration": 0.587447916666406,
      "end": 197.0397916666666,
      "pitch": 59,
      "start": 196.45234375000018,
      "velocity": 35
    },
    {
      "duration": 0.5853645833331029,
      "end": 197.0397916666666,
      "pitch": 52,
      "start": 196.45442708333348,
      "velocity": 36
    },
    {
      "duration": 0.5844270833331393,
      "end": 197.0397916666666,
      "pitch": 68,
      "start": 196.45536458333345,
      "velocity": 31
    },
    {
      "duration": 0.578072916666315,
      "end": 197.0397916666666,
      "pitch": 71,
      "start": 196.46171875000027,
      "velocity": 36
    },
    {
      "duration": 0.2630729166667152,
      "end": 197.24395833333347,
      "pitch": 74,
      "start": 196.98088541666675,
      "velocity": 74
    },
    {
      "duration": 0.3402083333335213,
      "end": 197.54130208333345,
      "pitch": 76,
      "start": 197.20109374999993,
      "velocity": 85
    },
    {
      "duration": 1.1519791666664787,
      "end": 198.67171874999985,
      "pitch": 78,
      "start": 197.51973958333338,
      "velocity": 85
    },
    {
      "duration": 0.5482291666667152,
      "end": 198.0906770833335,
      "pitch": 66,
      "start": 197.5424479166668,
      "velocity": 37
    },
    {
      "duration": 0.5299999999997453,
      "end": 198.0903645833332,
      "pitch": 59,
      "start": 197.56036458333347,
      "velocity": 24
    },
    {
      "duration": 0.5889583333332666,
      "end": 198.15463541666668,
      "pitch": 47,
      "start": 197.5656770833334,
      "velocity": 28
    },
    {
      "duration": 0.5196354166669153,
      "end": 198.0906770833335,
      "pitch": 69,
      "start": 197.5710416666666,
      "velocity": 44
    },
    {
      "duration": 0.5870312499996544,
      "end": 198.67171874999985,
      "pitch": 52,
      "start": 198.0846875000002,
      "velocity": 37
    },
    {
      "duration": 0.5813541666666424,
      "end": 198.67171874999985,
      "pitch": 59,
      "start": 198.0903645833332,
      "velocity": 16
    },
    {
      "duration": 0.5988020833333394,
      "end": 198.69453125000018,
      "pitch": 71,
      "start": 198.09572916666684,
      "velocity": 56
    },
    {
      "duration": 0.5673437499999636,
      "end": 198.67171874999985,
      "pitch": 68,
      "start": 198.1043749999999,
      "velocity": 27
    },
    {
      "duration": 1.103958333333594,
      "end": 199.77171875000022,
      "pitch": 74,
      "start": 198.66776041666662,
      "velocity": 83
    },
    {
      "duration": 0.5653645833335759,
      "end": 199.77171875000022,
      "pitch": 66,
      "start": 199.20635416666664,
      "velocity": 53
    },
    {
      "duration": 0.6028124999997999,
      "end": 199.8106770833333,
      "pitch": 69,
      "start": 199.2078645833335,
      "velocity": 56
    },
    {
      "duration": 0.6400000000003274,
      "end": 199.85692708333363,
      "pitch": 47,
      "start": 199.2169270833333,
      "velocity": 31
    },
    {
      "duration": 0.5448437499999272,
      "end": 199.7627083333332,
      "pitch": 59,
      "start": 199.21786458333327,
      "velocity": 29
    },
    {
      "duration": 0.5706770833335213,
      "end": 200.31770833333348,
      "pitch": 68,
      "start": 199.74703124999996,
      "velocity": 36
    }
  ],
  [
    {
      "duration": 0.5686979166666788,
      "end": 200.31770833333348,
      "pitch": 52,
      "start": 199.7490104166668,
      "velocity": 34
    },
    {
      "duration": 0.5013541666667152,
      "end": 200.25567708333347,
      "pitch": 71,
      "start": 199.75432291666675,
      "velocity": 55
    },
    {
      "duration": 0.555000000000291,
      "end": 200.31770833333348,
      "pitch": 59,
      "start": 199.7627083333332,
      "velocity": 23
    },
    {
      "duration": 0.3060416666667152,
      "end": 200.31770833333348,
      "pitch": 73,
      "start": 200.01166666666677,
      "velocity": 30
    },
    {
      "duration": 0.8802604166667152,
      "end": 201.13593750000018,
      "pitch": 71,
      "start": 200.25567708333347,
      "velocity": 56
    },
    {
      "duration": 0.6382291666668607,
      "end": 201.1425520833336,
      "pitch": 69,
      "start": 200.50432291666675,
      "velocity": 67
    },
    {
      "duration": 0.6648958333335031,
      "end": 201.63848958333347,
      "pitch": 42,
      "start": 200.97359374999996,
      "velocity": 58
    },
    {
      "duration": 0.6536979166667152,
      "end": 201.63468749999993,
      "pitch": 66,
      "start": 200.9809895833332,
      "velocity": 76
    },
    {
      "duration": 0.65234375,
      "end": 201.63468749999993,
      "pitch": 57,
      "start": 200.98234374999993,
      "velocity": 34
    },
    {
      "duration": 0.5897395833335395,
      "end": 201.58671875000027,
      "pitch": 62,
      "start": 200.99697916666673,
      "velocity": 59
    },
    {
      "duration": 0.7928124999998545,
      "end": 202.37109375,
      "pitch": 44,
      "start": 201.57828125000015,
      "velocity": 55
    },
    {
      "duration": 0.7469270833330484,
      "end": 202.33364583333332,
      "pitch": 62,
      "start": 201.58671875000027,
      "velocity": 64
    },
    {
      "duration": 0.7353124999999636,
      "end": 202.3229687500002,
      "pitch": 64,
      "start": 201.58765625000024,
      "velocity": 74
    },
    {
      "duration": 0.7286979166665333,
      "end": 202.33364583333332,
      "pitch": 59,
      "start": 201.6049479166668,
      "velocity": 56
    },
    {
      "duration": 0.4659374999996544,
      "end": 202.78890624999985,
      "pitch": 64,
      "start": 202.3229687500002,
      "velocity": 67
    },
    {
      "duration": 0.6007291666669516,
      "end": 202.93098958333348,
      "pitch": 61,
      "start": 202.33026041666653,
      "velocity": 71
    },
    {
      "duration": 0.5740624999998545,
      "end": 202.93098958333348,
      "pitch": 45,
      "start": 202.35692708333363,
      "velocity": 48
    },
    {
      "duration": 0.12494791666676974,
      "end": 202.90432291666684,
      "pitch": 69,
      "start": 202.77937500000007,
      "velocity": 74
    },
    {
      "duration": 0.14208333333363043,
      "end": 202.93098958333348,
      "pitch": 64,
      "start": 202.78890624999985,
      "velocity": 42
    },
    {
      "duration": 0.5566666666668425,
      "end": 203.4589583333336,
      "pitch": 73,
      "start": 202.90229166666677,
      "velocity": 88
    },
    {
      "duration": 0.5653124999998909,
      "end": 203.46963541666673,
      "pitch": 69,
      "start": 202.90432291666684,
      "velocity": 64
    },
    {
      "duration": 1.1770833333330302,
      "end": 204.60734374999993,
      "pitch": 64,
      "start": 203.4302604166669,
      "velocity": 66
    },
    {
      "duration": 0.6146874999999454,
      "end": 204.05427083333325,
      "pitch": 76,
      "start": 203.4395833333333,
      "velocity": 93
    },
    {
      "duration": 0.5953124999996362,
      "end": 204.05427083333325,
      "pitch": 73,
      "start": 203.4589583333336,
      "velocity": 81
    },
    {
      "duration": 0.5690624999997453,
      "end": 204.60734374999993,
      "pitch": 75,
      "start": 204.03828125000018,
      "velocity": 90
    },
    {
      "duration": 0.5584374999998545,
      "end": 204.60734374999993,
      "pitch": 72,
      "start": 204.04890625000007,
      "velocity": 86
    },
    {
      "duration": 0.175729166666315,
      "end": 204.60734374999993,
      "pitch": 73,
      "start": 204.4316145833336,
      "velocity": 72
    },
    {
      "duration": 0.1597916666664787,
      "end": 204.60734374999993,
      "pitch": 76,
      "start": 204.44755208333345,
      "velocity": 76
    },
    {
      "duration": 0.7180208333334122,
      "end": 205.32890625000027,
      "pitch": 76,
      "start": 204.61088541666686,
      "velocity": 28
    },
    {
      "duration": 1.4827083333334485,
      "end": 206.0969270833334,
      "pitch": 64,
      "start": 204.61421874999996,
      "velocity": 29
    },
    {
      "duration": 0.7136979166666606,
      "end": 205.32890625000027,
      "pitch": 85,
      "start": 204.6152083333336,
      "velocity": 88
    },
    {
      "duration": 0.8195833333334122,
      "end": 206.0969270833334,
      "pitch": 84,
      "start": 205.27734375,
      "velocity": 77
    },
    {
      "duration": 0.8160416666664787,
      "end": 206.0969270833334,
      "pitch": 75,
      "start": 205.28088541666693,
      "velocity": 57
    },
    {
      "duration": 3.201562499999909,
      "end": 209.2489062499999,
      "pitch": 40,
      "start": 206.04734374999998,
      "velocity": 43
    },
    {
      "duration": 3.1907291666666424,
      "end": 209.2489062499999,
      "pitch": 82,
      "start": 206.05817708333325,
      "velocity": 65
    },
    {
      "duration": 3.1893749999999272,
      "end": 209.2489062499999,
      "pitch": 73,
      "start": 206.05953124999996,
      "velocity": 66
    },
    {
      "duration": 2.6003645833334303,
      "end": 209.2112500000003,
      "pitch": 83,
      "start": 206.61088541666686,
      "velocity": 64
    },
    {
      "duration": 2.6042708333329756,
      "end": 209.2275520833332,
      "pitch": 74,
      "start": 206.62328125000022,
      "velocity": 58
    },
    {
      "duration": 1.9535937499999818,
      "end": 209.2489062499999,
      "pitch": 68,
      "start": 207.2953124999999,
      "velocity": 31
    },
    {
      "duration": 1.9520833333331211,
      "end": 209.2489062499999,
      "pitch": 86,
      "start": 207.29682291666677,
      "velocity": 57
    },
    {
      "duration": 1.9467187499999454,
      "end": 209.2489062499999,
      "pitch": 62,
      "start": 207.30218749999995,
      "velocity": 40
    },
    {
      "duration": 1.9446874999998727,
      "end": 209.2489062499999,
      "pitch": 78,
      "start": 207.30421875000002,
      "velocity": 50
    },
    {
      "duration": 0.648697916666606,
      "end": 209.2489062499999,
      "pitch": 80,
      "start": 208.60020833333328,
      "velocity": 73
    },
    {
      "duration": 0.6293749999999818,
      "end": 209.2489062499999,
      "pitch": 71,
      "start": 208.6195312499999,
      "velocity": 36
    },
    {
      "duration": 3.4473437500000728,
      "end": 212.6021354166669,
      "pitch": 33,
      "start": 209.15479166666682,
      "velocity": 41
    },
    {
      "duration": 3.390885416666606,
      "end": 212.6021354166669,
      "pitch": 83,
      "start": 209.2112500000003,
      "velocity": 56
    },
    {
      "duration": 3.374583333333703,
      "end": 212.6021354166669,
      "pitch": 74,
      "start": 209.2275520833332,
      "velocity": 37
    },
    {
      "duration": 2.8533333333334667,
      "end": 212.6021354166669,
      "pitch": 73,
      "start": 209.74880208333343,
      "velocity": 29
    },
    {
      "duration": 2.8319270833335395,
      "end": 212.6021354166669,
      "pitch": 81,
      "start": 209.77020833333336,
      "velocity": 41
    },
    {
      "duration": 1.9165625000000546,
      "end": 212.6021354166669,
      "pitch": 85,
      "start": 210.68557291666684,
      "velocity": 47
    },
    {
      "duration": 1.9146875000001273,
      "end": 212.6021354166669,
      "pitch": 76,
      "start": 210.68744791666677,
      "velocity": 39
    },
    {
      "duration": 1.315625000000182,
      "end": 212.01869791666695,
      "pitch": 52,
      "start": 210.70307291666677,
      "velocity": 28
    },
    {
      "duration": 3.5233333333335395,
      "end": 214.2427604166669,
      "pitch": 45,
      "start": 210.71942708333336,
      "velocity": 32
    },
    {
      "duration": 0.5653645833331211,
      "end": 212.29281249999985,
      "pitch": 54,
      "start": 211.72744791666673,
      "velocity": 38
    },
    {
      "duration": 0.5813541666666424,
      "end": 212.6000520833336,
      "pitch": 52,
      "start": 212.01869791666695,
      "velocity": 58
    },
    {
      "duration": 0.3765104166668607,
      "end": 212.66932291666672,
      "pitch": 54,
      "start": 212.29281249999985,
      "velocity": 65
    },
    {
      "duration": 1.642708333333303,
      "end": 214.2427604166669,
      "pitch": 52,
      "start": 212.6000520833336,
      "velocity": 57
    },
    {
      "duration": 0.9036458333334849,
      "end": 214.2427604166669,
      "pitch": 61,
      "start": 213.3391145833334,
      "velocity": 38
    },
    {
      "duration": 0.19598958333290284,
      "end": 213.95135416666653,
      "pitch": 59,
      "start": 213.75536458333363,
      "velocity": 39
    },
    {
      "duration": 1.1800520833335213,
      "end": 215.13140625000005,
      "pitch": 59,
      "start": 213.95135416666653,
      "velocity": 40
    },
    {
      "duration": 1.0507291666667697,
      "end": 215.13140625000005,
      "pitch": 40,
      "start": 214.08067708333328,
      "velocity": 49
    },
    {
      "duration": 3.6642187500001455,
      "end": 217.96526041666675,
      "pitch": 68,
      "start": 214.3010416666666,
      "velocity": 59
    },
    {
      "duration": 3.651249999999891,
      "end": 217.95791666666673,
      "pitch": 71,
      "start": 214.30666666666684,
      "velocity": 64
    },
    {
      "duration": 0.5826562499996726,
      "end": 215.57401041666662,
      "pitch": 52,
      "start": 214.99135416666695,
      "velocity": 46
    },
    {
      "duration": 2.173958333333303,
      "end": 217.20796874999996,
      "pitch": 47,
      "start": 215.03401041666666,
      "velocity": 59
    },
    {
      "duration": 1.055989583333485,
      "end": 216.6300000000001,
      "pitch": 52,
      "start": 215.57401041666662,
      "velocity": 48
    },
    {
      "duration": 0.5246875000002547,
      "end": 216.10932291666677,
      "pitch": 59,
      "start": 215.58463541666652,
      "velocity": 70
    },
    {
      "duration": 3.3585416666669516,
      "end": 219.46588541666688,
      "pitch": 64,
      "start": 216.10734374999993,
      "velocity": 65
    },
    {
      "duration": 0.4957291666664787,
      "end": 216.60505208333325,
      "pitch": 59,
      "start": 216.10932291666677,
      "velocity": 57
    },
    {
      "duration": 0.8342187500002183,
      "end": 217.43927083333347,
      "pitch": 59,
      "start": 216.60505208333325,
      "velocity": 57
    },
    {
      "duration": 0.5970312499998727,
      "end": 217.22703124999998,
      "pitch": 52,
      "start": 216.6300000000001,
      "velocity": 60
    },
    {
      "duration": 1.2566666666666606,
      "end": 218.46463541666662,
      "pitch": 47,
      "start": 217.20796874999996,
      "velocity": 55
    },
    {
      "duration": 1.2415624999998727,
      "end": 218.46859374999985,
      "pitch": 52,
      "start": 217.22703124999998,
      "velocity": 32
    },
    {
      "duration": 0.14734374999989086,
      "end": 217.58661458333336,
      "pitch": 59,
      "start": 217.43927083333347,
      "velocity": 74
    },
    {
      "duration": 1.3846874999999272,
      "end": 218.97130208333328,
      "pitch": 59,
      "start": 217.58661458333336,
      "velocity": 83
    },
    {
      "duration": 3.759947916666988,
      "end": 221.52057291666688,
      "pitch": 28,
      "start": 217.7606249999999,
      "velocity": 75
    },
    {
      "duration": 2.7539583333332303,
      "end": 220.71187499999996,
      "pitch": 71,
      "start": 217.95791666666673,
      "velocity": 88
    },
    {
      "duration": 3.5553125000001273,
      "end": 221.52057291666688,
      "pitch": 68,
      "start": 217.96526041666675,
      "velocity": 80
    },
    {
      "duration": 2.2545833333333576,
      "end": 220.71921874999998,
      "pitch": 47,
      "start": 218.46463541666662,
      "velocity": 67
    },
    {
      "duration": 0.5066666666666606,
      "end": 218.97526041666652,
      "pitch": 52,
      "start": 218.46859374999985,
      "velocity": 66
    },
    {
      "duration": 0.498177083333303,
      "end": 219.4694791666666,
      "pitch": 59,
      "start": 218.97130208333328,
      "velocity": 81
    },
    {
      "duration": 1.0679166666668607,
      "end": 220.04317708333338,
      "pitch": 52,
      "start": 218.97526041666652,
      "velocity": 57
    },
    {
      "duration": 2.0546875,
      "end": 221.52057291666688,
      "pitch": 64,
      "start": 219.46588541666688,
      "velocity": 76
    },
    {
      "duration": 0.5351041666667697,
      "end": 220.00458333333336,
      "pitch": 59,
      "start": 219.4694791666666,
      "velocity": 69
    },
    {
      "duration": 1.5159895833335213,
      "end": 221.52057291666688,
      "pitch": 59,
      "start": 220.00458333333336,
      "velocity": 64
    },
    {
      "duration": 0.6740625000002183,
      "end": 220.7172395833336,
      "pitch": 52,
      "start": 220.04317708333338,
      "velocity": 41
    },
    {
      "duration": 0.8140104166668607,
      "end": 221.52057291666688,
      "pitch": 70,
      "start": 220.70656250000002,
      "velocity": 74
    },
    {
      "duration": 0.7909895833336122,
      "end": 221.50286458333358,
      "pitch": 71,
      "start": 220.71187499999996,
      "velocity": 75
    },
    {
      "duration": 0.8033333333332848,
      "end": 221.52057291666688,
      "pitch": 52,
      "start": 220.7172395833336,
      "velocity": 56
    },
    {
      "duration": 0.8023958333333212,
      "end": 221.52057291666688,
      "pitch": 67,
      "start": 220.71817708333356,
      "velocity": 67
    },
    {
      "duration": 0.8013541666668971,
      "end": 221.52057291666688,
      "pitch": 47,
      "start": 220.71921874999998,
      "velocity": 46
    },
    {
      "duration": 2.1106249999998,
      "end": 223.58317708333334,
      "pitch": 40,
      "start": 221.47255208333354,
      "velocity": 63
    },
    {
      "duration": 2.0722395833331575,
      "end": 223.55744791666666,
      "pitch": 66,
      "start": 221.4852083333335,
      "velocity": 77
    },
    {
      "duration": 2.0842708333334485,
      "end": 223.58317708333334,
      "pitch": 69,
      "start": 221.4989062499999,
      "velocity": 75
    },
    {
      "duration": 0.4826041666665333,
      "end": 221.9854687500001,
      "pitch": 71,
      "start": 221.50286458333358,
      "velocity": 70
    },
    {
      "duration": 1.6146354166667152,
      "end": 223.58317708333334,
      "pitch": 68,
      "start": 221.96854166666662,
      "velocity": 78
    },
    {
      "duration": 1.5985416666667334,
      "end": 223.58317708333334,
      "pitch": 64,
      "start": 221.9846354166666,
      "velocity": 74
    },
    {
      "duration": 1.5582812500001637,
      "end": 223.54375000000027,
      "pitch": 71,
      "start": 221.9854687500001,
      "velocity": 63
    },
    {
      "duration": 0.7390624999998181,
      "end": 224.27755208333338,
      "pitch": 63,
      "start": 223.53848958333356,
      "velocity": 65
    },
    {
      "duration": 2.339375000000018,
      "end": 225.8831250000003,
      "pitch": 71,
      "start": 223.54375000000027,
      "velocity": 66
    }
  ],
  [
    {
      "duration": 2.335989583333685,
      "end": 225.8831250000003,
      "pitch": 47,
      "start": 223.5471354166666,
      "velocity": 41
    },
    {
      "duration": 2.3256770833336304,
      "end": 225.8831250000003,
      "pitch": 66,
      "start": 223.55744791666666,
      "velocity": 65
    },
    {
      "duration": 0.728645833333303,
      "end": 224.29911458333345,
      "pitch": 57,
      "start": 223.57046875000015,
      "velocity": 39
    },
    {
      "duration": 1.6055729166669153,
      "end": 225.8831250000003,
      "pitch": 63,
      "start": 224.27755208333338,
      "velocity": 73
    },
    {
      "duration": 1.5840104166668425,
      "end": 225.8831250000003,
      "pitch": 57,
      "start": 224.29911458333345,
      "velocity": 57
    },
    {
      "duration": 0.7221354166663332,
      "end": 225.4851041666666,
      "pitch": 69,
      "start": 224.76296875000025,
      "velocity": 80
    },
    {
      "duration": 0.7071874999996908,
      "end": 225.4710937499999,
      "pitch": 73,
      "start": 224.76390625000022,
      "velocity": 79
    },
    {
      "duration": 0.40000000000009095,
      "end": 225.87109375,
      "pitch": 73,
      "start": 225.4710937499999,
      "velocity": 74
    },
    {
      "duration": 0.3840104166670244,
      "end": 225.8691145833336,
      "pitch": 69,
      "start": 225.4851041666666,
      "velocity": 65
    },
    {
      "duration": 0.1508854166668243,
      "end": 225.94203125000013,
      "pitch": 75,
      "start": 225.7911458333333,
      "velocity": 83
    },
    {
      "duration": 1.845260416666406,
      "end": 227.71437500000002,
      "pitch": 69,
      "start": 225.8691145833336,
      "velocity": 67
    },
    {
      "duration": 1.8719791666667334,
      "end": 227.74307291666673,
      "pitch": 73,
      "start": 225.87109375,
      "velocity": 84
    },
    {
      "duration": 1.816666666666606,
      "end": 227.70171875000005,
      "pitch": 40,
      "start": 225.88505208333345,
      "velocity": 56
    },
    {
      "duration": 0.27760416666660603,
      "end": 226.52713541666662,
      "pitch": 71,
      "start": 226.24953125000002,
      "velocity": 75
    },
    {
      "duration": 0.2863020833333394,
      "end": 226.53744791666668,
      "pitch": 68,
      "start": 226.25114583333334,
      "velocity": 70
    },
    {
      "duration": 0.8799479166668789,
      "end": 227.4070833333335,
      "pitch": 71,
      "start": 226.52713541666662,
      "velocity": 66
    },
    {
      "duration": 1.2056250000000546,
      "end": 227.74307291666673,
      "pitch": 68,
      "start": 226.53744791666668,
      "velocity": 83
    },
    {
      "duration": 0.5846875000002001,
      "end": 227.13843750000024,
      "pitch": 56,
      "start": 226.55375000000004,
      "velocity": 65
    },
    {
      "duration": 1.1879687499999818,
      "end": 227.74307291666673,
      "pitch": 47,
      "start": 226.55510416666675,
      "velocity": 57
    },
    {
      "duration": 0.6046354166664969,
      "end": 227.74307291666673,
      "pitch": 56,
      "start": 227.13843750000024,
      "velocity": 68
    },
    {
      "duration": 0.6036979166665333,
      "end": 227.74307291666673,
      "pitch": 64,
      "start": 227.1393750000002,
      "velocity": 74
    },
    {
      "duration": 0.30395833333341216,
      "end": 227.71104166666692,
      "pitch": 71,
      "start": 227.4070833333335,
      "velocity": 59
    },
    {
      "duration": 0.3346354166665151,
      "end": 227.74307291666673,
      "pitch": 67,
      "start": 227.40843750000022,
      "velocity": 76
    },
    {
      "duration": 0.32197916666655146,
      "end": 227.74307291666673,
      "pitch": 70,
      "start": 227.42109375000018,
      "velocity": 39
    },
    {
      "duration": 0.7826562499999454,
      "end": 228.484375,
      "pitch": 40,
      "start": 227.70171875000005,
      "velocity": 66
    },
    {
      "duration": 0.14624999999978172,
      "end": 227.8499999999999,
      "pitch": 66,
      "start": 227.70375000000013,
      "velocity": 74
    },
    {
      "duration": 0.27380208333306655,
      "end": 227.98484374999998,
      "pitch": 71,
      "start": 227.71104166666692,
      "velocity": 39
    },
    {
      "duration": 0.14984374999994543,
      "end": 227.86421874999996,
      "pitch": 69,
      "start": 227.71437500000002,
      "velocity": 73
    },
    {
      "duration": 0.5068229166668061,
      "end": 228.484375,
      "pitch": 68,
      "start": 227.9775520833332,
      "velocity": 80
    },
    {
      "duration": 0.43354166666676974,
      "end": 228.41838541666675,
      "pitch": 71,
      "start": 227.98484374999998,
      "velocity": 39
    },
    {
      "duration": 0.49604166666676974,
      "end": 228.484375,
      "pitch": 64,
      "start": 227.98833333333323,
      "velocity": 67
    },
    {
      "duration": 0.5939583333333758,
      "end": 229.00505208333334,
      "pitch": 63,
      "start": 228.41109374999996,
      "velocity": 77
    },
    {
      "duration": 1.3419791666665333,
      "end": 229.76036458333328,
      "pitch": 71,
      "start": 228.41838541666675,
      "velocity": 73
    },
    {
      "duration": 1.4953645833334122,
      "end": 229.91708333333327,
      "pitch": 47,
      "start": 228.42171874999985,
      "velocity": 57
    },
    {
      "duration": 1.4860416666665515,
      "end": 229.91708333333327,
      "pitch": 66,
      "start": 228.43104166666672,
      "velocity": 68
    },
    {
      "duration": 0.6206250000000182,
      "end": 229.05505208333352,
      "pitch": 57,
      "start": 228.4344270833335,
      "velocity": 56
    },
    {
      "duration": 0.9120312499999272,
      "end": 229.91708333333327,
      "pitch": 63,
      "start": 229.00505208333334,
      "velocity": 56
    },
    {
      "duration": 0.8620312499997453,
      "end": 229.91708333333327,
      "pitch": 57,
      "start": 229.05505208333352,
      "velocity": 38
    },
    {
      "duration": 0.5161979166664423,
      "end": 229.83369791666655,
      "pitch": 61,
      "start": 229.3175000000001,
      "velocity": 79
    },
    {
      "duration": 0.5162499999996726,
      "end": 229.83463541666652,
      "pitch": 69,
      "start": 229.31838541666684,
      "velocity": 75
    },
    {
      "duration": 0.1567187499999818,
      "end": 229.91708333333327,
      "pitch": 71,
      "start": 229.76036458333328,
      "velocity": 39
    },
    {
      "duration": 0.6122395833335759,
      "end": 230.44593750000013,
      "pitch": 61,
      "start": 229.83369791666655,
      "velocity": 81
    },
    {
      "duration": 0.6016666666669153,
      "end": 230.43630208333343,
      "pitch": 69,
      "start": 229.83463541666652,
      "velocity": 74
    },
    {
      "duration": 0.5672916666667334,
      "end": 230.44500000000016,
      "pitch": 40,
      "start": 229.87770833333343,
      "velocity": 73
    },
    {
      "duration": 1.9467187499999454,
      "end": 232.38302083333338,
      "pitch": 69,
      "start": 230.43630208333343,
      "velocity": 66
    },
    {
      "duration": 1.8753645833330665,
      "end": 232.32036458333323,
      "pitch": 40,
      "start": 230.44500000000016,
      "velocity": 68
    },
    {
      "duration": 1.9370833333332484,
      "end": 232.38302083333338,
      "pitch": 61,
      "start": 230.44593750000013,
      "velocity": 54
    },
    {
      "duration": 0.2933333333335213,
      "end": 231.0656770833334,
      "pitch": 68,
      "start": 230.7723437499999,
      "velocity": 74
    },
    {
      "duration": 0.2900520833331939,
      "end": 231.07437500000015,
      "pitch": 59,
      "start": 230.78432291666695,
      "velocity": 53
    },
    {
      "duration": 0.5596354166664241,
      "end": 231.62130208333338,
      "pitch": 56,
      "start": 231.06166666666695,
      "velocity": 59
    },
    {
      "duration": 1.3173437499999636,
      "end": 232.38302083333338,
      "pitch": 68,
      "start": 231.0656770833334,
      "velocity": 86
    },
    {
      "duration": 1.3086458333332303,
      "end": 232.38302083333338,
      "pitch": 59,
      "start": 231.07437500000015,
      "velocity": 69
    },
    {
      "duration": 1.3014062500001273,
      "end": 232.38302083333338,
      "pitch": 47,
      "start": 231.08161458333325,
      "velocity": 47
    },
    {
      "duration": 0.76171875,
      "end": 232.38302083333338,
      "pitch": 56,
      "start": 231.62130208333338,
      "velocity": 44
    },
    {
      "duration": 0.7506770833333576,
      "end": 232.38302083333338,
      "pitch": 64,
      "start": 231.63234375000002,
      "velocity": 39
    },
    {
      "duration": 0.4427604166667152,
      "end": 232.38302083333338,
      "pitch": 58,
      "start": 231.94026041666666,
      "velocity": 76
    },
    {
      "duration": 0.43937499999992724,
      "end": 232.38302083333338,
      "pitch": 67,
      "start": 231.94364583333345,
      "velocity": 74
    },
    {
      "duration": 0.27708333333339397,
      "end": 232.3414062500001,
      "pitch": 66,
      "start": 232.0643229166667,
      "velocity": 40
    },
    {
      "duration": 2.819895833333703,
      "end": 235.14026041666693,
      "pitch": 40,
      "start": 232.32036458333323,
      "velocity": 64
    },
    {
      "duration": 2.8095312499999636,
      "end": 235.15093750000005,
      "pitch": 66,
      "start": 232.3414062500001,
      "velocity": 75
    },
    {
      "duration": 1.560677083333303,
      "end": 233.93098958333348,
      "pitch": 57,
      "start": 232.37031250000018,
      "velocity": 63
    },
    {
      "duration": 2.446614583333485,
      "end": 235.15093750000005,
      "pitch": 56,
      "start": 232.70432291666657,
      "velocity": 74
    },
    {
      "duration": 2.4413020833335395,
      "end": 235.15093750000005,
      "pitch": 64,
      "start": 232.70963541666652,
      "velocity": 83
    },
    {
      "duration": 1.2340104166664787,
      "end": 235.15093750000005,
      "pitch": 47,
      "start": 233.91692708333358,
      "velocity": 45
    },
    {
      "duration": 0.5885937499997453,
      "end": 234.51958333333323,
      "pitch": 57,
      "start": 233.93098958333348,
      "velocity": 56
    },
    {
      "duration": 1.2146874999998545,
      "end": 235.15093750000005,
      "pitch": 54,
      "start": 233.9362500000002,
      "velocity": 38
    },
    {
      "duration": 0.5416666666665151,
      "end": 234.4789062499999,
      "pitch": 63,
      "start": 233.9372395833334,
      "velocity": 79
    },
    {
      "duration": 0.6720312500001455,
      "end": 235.15093750000005,
      "pitch": 63,
      "start": 234.4789062499999,
      "velocity": 74
    },
    {
      "duration": 0.6313541666668243,
      "end": 235.15093750000005,
      "pitch": 57,
      "start": 234.51958333333323,
      "velocity": 57
    },
    {
      "duration": 0.33989583333323026,
      "end": 235.11348958333338,
      "pitch": 61,
      "start": 234.77359375000015,
      "velocity": 71
    },
    {
      "duration": 0.32979166666655146,
      "end": 235.10432291666666,
      "pitch": 69,
      "start": 234.7745312500001,
      "velocity": 74
    },
    {
      "duration": 1.9427083333330302,
      "end": 237.0470312499997,
      "pitch": 69,
      "start": 235.10432291666666,
      "velocity": 64
    },
    {
      "duration": 0.32703124999989086,
      "end": 235.44052083333327,
      "pitch": 61,
      "start": 235.11348958333338,
      "velocity": 59
    },
    {
      "duration": 0.13854166666669698,
      "end": 235.27140624999993,
      "pitch": 38,
      "start": 235.13286458333323,
      "velocity": 36
    },
    {
      "duration": 1.841302083332721,
      "end": 236.98156249999965,
      "pitch": 40,
      "start": 235.14026041666693,
      "velocity": 36
    },
    {
      "duration": 0.3236458333335577,
      "end": 235.76953125000045,
      "pitch": 68,
      "start": 235.4458854166669,
      "velocity": 75
    },
    {
      "duration": 0.33406250000007276,
      "end": 235.7889062500003,
      "pitch": 59,
      "start": 235.45484375000024,
      "velocity": 46
    },
    {
      "duration": 1.277499999999236,
      "end": 237.0470312499997,
      "pitch": 68,
      "start": 235.76953125000045,
      "velocity": 68
    },
    {
      "duration": 0.5959895833329938,
      "end": 236.36687500000016,
      "pitch": 56,
      "start": 235.77088541666717,
      "velocity": 60
    },
    {
      "duration": 1.2654687499998545,
      "end": 237.0470312499997,
      "pitch": 47,
      "start": 235.78156249999984,
      "velocity": 46
    },
    {
      "duration": 0.8499479166666788,
      "end": 236.638854166667,
      "pitch": 59,
      "start": 235.7889062500003,
      "velocity": 57
    },
    {
      "duration": 0.6854687499999272,
      "end": 237.0470312499997,
      "pitch": 64,
      "start": 236.36156249999976,
      "velocity": 55
    },
    {
      "duration": 0.2627083333336486,
      "end": 236.6295833333338,
      "pitch": 56,
      "start": 236.36687500000016,
      "velocity": 59
    },
    {
      "duration": 0.41744791666587844,
      "end": 237.0470312499997,
      "pitch": 56,
      "start": 236.6295833333338,
      "velocity": 43
    },
    {
      "duration": 0.19338541666638775,
      "end": 236.83223958333338,
      "pitch": 59,
      "start": 236.638854166667,
      "velocity": 73
    },
    {
      "duration": 0.214791666666315,
      "end": 237.0470312499997,
      "pitch": 59,
      "start": 236.83223958333338,
      "velocity": 63
    },
    {
      "duration": 0.13552083333252085,
      "end": 237.06911458333298,
      "pitch": 63,
      "start": 236.93359375000045,
      "velocity": 81
    },
    {
      "duration": 1.2213541666669698,
      "end": 238.20291666666662,
      "pitch": 40,
      "start": 236.98156249999965,
      "velocity": 52
    },
    {
      "duration": 0.23302083333328483,
      "end": 237.22380208333334,
      "pitch": 61,
      "start": 236.99078125000005,
      "velocity": 77
    },
    {
      "duration": 1.0419791666663514,
      "end": 238.06619791666662,
      "pitch": 57,
      "start": 237.02421875000027,
      "velocity": 54
    },
    {
      "duration": 0.8586979166666424,
      "end": 238.20291666666662,
      "pitch": 59,
      "start": 237.34421874999998,
      "velocity": 72
    },
    {
      "duration": 0.8546875000001819,
      "end": 238.20291666666662,
      "pitch": 56,
      "start": 237.34822916666644,
      "velocity": 70
    },
    {
      "duration": 1.6090104166669335,
      "end": 239.666197916667,
      "pitch": 54,
      "start": 238.05718750000005,
      "velocity": 73
    },
    {
      "duration": 1.1592708333337214,
      "end": 239.22546875000035,
      "pitch": 57,
      "start": 238.06619791666662,
      "velocity": 76
    },
    {
      "duration": 0.7996875000008004,
      "end": 238.86921875000053,
      "pitch": 51,
      "start": 238.06953124999973,
      "velocity": 49
    },
    {
      "duration": 1.5946874999999636,
      "end": 239.666197916667,
      "pitch": 47,
      "start": 238.07151041666702,
      "velocity": 35
    },
    {
      "duration": 0.8053645833333576,
      "end": 239.666197916667,
      "pitch": 59,
      "start": 238.86083333333363,
      "velocity": 77
    },
    {
      "duration": 0.7969791666664605,
      "end": 239.666197916667,
      "pitch": 51,
      "start": 238.86921875000053,
      "velocity": 54
    },
    {
      "duration": 0.3680729166662786,
      "end": 239.58083333333298,
      "pitch": 66,
      "start": 239.2127604166667,
      "velocity": 81
    },
    {
      "duration": 0.3872916666659876,
      "end": 239.61276041666633,
      "pitch": 57,
      "start": 239.22546875000035,
      "velocity": 64
    }
  ],
  [
    {
      "duration": 0.9580729166664241,
      "end": 240.53552083333352,
      "pitch": 40,
      "start": 239.5774479166671,
      "velocity": 57
    },
    {
      "duration": 0.9546875000005457,
      "end": 240.53552083333352,
      "pitch": 66,
      "start": 239.58083333333298,
      "velocity": 81
    },
    {
      "duration": 0.25447916666689707,
      "end": 239.86723958333323,
      "pitch": 57,
      "start": 239.61276041666633,
      "velocity": 45
    },
    {
      "duration": 0.5046874999998181,
      "end": 240.44484375000002,
      "pitch": 64,
      "start": 239.9401562500002,
      "velocity": 74
    },
    {
      "duration": 0.4853124999999636,
      "end": 240.44281249999995,
      "pitch": 56,
      "start": 239.95749999999998,
      "velocity": 36
    },
    {
      "duration": 1.171927083333685,
      "end": 241.61473958333363,
      "pitch": 56,
      "start": 240.44281249999995,
      "velocity": 73
    },
    {
      "duration": 1.6712500000003274,
      "end": 242.11609375000035,
      "pitch": 64,
      "start": 240.44484375000002,
      "velocity": 57
    },
    {
      "duration": 1.6500000000005457,
      "end": 242.11609375000035,
      "pitch": 47,
      "start": 240.4660937499998,
      "velocity": 36
    },
    {
      "duration": 0.8053124999996726,
      "end": 241.28942708333352,
      "pitch": 52,
      "start": 240.48411458333385,
      "velocity": 36
    },
    {
      "duration": 0.3306250000005093,
      "end": 241.61609375000035,
      "pitch": 59,
      "start": 241.28546874999984,
      "velocity": 33
    },
    {
      "duration": 0.8266666666668243,
      "end": 242.11609375000035,
      "pitch": 52,
      "start": 241.28942708333352,
      "velocity": 15
    },
    {
      "duration": 0.5013541666667152,
      "end": 242.11609375000035,
      "pitch": 56,
      "start": 241.61473958333363,
      "velocity": 44
    },
    {
      "duration": 0.23109374999967258,
      "end": 241.84718750000002,
      "pitch": 59,
      "start": 241.61609375000035,
      "velocity": 69
    },
    {
      "duration": 0.2689062500003274,
      "end": 242.11609375000035,
      "pitch": 59,
      "start": 241.84718750000002,
      "velocity": 56
    },
    {
      "duration": 0.1718229166672245,
      "end": 242.11609375000035,
      "pitch": 63,
      "start": 241.94427083333312,
      "velocity": 73
    },
    {
      "duration": 1.0900000000001455,
      "end": 243.1167708333337,
      "pitch": 61,
      "start": 242.02677083333356,
      "velocity": 78
    },
    {
      "duration": 5.531197916666315,
      "end": 247.5813020833334,
      "pitch": 40,
      "start": 242.0501041666671,
      "velocity": 53
    },
    {
      "duration": 1.0486979166671517,
      "end": 243.1167708333337,
      "pitch": 57,
      "start": 242.06807291666655,
      "velocity": 47
    },
    {
      "duration": 0.5684895833328483,
      "end": 242.99718749999965,
      "pitch": 59,
      "start": 242.4286979166668,
      "velocity": 63
    },
    {
      "duration": 0.5759895833334667,
      "end": 243.00671875000035,
      "pitch": 56,
      "start": 242.43072916666688,
      "velocity": 55
    },
    {
      "duration": 1.0668229166667516,
      "end": 244.0640104166664,
      "pitch": 59,
      "start": 242.99718749999965,
      "velocity": 57
    },
    {
      "duration": 1.0403645833330302,
      "end": 244.04708333333338,
      "pitch": 56,
      "start": 243.00671875000035,
      "velocity": 73
    },
    {
      "duration": 1.0529166666665333,
      "end": 244.06296874999998,
      "pitch": 47,
      "start": 243.01005208333345,
      "velocity": 56
    },
    {
      "duration": 0.17052083333328483,
      "end": 243.27703125000016,
      "pitch": 52,
      "start": 243.10651041666688,
      "velocity": 65
    },
    {
      "duration": 1.418854166667188,
      "end": 245.55088541666692,
      "pitch": 47,
      "start": 244.13203124999973,
      "velocity": 64
    },
    {
      "duration": 1.3927083333337578,
      "end": 245.52567708333345,
      "pitch": 56,
      "start": 244.1329687499997,
      "velocity": 72
    },
    {
      "duration": 3.4329166666666424,
      "end": 247.56833333333316,
      "pitch": 59,
      "start": 244.13541666666652,
      "velocity": 64
    },
    {
      "duration": 0.37161458333412156,
      "end": 245.84765625000045,
      "pitch": 57,
      "start": 245.47604166666633,
      "velocity": 60
    },
    {
      "duration": 0.34166666666624224,
      "end": 245.82953124999995,
      "pitch": 49,
      "start": 245.4878645833337,
      "velocity": 55
    },
    {
      "duration": 0.33260416666689707,
      "end": 246.1159375000002,
      "pitch": 47,
      "start": 245.7833333333333,
      "velocity": 44
    },
    {
      "duration": 0.3062499999996362,
      "end": 246.10026041666652,
      "pitch": 56,
      "start": 245.79401041666688,
      "velocity": 82
    },
    {
      "duration": 0.3415104166660967,
      "end": 246.41286458333298,
      "pitch": 49,
      "start": 246.07135416666688,
      "velocity": 59
    },
    {
      "duration": 0.3492708333333212,
      "end": 246.42156250000016,
      "pitch": 57,
      "start": 246.07229166666684,
      "velocity": 77
    },
    {
      "duration": 0.6385937499999272,
      "end": 246.98192708333363,
      "pitch": 56,
      "start": 246.3433333333337,
      "velocity": 75
    },
    {
      "duration": 0.6275520833341943,
      "end": 246.99421875000053,
      "pitch": 47,
      "start": 246.36666666666633,
      "velocity": 36
    },
    {
      "duration": 0.5749479166670426,
      "end": 247.51359375000038,
      "pitch": 49,
      "start": 246.93864583333334,
      "velocity": 53
    },
    {
      "duration": 0.5868749999999636,
      "end": 247.54156250000005,
      "pitch": 57,
      "start": 246.9546875000001,
      "velocity": 59
    },
    {
      "duration": 0.3767187499997817,
      "end": 247.88260416666662,
      "pitch": 56,
      "start": 247.50588541666684,
      "velocity": 50
    },
    {
      "duration": 0.48869791666675155,
      "end": 248.01067708333312,
      "pitch": 47,
      "start": 247.52197916666637,
      "velocity": 36
    },
    {
      "duration": 0.37546875000043656,
      "end": 248.25484375000042,
      "pitch": 68,
      "start": 247.87937499999998,
      "velocity": 53
    },
    {
      "duration": 0.36828125000010914,
      "end": 248.25088541666673,
      "pitch": 56,
      "start": 247.88260416666662,
      "velocity": 37
    },
    {
      "duration": 0.6402083333332484,
      "end": 248.78817708333327,
      "pitch": 66,
      "start": 248.14796875000002,
      "velocity": 73
    },
    {
      "duration": 0.6081249999997453,
      "end": 248.76473958333327,
      "pitch": 54,
      "start": 248.15661458333352,
      "velocity": 52
    },
    {
      "duration": 0.5567708333328483,
      "end": 249.23942708333334,
      "pitch": 64,
      "start": 248.6826562500005,
      "velocity": 61
    },
    {
      "duration": 0.5955208333334667,
      "end": 249.29078125000024,
      "pitch": 52,
      "start": 248.69526041666677,
      "velocity": 37
    },
    {
      "duration": 0.4342187499996726,
      "end": 249.62546874999998,
      "pitch": 61,
      "start": 249.1912500000003,
      "velocity": 65
    },
    {
      "duration": 0.39354166666726087,
      "end": 249.59348958333385,
      "pitch": 49,
      "start": 249.1999479166666,
      "velocity": 56
    },
    {
      "duration": 0.09421874999952706,
      "end": 249.69614583333305,
      "pitch": 51,
      "start": 249.60192708333352,
      "velocity": 32
    },
    {
      "duration": 0.11072916666671517,
      "end": 249.7146875000003,
      "pitch": 63,
      "start": 249.6039583333336,
      "velocity": 59
    },
    {
      "duration": 1.227083333333212,
      "end": 250.94083333333356,
      "pitch": 47,
      "start": 249.71375000000035,
      "velocity": 69
    },
    {
      "duration": 1.160937499999818,
      "end": 250.88020833333348,
      "pitch": 59,
      "start": 249.71927083333367,
      "velocity": 70
    },
    {
      "duration": 0.47598958333310293,
      "end": 250.73057291666692,
      "pitch": 35,
      "start": 250.2545833333338,
      "velocity": 60
    },
    {
      "duration": 0.47062499999992724,
      "end": 250.73057291666692,
      "pitch": 69,
      "start": 250.259947916667,
      "velocity": 71
    },
    {
      "duration": 0.4532812500001455,
      "end": 250.73057291666692,
      "pitch": 63,
      "start": 250.27729166666677,
      "velocity": 57
    },
    {
      "duration": 0.4013541666663514,
      "end": 251.21057291666648,
      "pitch": 68,
      "start": 250.80921875000013,
      "velocity": 52
    },
    {
      "duration": 0.09614583333313931,
      "end": 250.91739583333356,
      "pitch": 40,
      "start": 250.82125000000042,
      "velocity": 54
    },
    {
      "duration": 0.07999999999992724,
      "end": 250.9158854166667,
      "pitch": 64,
      "start": 250.83588541666677,
      "velocity": 38
    },
    {
      "duration": 0.4397395833329938,
      "end": 251.64499999999998,
      "pitch": 80,
      "start": 251.205260416667,
      "velocity": 59
    },
    {
      "duration": 0.41072916666689707,
      "end": 251.62130208333338,
      "pitch": 68,
      "start": 251.21057291666648,
      "velocity": 58
    },
    {
      "duration": 0.5795312499994907,
      "end": 252.07479166666644,
      "pitch": 66,
      "start": 251.49526041666695,
      "velocity": 64
    },
    {
      "duration": 0.6362500000004729,
      "end": 252.1334895833338,
      "pitch": 78,
      "start": 251.49723958333334,
      "velocity": 81
    },
    {
      "duration": 0.8841666666667152,
      "end": 252.89473958333338,
      "pitch": 64,
      "start": 252.01057291666666,
      "velocity": 72
    },
    {
      "duration": 0.5548437500001455,
      "end": 252.57807291666677,
      "pitch": 76,
      "start": 252.02322916666662,
      "velocity": 80
    },
    {
      "duration": 0.43416666666689707,
      "end": 252.95869791666655,
      "pitch": 73,
      "start": 252.52453124999965,
      "velocity": 83
    },
    {
      "duration": 0.3681770833336486,
      "end": 252.90671874999998,
      "pitch": 61,
      "start": 252.53854166666633,
      "velocity": 67
    },
    {
      "duration": 0.19083333333310293,
      "end": 253.08140624999987,
      "pitch": 63,
      "start": 252.89057291666677,
      "velocity": 68
    },
    {
      "duration": 0.12593749999996362,
      "end": 253.0258333333336,
      "pitch": 75,
      "start": 252.89989583333363,
      "velocity": 80
    },
    {
      "duration": 1.811614583332812,
      "end": 254.81281249999984,
      "pitch": 71,
      "start": 253.00119791666702,
      "velocity": 88
    },
    {
      "duration": 1.7363020833336122,
      "end": 254.77083333333348,
      "pitch": 59,
      "start": 253.03453124999987,
      "velocity": 69
    },
    {
      "duration": 0.5527083333336122,
      "end": 254.095885416667,
      "pitch": 81,
      "start": 253.54317708333338,
      "velocity": 80
    },
    {
      "duration": 0.5493229166668243,
      "end": 254.095885416667,
      "pitch": 75,
      "start": 253.54656250000016,
      "velocity": 73
    },
    {
      "duration": 0.5366666666668607,
      "end": 254.095885416667,
      "pitch": 47,
      "start": 253.55921875000013,
      "velocity": 57
    },
    {
      "duration": 0.08348958333317569,
      "end": 254.2367187499999,
      "pitch": 52,
      "start": 254.15322916666673,
      "velocity": 56
    },
    {
      "duration": 0.6109374999996362,
      "end": 254.77083333333348,
      "pitch": 80,
      "start": 254.15989583333385,
      "velocity": 65
    },
    {
      "duration": 0.5905208333333576,
      "end": 254.76989583333352,
      "pitch": 76,
      "start": 254.17937500000016,
      "velocity": 56
    },
    {
      "duration": 0.38093750000007276,
      "end": 254.85750000000053,
      "pitch": 63,
      "start": 254.47656250000045,
      "velocity": 44
    },
    {
      "duration": 0.3881250000004002,
      "end": 254.87338541666713,
      "pitch": 75,
      "start": 254.48526041666673,
      "velocity": 74
    },
    {
      "duration": 0.7221874999995634,
      "end": 255.49208333333308,
      "pitch": 76,
      "start": 254.76989583333352,
      "velocity": 82
    },
    {
      "duration": 0.6488020833330665,
      "end": 255.42937500000016,
      "pitch": 64,
      "start": 254.7805729166671,
      "velocity": 60
    },
    {
      "duration": 0.8655208333339033,
      "end": 256.18140625000024,
      "pitch": 80,
      "start": 255.31588541666633,
      "velocity": 72
    },
    {
      "duration": 0.5494270833332848,
      "end": 255.88666666666677,
      "pitch": 68,
      "start": 255.33723958333348,
      "velocity": 59
    },
    {
      "duration": 0.37869791666707897,
      "end": 256.2438020833338,
      "pitch": 78,
      "start": 255.8651041666667,
      "velocity": 73
    },
    {
      "duration": 0.25739583333415794,
      "end": 256.1279687500005,
      "pitch": 66,
      "start": 255.87057291666633,
      "velocity": 54
    },
    {
      "duration": 0.32213541666715173,
      "end": 256.4446354166671,
      "pitch": 64,
      "start": 256.12249999999995,
      "velocity": 67
    },
    {
      "duration": 0.30838541666707897,
      "end": 256.431822916667,
      "pitch": 76,
      "start": 256.1234374999999,
      "velocity": 81
    },
    {
      "duration": 0.7327083333339033,
      "end": 257.1218750000003,
      "pitch": 73,
      "start": 256.38916666666637,
      "velocity": 88
    },
    {
      "duration": 0.7254687499998909,
      "end": 257.1218750000003,
      "pitch": 61,
      "start": 256.3964062500004,
      "velocity": 65
    },
    {
      "duration": 0.4781250000005457,
      "end": 257.1218750000003,
      "pitch": 63,
      "start": 256.6437499999997,
      "velocity": 76
    },
    {
      "duration": 0.4713020833332848,
      "end": 257.1218750000003,
      "pitch": 75,
      "start": 256.650572916667,
      "velocity": 89
    },
    {
      "duration": 0.9635937499997453,
      "end": 257.973125,
      "pitch": 54,
      "start": 257.00953125000024,
      "velocity": 61
    },
    {
      "duration": 1.1381770833331757,
      "end": 258.1726562500003,
      "pitch": 70,
      "start": 257.0344791666671,
      "velocity": 81
    },
    {
      "duration": 0.933333333333394,
      "end": 257.973125,
      "pitch": 64,
      "start": 257.0397916666666,
      "velocity": 82
    },
    {
      "duration": 0.2506770833333576,
      "end": 257.973125,
      "pitch": 47,
      "start": 257.7224479166666,
      "velocity": 35
    },
    {
      "duration": 0.5883333333331393,
      "end": 258.54546875000005,
      "pitch": 63,
      "start": 257.9571354166669,
      "velocity": 30
    },
    {
      "duration": 0.554374999999709,
      "end": 258.53708333333316,
      "pitch": 71,
      "start": 257.98270833333345,
      "velocity": 54
    },
    {
      "duration": 1.097343749999709,
      "end": 259.6304166666664,
      "pitch": 47,
      "start": 258.5330729166667,
      "velocity": 36
    },
    {
      "duration": 1.0933333333332484,
      "end": 259.6304166666664,
      "pitch": 71,
      "start": 258.53708333333316,
      "velocity": 39
    },
    {
      "duration": 1.0740104166661695,
      "end": 259.6304166666664,
      "pitch": 63,
      "start": 258.55640625000024,
      "velocity": 35
    },
    {
      "duration": 0.8306249999995998,
      "end": 260.5163541666666,
      "pitch": 63,
      "start": 259.685729166667,
      "velocity": 38
    },
    {
      "duration": 0.8140625000005457,
      "end": 260.50307291666695,
      "pitch": 71,
      "start": 259.6890104166664,
      "velocity": 58
    }
  ],
  [
    {
      "duration": 0.8218749999996362,
      "end": 260.5210937500001,
      "pitch": 47,
      "start": 259.69921875000045,
      "velocity": 33
    },
    {
      "duration": 4.110520833332885,
      "end": 264.61359374999984,
      "pitch": 71,
      "start": 260.50307291666695,
      "velocity": 73
    },
    {
      "duration": 4.098177083333212,
      "end": 264.61359374999984,
      "pitch": 35,
      "start": 260.5154166666666,
      "velocity": 59
    },
    {
      "duration": 4.0972395833332484,
      "end": 264.61359374999984,
      "pitch": 63,
      "start": 260.5163541666666,
      "velocity": 74
    },
    {
      "duration": 0.7808333333332484,
      "end": 267.5500520833334,
      "pitch": 66,
      "start": 266.76921875000016,
      "velocity": 84
    },
    {
      "duration": 0.5708333333332121,
      "end": 269.22802083333363,
      "pitch": 38,
      "start": 268.6571875000004,
      "velocity": 32
    },
    {
      "duration": 0.6668229166662059,
      "end": 269.35067708333327,
      "pitch": 50,
      "start": 268.68385416666706,
      "velocity": 45
    },
    {
      "duration": 0.5849479166663514,
      "end": 269.7687499999997,
      "pitch": 49,
      "start": 269.1838020833334,
      "velocity": 54
    },
    {
      "duration": 0.4694791666670426,
      "end": 269.6566145833335,
      "pitch": 37,
      "start": 269.1871354166665,
      "velocity": 36
    },
    {
      "duration": 0.4821874999997817,
      "end": 270.0833333333335,
      "pitch": 54,
      "start": 269.6011458333337,
      "velocity": 38
    },
    {
      "duration": 0.37864583333339397,
      "end": 270.0191145833337,
      "pitch": 42,
      "start": 269.6404687500003,
      "velocity": 39
    },
    {
      "duration": 0.851302083333394,
      "end": 270.8511458333337,
      "pitch": 41,
      "start": 269.9998437500003,
      "velocity": 37
    },
    {
      "duration": 0.8854687499997453,
      "end": 270.8866145833331,
      "pitch": 53,
      "start": 270.00114583333334,
      "velocity": 45
    },
    {
      "duration": 0.6048437500003274,
      "end": 272.42463541666666,
      "pitch": 50,
      "start": 271.81979166666633,
      "velocity": 39
    },
    {
      "duration": 0.5208333333339397,
      "end": 272.35328125000024,
      "pitch": 38,
      "start": 271.8324479166663,
      "velocity": 33
    },
    {
      "duration": 0.45885416666715173,
      "end": 272.7232812500001,
      "pitch": 49,
      "start": 272.264427083333,
      "velocity": 57
    },
    {
      "duration": 0.3841666666667152,
      "end": 272.67192708333323,
      "pitch": 37,
      "start": 272.2877604166665,
      "velocity": 41
    },
    {
      "duration": 0.5515104166661331,
      "end": 273.1999479166666,
      "pitch": 45,
      "start": 272.64843750000045,
      "velocity": 36
    },
    {
      "duration": 0.46119791666660603,
      "end": 273.110572916667,
      "pitch": 57,
      "start": 272.6493750000004,
      "velocity": 55
    },
    {
      "duration": 1.0023958333331393,
      "end": 274.09682291666695,
      "pitch": 56,
      "start": 273.0944270833338,
      "velocity": 48
    },
    {
      "duration": 0.9791145833332848,
      "end": 274.09682291666695,
      "pitch": 44,
      "start": 273.11770833333367,
      "velocity": 31
    },
    {
      "duration": 0.3786979166661695,
      "end": 275.73968749999995,
      "pitch": 50,
      "start": 275.3609895833338,
      "velocity": 39
    },
    {
      "duration": 0.34427083333321207,
      "end": 275.7306770833334,
      "pitch": 38,
      "start": 275.38640625000016,
      "velocity": 27
    },
    {
      "duration": 0.6883854166662786,
      "end": 276.41906249999965,
      "pitch": 38,
      "start": 275.7306770833334,
      "velocity": 34
    },
    {
      "duration": 0.679374999999709,
      "end": 276.41906249999965,
      "pitch": 50,
      "start": 275.73968749999995,
      "velocity": 41
    },
    {
      "duration": 0.21135416666675155,
      "end": 276.2163541666664,
      "pitch": 49,
      "start": 276.00499999999965,
      "velocity": 41
    },
    {
      "duration": 0.20802083333364862,
      "end": 276.2323437500004,
      "pitch": 37,
      "start": 276.02432291666673,
      "velocity": 31
    },
    {
      "duration": 0.2595833333334667,
      "end": 276.4759374999999,
      "pitch": 49,
      "start": 276.2163541666664,
      "velocity": 38
    },
    {
      "duration": 0.24015624999992724,
      "end": 276.4725000000003,
      "pitch": 37,
      "start": 276.2323437500004,
      "velocity": 53
    },
    {
      "duration": 0.3061979166668607,
      "end": 276.77651041666695,
      "pitch": 54,
      "start": 276.4703125000001,
      "velocity": 47
    },
    {
      "duration": 0.32682291666696983,
      "end": 276.8065104166667,
      "pitch": 42,
      "start": 276.4796874999997,
      "velocity": 35
    },
    {
      "duration": 0.7340625000006185,
      "end": 277.48572916666717,
      "pitch": 41,
      "start": 276.75166666666655,
      "velocity": 30
    },
    {
      "duration": 0.7273958333335031,
      "end": 277.48572916666717,
      "pitch": 53,
      "start": 276.75833333333367,
      "velocity": 45
    },
    {
      "duration": 0.3374479166668607,
      "end": 278.7102604166671,
      "pitch": 38,
      "start": 278.37281250000024,
      "velocity": 30
    },
    {
      "duration": 0.3453645833333212,
      "end": 278.71963541666673,
      "pitch": 50,
      "start": 278.3742708333334,
      "velocity": 35
    },
    {
      "duration": 0.9173437499994179,
      "end": 279.6276041666665,
      "pitch": 38,
      "start": 278.7102604166671,
      "velocity": 20
    },
    {
      "duration": 0.9079687499997817,
      "end": 279.6276041666665,
      "pitch": 50,
      "start": 278.71963541666673,
      "velocity": 26
    },
    {
      "duration": 0.2006770833331757,
      "end": 279.2029687500003,
      "pitch": 49,
      "start": 279.00229166666713,
      "velocity": 42
    },
    {
      "duration": 0.21963541666627862,
      "end": 279.2325520833333,
      "pitch": 37,
      "start": 279.012916666667,
      "velocity": 34
    },
    {
      "duration": 0.42463541666620586,
      "end": 279.6276041666665,
      "pitch": 49,
      "start": 279.2029687500003,
      "velocity": 31
    },
    {
      "duration": 0.39505208333321207,
      "end": 279.6276041666665,
      "pitch": 37,
      "start": 279.2325520833333,
      "velocity": 41
    },
    {
      "duration": 0.3576041666665333,
      "end": 279.84317708333356,
      "pitch": 45,
      "start": 279.485572916667,
      "velocity": 38
    },
    {
      "duration": 0.33223958333292103,
      "end": 279.81979166666633,
      "pitch": 57,
      "start": 279.4875520833334,
      "velocity": 39
    },
    {
      "duration": 0.7840624999998909,
      "end": 280.6056770833334,
      "pitch": 44,
      "start": 279.8216145833335,
      "velocity": 32
    },
    {
      "duration": 0.7767187500003274,
      "end": 280.6056770833334,
      "pitch": 56,
      "start": 279.82895833333305,
      "velocity": 38
    },
    {
      "duration": 0.5172916666660967,
      "end": 281.70421874999965,
      "pitch": 62,
      "start": 281.18692708333356,
      "velocity": 48
    },
    {
      "duration": 0.9280208333339033,
      "end": 282.12890625000045,
      "pitch": 50,
      "start": 281.20088541666655,
      "velocity": 28
    },
    {
      "duration": 0.5240104166668971,
      "end": 281.72885416666713,
      "pitch": 38,
      "start": 281.20484375000024,
      "velocity": 37
    },
    {
      "duration": 0.42468750000080036,
      "end": 282.12890625000045,
      "pitch": 62,
      "start": 281.70421874999965,
      "velocity": 37
    },
    {
      "duration": 0.4000520833333212,
      "end": 282.12890625000045,
      "pitch": 38,
      "start": 281.72885416666713,
      "velocity": 25
    },
    {
      "duration": 0.1922395833335031,
      "end": 282.2571354166671,
      "pitch": 61,
      "start": 282.0648958333336,
      "velocity": 55
    },
    {
      "duration": 0.17796874999930878,
      "end": 282.2535416666665,
      "pitch": 49,
      "start": 282.07557291666717,
      "velocity": 33
    },
    {
      "duration": 0.2453125000001819,
      "end": 282.3355208333337,
      "pitch": 37,
      "start": 282.0902083333335,
      "velocity": 33
    },
    {
      "duration": 0.5760416666662422,
      "end": 282.91156249999995,
      "pitch": 37,
      "start": 282.3355208333337,
      "velocity": 24
    },
    {
      "duration": 0.562239583333394,
      "end": 282.91156249999995,
      "pitch": 61,
      "start": 282.34932291666655,
      "velocity": 56
    },
    {
      "duration": 0.5586979166664605,
      "end": 282.91156249999995,
      "pitch": 49,
      "start": 282.3528645833335,
      "velocity": 50
    },
    {
      "duration": 0.23802083333339397,
      "end": 282.8508854166671,
      "pitch": 42,
      "start": 282.6128645833337,
      "velocity": 49
    },
    {
      "duration": 0.23026041666707897,
      "end": 282.85182291666706,
      "pitch": 66,
      "start": 282.6215625,
      "velocity": 67
    },
    {
      "duration": 0.2156249999998181,
      "end": 282.8528645833335,
      "pitch": 54,
      "start": 282.63723958333367,
      "velocity": 40
    },
    {
      "duration": 0.8619791666660603,
      "end": 283.71286458333316,
      "pitch": 42,
      "start": 282.8508854166671,
      "velocity": 54
    },
    {
      "duration": 0.8610416666660967,
      "end": 283.71286458333316,
      "pitch": 66,
      "start": 282.85182291666706,
      "velocity": 67
    },
    {
      "duration": 0.14562500000010914,
      "end": 282.9984895833336,
      "pitch": 54,
      "start": 282.8528645833335,
      "velocity": 43
    },
    {
      "duration": 0.1773437500005457,
      "end": 283.2702083333338,
      "pitch": 41,
      "start": 283.09286458333327,
      "velocity": 59
    },
    {
      "duration": 0.17999999999938154,
      "end": 283.27953124999976,
      "pitch": 53,
      "start": 283.0995312500004,
      "velocity": 39
    },
    {
      "duration": 0.17203125000014552,
      "end": 283.2755208333333,
      "pitch": 65,
      "start": 283.10348958333316,
      "velocity": 44
    },
    {
      "duration": 0.44265624999934516,
      "end": 283.71286458333316,
      "pitch": 41,
      "start": 283.2702083333338,
      "velocity": 49
    },
    {
      "duration": 0.4373437499998545,
      "end": 283.71286458333316,
      "pitch": 65,
      "start": 283.2755208333333,
      "velocity": 53
    },
    {
      "duration": 0.43333333333339397,
      "end": 283.71286458333316,
      "pitch": 53,
      "start": 283.27953124999976,
      "velocity": 38
    },
    {
      "duration": 0.18635416666620586,
      "end": 283.6952083333331,
      "pitch": 38,
      "start": 283.5088541666669,
      "velocity": 62
    },
    {
      "duration": 0.18859375000010914,
      "end": 283.7007812500001,
      "pitch": 50,
      "start": 283.5121875,
      "velocity": 49
    },
    {
      "duration": 0.18802083333321207,
      "end": 283.70119791666684,
      "pitch": 62,
      "start": 283.51317708333363,
      "velocity": 64
    },
    {
      "duration": 0.9229166666673336,
      "end": 284.6181250000004,
      "pitch": 38,
      "start": 283.6952083333331,
      "velocity": 53
    },
    {
      "duration": 0.9173437500003274,
      "end": 284.6181250000004,
      "pitch": 50,
      "start": 283.7007812500001,
      "velocity": 46
    },
    {
      "duration": 0.9169270833335759,
      "end": 284.6181250000004,
      "pitch": 62,
      "start": 283.70119791666684,
      "velocity": 57
    },
    {
      "duration": 0.22062499999992724,
      "end": 284.1574999999998,
      "pitch": 61,
      "start": 283.9368749999999,
      "velocity": 73
    },
    {
      "duration": 0.15999999999985448,
      "end": 284.13083333333316,
      "pitch": 37,
      "start": 283.9708333333333,
      "velocity": 76
    },
    {
      "duration": 0.16770833333339397,
      "end": 284.13947916666666,
      "pitch": 49,
      "start": 283.97177083333327,
      "velocity": 65
    },
    {
      "duration": 0.48729166666726087,
      "end": 284.6181250000004,
      "pitch": 37,
      "start": 284.13083333333316,
      "velocity": 48
    },
    {
      "duration": 0.47864583333375776,
      "end": 284.6181250000004,
      "pitch": 49,
      "start": 284.13947916666666,
      "velocity": 38
    },
    {
      "duration": 0.46062500000061846,
      "end": 284.6181250000004,
      "pitch": 61,
      "start": 284.1574999999998,
      "velocity": 72
    },
    {
      "duration": 0.20796874999996362,
      "end": 284.5768229166665,
      "pitch": 69,
      "start": 284.36885416666655,
      "velocity": 77
    },
    {
      "duration": 0.19036458333266637,
      "end": 284.5738541666665,
      "pitch": 45,
      "start": 284.3834895833338,
      "velocity": 54
    },
    {
      "duration": 0.18661458333372138,
      "end": 284.5861458333334,
      "pitch": 57,
      "start": 284.39953124999965,
      "velocity": 35
    },
    {
      "duration": 0.8850000000002183,
      "end": 285.4588541666667,
      "pitch": 45,
      "start": 284.5738541666665,
      "velocity": 52
    },
    {
      "duration": 0.8820312500001819,
      "end": 285.4588541666667,
      "pitch": 69,
      "start": 284.5768229166665,
      "velocity": 71
    },
    {
      "duration": 0.07484374999967258,
      "end": 284.66098958333305,
      "pitch": 57,
      "start": 284.5861458333334,
      "velocity": 50
    },
    {
      "duration": 0.19338541666729725,
      "end": 284.96619791666717,
      "pitch": 44,
      "start": 284.7728124999999,
      "velocity": 77
    },
    {
      "duration": 0.20265625000047294,
      "end": 284.97682291666706,
      "pitch": 68,
      "start": 284.7741666666666,
      "velocity": 81
    },
    {
      "duration": 0.2133333333331393,
      "end": 284.9948437500002,
      "pitch": 56,
      "start": 284.78151041666706,
      "velocity": 74
    },
    {
      "duration": 0.49265624999952706,
      "end": 285.4588541666667,
      "pitch": 44,
      "start": 284.96619791666717,
      "velocity": 72
    },
    {
      "duration": 0.4820312499996362,
      "end": 285.4588541666667,
      "pitch": 68,
      "start": 284.97682291666706,
      "velocity": 77
    },
    {
      "duration": 0.4640104166664969,
      "end": 285.4588541666667,
      "pitch": 56,
      "start": 284.9948437500002,
      "velocity": 37
    },
    {
      "duration": 0.2506250000005821,
      "end": 285.44812500000035,
      "pitch": 38,
      "start": 285.19749999999976,
      "velocity": 74
    },
    {
      "duration": 0.2336979166666424,
      "end": 285.43213541666637,
      "pitch": 50,
      "start": 285.1984374999997,
      "velocity": 69
    },
    {
      "duration": 0.24546875000032742,
      "end": 285.4516145833336,
      "pitch": 62,
      "start": 285.20614583333327,
      "velocity": 80
    },
    {
      "duration": 0.24197916666616948,
      "end": 285.4491145833331,
      "pitch": 74,
      "start": 285.2071354166669,
      "velocity": 82
    },
    {
      "duration": 0.1476562500001819,
      "end": 285.57979166666655,
      "pitch": 50,
      "start": 285.43213541666637,
      "velocity": 53
    },
    {
      "duration": 0.7573958333332484,
      "end": 286.2055208333336,
      "pitch": 38,
      "start": 285.44812500000035,
      "velocity": 64
    },
    {
      "duration": 0.7564062500005093,
      "end": 286.2055208333336,
      "pitch": 74,
      "start": 285.4491145833331,
      "velocity": 74
    },
    {
      "duration": 0.12333333333299379,
      "end": 285.5749479166666,
      "pitch": 62,
      "start": 285.4516145833336,
      "velocity": 74
    }
  ],
  [
    {
      "duration": 0.16901041666642413,
      "end": 285.8394791666665,
      "pitch": 37,
      "start": 285.67046875000005,
      "velocity": 81
    },
    {
      "duration": 0.2101041666664969,
      "end": 285.8821874999999,
      "pitch": 61,
      "start": 285.6720833333334,
      "velocity": 79
    },
    {
      "duration": 0.19869791666678793,
      "end": 285.87281250000024,
      "pitch": 73,
      "start": 285.67411458333345,
      "velocity": 78
    },
    {
      "duration": 0.15130208333357587,
      "end": 285.8428125000005,
      "pitch": 49,
      "start": 285.6915104166669,
      "velocity": 43
    },
    {
      "duration": 0.36604166666711535,
      "end": 286.2055208333336,
      "pitch": 37,
      "start": 285.8394791666665,
      "velocity": 74
    },
    {
      "duration": 0.36270833333310293,
      "end": 286.2055208333336,
      "pitch": 49,
      "start": 285.8428125000005,
      "velocity": 66
    },
    {
      "duration": 0.3327083333333576,
      "end": 286.2055208333336,
      "pitch": 73,
      "start": 285.87281250000024,
      "velocity": 81
    },
    {
      "duration": 0.3233333333337214,
      "end": 286.2055208333336,
      "pitch": 61,
      "start": 285.8821874999999,
      "velocity": 30
    },
    {
      "duration": 0.15140625000003638,
      "end": 286.2055208333336,
      "pitch": 42,
      "start": 286.05411458333356,
      "velocity": 76
    },
    {
      "duration": 0.14942708333364862,
      "end": 286.2055208333336,
      "pitch": 54,
      "start": 286.05609374999995,
      "velocity": 74
    },
    {
      "duration": 0.14401041666678793,
      "end": 286.2055208333336,
      "pitch": 78,
      "start": 286.0615104166668,
      "velocity": 86
    },
    {
      "duration": 0.13869791666729725,
      "end": 286.2055208333336,
      "pitch": 66,
      "start": 286.0668229166663,
      "velocity": 68
    },
    {
      "duration": 0.7586979166671881,
      "end": 286.97682291666706,
      "pitch": 54,
      "start": 286.2181249999999,
      "velocity": 75
    },
    {
      "duration": 0.7553645833340852,
      "end": 286.97682291666706,
      "pitch": 42,
      "start": 286.221458333333,
      "velocity": 80
    },
    {
      "duration": 0.7533333333340124,
      "end": 286.97682291666706,
      "pitch": 66,
      "start": 286.22348958333305,
      "velocity": 72
    },
    {
      "duration": 0.7398958333333212,
      "end": 286.97682291666706,
      "pitch": 78,
      "start": 286.23692708333374,
      "velocity": 88
    },
    {
      "duration": 0.17994791666660603,
      "end": 286.5914583333338,
      "pitch": 53,
      "start": 286.41151041666717,
      "velocity": 82
    },
    {
      "duration": 0.18338541666707897,
      "end": 286.60015625000005,
      "pitch": 65,
      "start": 286.416770833333,
      "velocity": 76
    },
    {
      "duration": 0.17906250000032742,
      "end": 286.59682291666695,
      "pitch": 77,
      "start": 286.4177604166666,
      "velocity": 86
    },
    {
      "duration": 0.16666666666606034,
      "end": 286.5874479166664,
      "pitch": 41,
      "start": 286.42078125000035,
      "velocity": 74
    },
    {
      "duration": 0.38937500000065484,
      "end": 286.97682291666706,
      "pitch": 41,
      "start": 286.5874479166664,
      "velocity": 74
    },
    {
      "duration": 0.3853645833332848,
      "end": 286.97682291666706,
      "pitch": 53,
      "start": 286.5914583333338,
      "velocity": 77
    },
    {
      "duration": 0.38000000000010914,
      "end": 286.97682291666706,
      "pitch": 77,
      "start": 286.59682291666695,
      "velocity": 88
    },
    {
      "duration": 0.3766666666670062,
      "end": 286.97682291666706,
      "pitch": 65,
      "start": 286.60015625000005,
      "velocity": 66
    },
    {
      "duration": 0.17401041666653327,
      "end": 286.97682291666706,
      "pitch": 69,
      "start": 286.8028125000005,
      "velocity": 86
    },
    {
      "duration": 0.17307291666656965,
      "end": 286.97682291666706,
      "pitch": 81,
      "start": 286.8037500000005,
      "velocity": 90
    },
    {
      "duration": 0.15333333333364862,
      "end": 286.97010416666717,
      "pitch": 45,
      "start": 286.8167708333335,
      "velocity": 82
    },
    {
      "duration": 0.140625,
      "end": 286.9627604166667,
      "pitch": 57,
      "start": 286.8221354166667,
      "velocity": 69
    },
    {
      "duration": 0.09630208333328483,
      "end": 287.0590625,
      "pitch": 57,
      "start": 286.9627604166667,
      "velocity": 69
    },
    {
      "duration": 0.6346874999999272,
      "end": 287.6047916666671,
      "pitch": 45,
      "start": 286.97010416666717,
      "velocity": 66
    },
    {
      "duration": 0.6259895833336486,
      "end": 287.6047916666671,
      "pitch": 81,
      "start": 286.97880208333345,
      "velocity": 85
    },
    {
      "duration": 0.06427083333346673,
      "end": 287.0570312499999,
      "pitch": 69,
      "start": 286.99276041666644,
      "velocity": 45
    },
    {
      "duration": 0.17401041666653327,
      "end": 287.30744791666666,
      "pitch": 56,
      "start": 287.1334375000001,
      "velocity": 83
    },
    {
      "duration": 0.16734375000032742,
      "end": 287.30411458333356,
      "pitch": 44,
      "start": 287.13677083333323,
      "velocity": 83
    },
    {
      "duration": 0.1657291666670062,
      "end": 287.31276041666706,
      "pitch": 68,
      "start": 287.14703125000005,
      "velocity": 82
    },
    {
      "duration": 0.15562499999941792,
      "end": 287.3137499999998,
      "pitch": 80,
      "start": 287.1581250000004,
      "velocity": 75
    },
    {
      "duration": 0.3006770833335395,
      "end": 287.6047916666671,
      "pitch": 44,
      "start": 287.30411458333356,
      "velocity": 88
    },
    {
      "duration": 0.29734375000043656,
      "end": 287.6047916666671,
      "pitch": 56,
      "start": 287.30744791666666,
      "velocity": 74
    },
    {
      "duration": 0.2920312500000364,
      "end": 287.6047916666671,
      "pitch": 68,
      "start": 287.31276041666706,
      "velocity": 75
    },
    {
      "duration": 0.29104166666729725,
      "end": 287.6047916666671,
      "pitch": 80,
      "start": 287.3137499999998,
      "velocity": 85
    },
    {
      "duration": 0.11604166666711535,
      "end": 287.6047916666671,
      "pitch": 61,
      "start": 287.48875,
      "velocity": 92
    },
    {
      "duration": 0.11067708333393966,
      "end": 287.6047916666671,
      "pitch": 49,
      "start": 287.49411458333316,
      "velocity": 88
    },
    {
      "duration": 0.10973958333397604,
      "end": 287.6047916666671,
      "pitch": 85,
      "start": 287.4950520833331,
      "velocity": 97
    },
    {
      "duration": 0.10333333333346673,
      "end": 287.6047916666671,
      "pitch": 73,
      "start": 287.50145833333363,
      "velocity": 86
    },
    {
      "duration": 0.34880208333288465,
      "end": 287.99947916666633,
      "pitch": 49,
      "start": 287.65067708333345,
      "velocity": 82
    },
    {
      "duration": 0.34786458333292103,
      "end": 287.99947916666633,
      "pitch": 61,
      "start": 287.6516145833334,
      "velocity": 81
    },
    {
      "duration": 0.34338541666602396,
      "end": 287.99947916666633,
      "pitch": 85,
      "start": 287.6560937500003,
      "velocity": 92
    },
    {
      "duration": 0.3413541666659512,
      "end": 287.99947916666633,
      "pitch": 73,
      "start": 287.6581250000004,
      "velocity": 73
    },
    {
      "duration": 0.2453125000001819,
      "end": 288.2141145833334,
      "pitch": 86,
      "start": 287.96880208333323,
      "velocity": 92
    },
    {
      "duration": 0.10296874999949068,
      "end": 288.0757291666664,
      "pitch": 74,
      "start": 287.9727604166669,
      "velocity": 93
    },
    {
      "duration": 0.24395833333346673,
      "end": 288.2180729166671,
      "pitch": 62,
      "start": 287.97411458333363,
      "velocity": 94
    },
    {
      "duration": 0.23802083333339397,
      "end": 288.2247395833333,
      "pitch": 50,
      "start": 287.9867187499999,
      "velocity": 76
    },
    {
      "duration": 0.738020833333394,
      "end": 288.9521354166668,
      "pitch": 86,
      "start": 288.2141145833334,
      "velocity": 78
    },
    {
      "duration": 0.734062499999709,
      "end": 288.9521354166668,
      "pitch": 62,
      "start": 288.2180729166671,
      "velocity": 92
    },
    {
      "duration": 0.7337500000003274,
      "end": 288.9521354166668,
      "pitch": 74,
      "start": 288.2183854166665,
      "velocity": 81
    },
    {
      "duration": 0.7273958333335031,
      "end": 288.9521354166668,
      "pitch": 50,
      "start": 288.2247395833333,
      "velocity": 91
    },
    {
      "duration": 0.16760416666693345,
      "end": 288.5810416666668,
      "pitch": 61,
      "start": 288.4134374999999,
      "velocity": 88
    },
    {
      "duration": 0.17473958333357587,
      "end": 288.5891145833334,
      "pitch": 85,
      "start": 288.41437499999984,
      "velocity": 91
    },
    {
      "duration": 0.16531249999934516,
      "end": 288.5807291666665,
      "pitch": 49,
      "start": 288.41541666666717,
      "velocity": 89
    },
    {
      "duration": 0.1743229166668243,
      "end": 288.5911458333335,
      "pitch": 73,
      "start": 288.41682291666666,
      "velocity": 87
    },
    {
      "duration": 0.37140625000029104,
      "end": 288.9521354166668,
      "pitch": 49,
      "start": 288.5807291666665,
      "velocity": 83
    },
    {
      "duration": 0.37109375,
      "end": 288.9521354166668,
      "pitch": 61,
      "start": 288.5810416666668,
      "velocity": 72
    },
    {
      "duration": 0.36302083333339397,
      "end": 288.9521354166668,
      "pitch": 85,
      "start": 288.5891145833334,
      "velocity": 90
    },
    {
      "duration": 0.3609895833333212,
      "end": 288.9521354166668,
      "pitch": 73,
      "start": 288.5911458333335,
      "velocity": 79
    },
    {
      "duration": 0.17401041666653327,
      "end": 288.94473958333356,
      "pitch": 57,
      "start": 288.770729166667,
      "velocity": 86
    },
    {
      "duration": 0.16036458333383052,
      "end": 288.94140625000045,
      "pitch": 69,
      "start": 288.7810416666666,
      "velocity": 95
    },
    {
      "duration": 0.17015625000021828,
      "end": 288.9521354166668,
      "pitch": 81,
      "start": 288.7819791666666,
      "velocity": 92
    },
    {
      "duration": 0.16036458333383052,
      "end": 288.94338541666684,
      "pitch": 45,
      "start": 288.783020833333,
      "velocity": 91
    },
    {
      "duration": 1.0896874999998545,
      "end": 290.0310937500003,
      "pitch": 69,
      "start": 288.94140625000045,
      "velocity": 76
    },
    {
      "duration": 1.0877083333334667,
      "end": 290.0310937500003,
      "pitch": 45,
      "start": 288.94338541666684,
      "velocity": 85
    },
    {
      "duration": 1.0863541666667516,
      "end": 290.0310937500003,
      "pitch": 57,
      "start": 288.94473958333356,
      "velocity": 81
    },
    {
      "duration": 1.0756250000004002,
      "end": 290.0310937500003,
      "pitch": 81,
      "start": 288.9554687499999,
      "velocity": 97
    },
    {
      "duration": 0.15333333333364862,
      "end": 289.2740625000001,
      "pitch": 44,
      "start": 289.1207291666665,
      "velocity": 92
    },
    {
      "duration": 0.15802083333255723,
      "end": 289.28072916666633,
      "pitch": 68,
      "start": 289.1227083333338,
      "velocity": 96
    },
    {
      "duration": 0.14901041666689707,
      "end": 289.27510416666655,
      "pitch": 56,
      "start": 289.12609374999965,
      "velocity": 86
    },
    {
      "duration": 0.15265624999938154,
      "end": 289.2827604166664,
      "pitch": 80,
      "start": 289.130104166667,
      "velocity": 89
    },
    {
      "duration": 0.7570312500001819,
      "end": 290.0310937500003,
      "pitch": 44,
      "start": 289.2740625000001,
      "velocity": 92
    },
    {
      "duration": 0.7559895833337578,
      "end": 290.0310937500003,
      "pitch": 56,
      "start": 289.27510416666655,
      "velocity": 84
    },
    {
      "duration": 0.750364583333976,
      "end": 290.0310937500003,
      "pitch": 68,
      "start": 289.28072916666633,
      "velocity": 75
    },
    {
      "duration": 0.7483333333339033,
      "end": 290.0310937500003,
      "pitch": 80,
      "start": 289.2827604166664,
      "velocity": 99
    },
    {
      "duration": 0.5690104166669698,
      "end": 290.0310937500003,
      "pitch": 61,
      "start": 289.46208333333334,
      "velocity": 95
    },
    {
      "duration": 0.5650520833332848,
      "end": 290.0310937500003,
      "pitch": 49,
      "start": 289.466041666667,
      "velocity": 91
    },
    {
      "duration": 0.5641666666670062,
      "end": 290.0310937500003,
      "pitch": 85,
      "start": 289.4669270833333,
      "velocity": 101
    },
    {
      "duration": 0.558333333333394,
      "end": 290.0310937500003,
      "pitch": 73,
      "start": 289.4727604166669,
      "velocity": 92
    },
    {
      "duration": 0.19401041666696983,
      "end": 289.97072916666684,
      "pitch": 62,
      "start": 289.7767187499999,
      "velocity": 87
    },
    {
      "duration": 0.19401041666606034,
      "end": 289.98104166666644,
      "pitch": 50,
      "start": 289.7870312500004,
      "velocity": 81
    },
    {
      "duration": 0.18796874999952706,
      "end": 289.97906250000005,
      "pitch": 86,
      "start": 289.7910937500005,
      "velocity": 91
    },
    {
      "duration": 0.195260416666315,
      "end": 289.990052083333,
      "pitch": 74,
      "start": 289.7947916666667,
      "velocity": 75
    },
    {
      "duration": 0.0929687500001819,
      "end": 290.063697916667,
      "pitch": 62,
      "start": 289.97072916666684,
      "velocity": 78
    },
    {
      "duration": 0.17927083333324845,
      "end": 290.1583333333333,
      "pitch": 86,
      "start": 289.97906250000005,
      "velocity": 86
    },
    {
      "duration": 0.7717187500002183,
      "end": 290.75276041666666,
      "pitch": 50,
      "start": 289.98104166666644,
      "velocity": 89
    },
    {
      "duration": 0.06968750000032742,
      "end": 290.05973958333334,
      "pitch": 74,
      "start": 289.990052083333,
      "velocity": 74
    },
    {
      "duration": 0.17598958333383052,
      "end": 290.3313541666671,
      "pitch": 49,
      "start": 290.15536458333327,
      "velocity": 94
    },
    {
      "duration": 0.1633854166666424,
      "end": 290.3207291666663,
      "pitch": 61,
      "start": 290.15734374999965,
      "velocity": 93
    },
    {
      "duration": 0.16130208333288465,
      "end": 290.3260416666667,
      "pitch": 73,
      "start": 290.1647395833338,
      "velocity": 94
    },
    {
      "duration": 0.1702604166666788,
      "end": 290.33536458333356,
      "pitch": 85,
      "start": 290.1651041666669,
      "velocity": 91
    },
    {
      "duration": 0.4320312500003638,
      "end": 290.75276041666666,
      "pitch": 61,
      "start": 290.3207291666663,
      "velocity": 86
    },
    {
      "duration": 0.4267187499999636,
      "end": 290.75276041666666,
      "pitch": 73,
      "start": 290.3260416666667,
      "velocity": 79
    },
    {
      "duration": 0.42140624999956344,
      "end": 290.75276041666666,
      "pitch": 49,
      "start": 290.3313541666671,
      "velocity": 93
    },
    {
      "duration": 0.41739583333310293,
      "end": 290.75276041666666,
      "pitch": 85,
      "start": 290.33536458333356,
      "velocity": 95
    }
  ],
  [
    {
      "duration": 0.20567708333328483,
      "end": 290.72572916666695,
      "pitch": 66,
      "start": 290.52005208333367,
      "velocity": 95
    },
    {
      "duration": 0.20135416666653327,
      "end": 290.7247395833333,
      "pitch": 54,
      "start": 290.52338541666677,
      "velocity": 96
    },
    {
      "duration": 0.2030729166672245,
      "end": 290.73046875000045,
      "pitch": 90,
      "start": 290.52739583333323,
      "velocity": 103
    },
    {
      "duration": 0.19802083333252085,
      "end": 290.7267187499997,
      "pitch": 78,
      "start": 290.52869791666717,
      "velocity": 96
    },
    {
      "duration": 1.1627083333332848,
      "end": 291.8874479166666,
      "pitch": 54,
      "start": 290.7247395833333,
      "velocity": 88
    },
    {
      "duration": 1.1617187499996362,
      "end": 291.8874479166666,
      "pitch": 66,
      "start": 290.72572916666695,
      "velocity": 89
    },
    {
      "duration": 1.160729166666897,
      "end": 291.8874479166666,
      "pitch": 78,
      "start": 290.7267187499997,
      "velocity": 88
    },
    {
      "duration": 1.156979166666133,
      "end": 291.8874479166666,
      "pitch": 90,
      "start": 290.73046875000045,
      "velocity": 101
    },
    {
      "duration": 0.2257291666664969,
      "end": 291.18109374999995,
      "pitch": 65,
      "start": 290.95536458333345,
      "velocity": 93
    },
    {
      "duration": 0.23244791666638775,
      "end": 291.1888020833335,
      "pitch": 89,
      "start": 290.9563541666671,
      "velocity": 97
    },
    {
      "duration": 0.23072916666660603,
      "end": 291.19005208333374,
      "pitch": 77,
      "start": 290.95932291666713,
      "velocity": 99
    },
    {
      "duration": 0.22395833333303017,
      "end": 291.18468749999965,
      "pitch": 53,
      "start": 290.9607291666666,
      "velocity": 92
    },
    {
      "duration": 0.7063541666666424,
      "end": 291.8874479166666,
      "pitch": 65,
      "start": 291.18109374999995,
      "velocity": 80
    },
    {
      "duration": 0.7027604166669335,
      "end": 291.8874479166666,
      "pitch": 53,
      "start": 291.18468749999965,
      "velocity": 84
    },
    {
      "duration": 0.6986458333331029,
      "end": 291.8874479166666,
      "pitch": 89,
      "start": 291.1888020833335,
      "velocity": 95
    },
    {
      "duration": 0.6973958333328483,
      "end": 291.8874479166666,
      "pitch": 77,
      "start": 291.19005208333374,
      "velocity": 79
    },
    {
      "duration": 0.6707291666662059,
      "end": 291.8874479166666,
      "pitch": 87,
      "start": 291.2167187500004,
      "velocity": 61
    },
    {
      "duration": 0.39338541666620586,
      "end": 291.8874479166666,
      "pitch": 61,
      "start": 291.4940625000004,
      "velocity": 90
    },
    {
      "duration": 0.39161458333273913,
      "end": 291.8874479166666,
      "pitch": 73,
      "start": 291.49583333333385,
      "velocity": 92
    },
    {
      "duration": 0.3826562499998545,
      "end": 291.8820312499997,
      "pitch": 85,
      "start": 291.4993749999999,
      "velocity": 99
    },
    {
      "duration": 0.3796874999998181,
      "end": 291.88005208333334,
      "pitch": 97,
      "start": 291.5003645833335,
      "velocity": 107
    },
    {
      "duration": 0.7039583333335031,
      "end": 292.58401041666684,
      "pitch": 97,
      "start": 291.88005208333334,
      "velocity": 107
    },
    {
      "duration": 0.7019791666671154,
      "end": 292.58401041666684,
      "pitch": 85,
      "start": 291.8820312499997,
      "velocity": 100
    },
    {
      "duration": 0.6933333333336122,
      "end": 292.58401041666684,
      "pitch": 73,
      "start": 291.89067708333323,
      "velocity": 100
    },
    {
      "duration": 0.6829687500003274,
      "end": 292.58401041666684,
      "pitch": 61,
      "start": 291.9010416666665,
      "velocity": 102
    },
    {
      "duration": 1.3157291666666424,
      "end": 294.57177083333363,
      "pitch": 66,
      "start": 293.256041666667,
      "velocity": 107
    },
    {
      "duration": 1.2606770833335759,
      "end": 294.52203125000005,
      "pitch": 42,
      "start": 293.2613541666665,
      "velocity": 89
    },
    {
      "duration": 1.2554166666668607,
      "end": 294.52203125000005,
      "pitch": 30,
      "start": 293.2666145833332,
      "velocity": 80
    },
    {
      "duration": 0.15328124999996362,
      "end": 293.98859374999984,
      "pitch": 49,
      "start": 293.8353124999999,
      "velocity": 81
    },
    {
      "duration": 0.13656249999985448,
      "end": 293.98661458333345,
      "pitch": 57,
      "start": 293.8500520833336,
      "velocity": 64
    },
    {
      "duration": 0.136666666666315,
      "end": 294.12328124999976,
      "pitch": 57,
      "start": 293.98661458333345,
      "velocity": 52
    },
    {
      "duration": 0.5334375000002183,
      "end": 294.52203125000005,
      "pitch": 49,
      "start": 293.98859374999984,
      "velocity": 37
    },
    {
      "duration": 0.13661458333353949,
      "end": 294.134010416667,
      "pitch": 54,
      "start": 293.9973958333335,
      "velocity": 74
    },
    {
      "duration": 0.39875000000029104,
      "end": 294.52203125000005,
      "pitch": 57,
      "start": 294.12328124999976,
      "velocity": 90
    },
    {
      "duration": 0.36458333333303017,
      "end": 294.49859375000005,
      "pitch": 54,
      "start": 294.134010416667,
      "velocity": 54
    },
    {
      "duration": 0.38411458333303017,
      "end": 294.52203125000005,
      "pitch": 45,
      "start": 294.137916666667,
      "velocity": 75
    },
    {
      "duration": 0.3146354166665333,
      "end": 294.482604166667,
      "pitch": 47,
      "start": 294.16796875000045,
      "velocity": 59
    },
    {
      "duration": 0.08234374999938154,
      "end": 294.56494791666637,
      "pitch": 47,
      "start": 294.482604166667,
      "velocity": 71
    },
    {
      "duration": 0.07692708333343035,
      "end": 294.5735416666671,
      "pitch": 56,
      "start": 294.49661458333367,
      "velocity": 87
    },
    {
      "duration": 0.06666666666660603,
      "end": 294.56526041666666,
      "pitch": 54,
      "start": 294.49859375000005,
      "velocity": 74
    },
    {
      "duration": 0.18328125000061846,
      "end": 294.6852083333338,
      "pitch": 64,
      "start": 294.50192708333316,
      "velocity": 95
    },
    {
      "duration": 0.2454166666666424,
      "end": 294.9128125000002,
      "pitch": 62,
      "start": 294.66739583333356,
      "velocity": 97
    },
    {
      "duration": 0.8726562499996362,
      "end": 295.7286458333333,
      "pitch": 61,
      "start": 294.85598958333367,
      "velocity": 100
    },
    {
      "duration": 0.16885416666627862,
      "end": 295.03010416666666,
      "pitch": 59,
      "start": 294.8612500000004,
      "velocity": 81
    },
    {
      "duration": 0.4108854166661331,
      "end": 295.28791666666666,
      "pitch": 49,
      "start": 294.8770312500005,
      "velocity": 75
    },
    {
      "duration": 0.8506770833328119,
      "end": 295.7286458333333,
      "pitch": 53,
      "start": 294.8779687500005,
      "velocity": 86
    },
    {
      "duration": 0.4493750000001455,
      "end": 295.7286458333333,
      "pitch": 63,
      "start": 295.27927083333316,
      "velocity": 97
    },
    {
      "duration": 0.4407291666666424,
      "end": 295.7286458333333,
      "pitch": 49,
      "start": 295.28791666666666,
      "velocity": 39
    },
    {
      "duration": 0.22005208333303017,
      "end": 295.7286458333333,
      "pitch": 65,
      "start": 295.5085937500003,
      "velocity": 95
    },
    {
      "duration": 1.0633854166662786,
      "end": 296.82062499999984,
      "pitch": 30,
      "start": 295.75723958333356,
      "velocity": 102
    },
    {
      "duration": 1.062447916666315,
      "end": 296.82062499999984,
      "pitch": 42,
      "start": 295.7581770833335,
      "velocity": 96
    },
    {
      "duration": 1.031718749999527,
      "end": 296.82062499999984,
      "pitch": 65,
      "start": 295.7889062500003,
      "velocity": 107
    },
    {
      "duration": 0.15411458333346673,
      "end": 296.23468749999984,
      "pitch": 66,
      "start": 296.08057291666637,
      "velocity": 79
    },
    {
      "duration": 0.14203125000040018,
      "end": 296.2906250000001,
      "pitch": 68,
      "start": 296.1485937499997,
      "velocity": 91
    },
    {
      "duration": 0.18333333333339397,
      "end": 296.3439062499997,
      "pitch": 49,
      "start": 296.1605729166663,
      "velocity": 66
    },
    {
      "duration": 0.16031250000014552,
      "end": 296.3332812499998,
      "pitch": 54,
      "start": 296.17296874999965,
      "velocity": 52
    },
    {
      "duration": 0.15130208333357587,
      "end": 296.3352083333334,
      "pitch": 57,
      "start": 296.18390624999984,
      "velocity": 44
    },
    {
      "duration": 0.13390625000010914,
      "end": 296.36859374999995,
      "pitch": 66,
      "start": 296.23468749999984,
      "velocity": 75
    },
    {
      "duration": 0.12598958333364862,
      "end": 296.41661458333374,
      "pitch": 68,
      "start": 296.2906250000001,
      "velocity": 85
    },
    {
      "duration": 0.16531250000025466,
      "end": 296.49859375000005,
      "pitch": 54,
      "start": 296.3332812499998,
      "velocity": 40
    },
    {
      "duration": 0.16432291666660603,
      "end": 296.49953125,
      "pitch": 57,
      "start": 296.3352083333334,
      "velocity": 54
    },
    {
      "duration": 0.1493229166671881,
      "end": 296.4932291666669,
      "pitch": 49,
      "start": 296.3439062499997,
      "velocity": 35
    },
    {
      "duration": 0.1226562500005457,
      "end": 296.4912500000005,
      "pitch": 66,
      "start": 296.36859374999995,
      "velocity": 91
    },
    {
      "duration": 0.4040104166660967,
      "end": 296.82062499999984,
      "pitch": 68,
      "start": 296.41661458333374,
      "velocity": 81
    },
    {
      "duration": 0.38645833333248447,
      "end": 296.877708333333,
      "pitch": 66,
      "start": 296.4912500000005,
      "velocity": 97
    },
    {
      "duration": 0.3273958333329574,
      "end": 296.82062499999984,
      "pitch": 49,
      "start": 296.4932291666669,
      "velocity": 81
    },
    {
      "duration": 0.3220312499997817,
      "end": 296.82062499999984,
      "pitch": 54,
      "start": 296.49859375000005,
      "velocity": 77
    },
    {
      "duration": 0.3210937499998181,
      "end": 296.82062499999984,
      "pitch": 57,
      "start": 296.49953125,
      "velocity": 84
    },
    {
      "duration": 0.04812500000025466,
      "end": 296.89869791666706,
      "pitch": 50,
      "start": 296.8505729166668,
      "velocity": 75
    },
    {
      "duration": 0.06124999999974534,
      "end": 296.9127604166665,
      "pitch": 54,
      "start": 296.85151041666677,
      "velocity": 80
    },
    {
      "duration": 0.046770833333539485,
      "end": 296.90067708333345,
      "pitch": 59,
      "start": 296.8539062499999,
      "velocity": 76
    },
    {
      "duration": 0.26666666666642413,
      "end": 297.1312499999999,
      "pitch": 65,
      "start": 296.8645833333335,
      "velocity": 100
    },
    {
      "duration": 0.21354166666696983,
      "end": 297.28078125,
      "pitch": 66,
      "start": 297.06723958333305,
      "velocity": 93
    },
    {
      "duration": 0.21000000000003638,
      "end": 297.5012499999998,
      "pitch": 68,
      "start": 297.29124999999976,
      "velocity": 100
    },
    {
      "duration": 0.42463541666620586,
      "end": 297.71989583333334,
      "pitch": 49,
      "start": 297.29526041666713,
      "velocity": 91
    },
    {
      "duration": 0.8719270833325936,
      "end": 298.1681249999997,
      "pitch": 56,
      "start": 297.2961979166671,
      "velocity": 87
    },
    {
      "duration": 0.8716666666659876,
      "end": 298.1681249999997,
      "pitch": 59,
      "start": 297.2964583333337,
      "velocity": 69
    },
    {
      "duration": 0.6685937500005821,
      "end": 297.9758854166671,
      "pitch": 65,
      "start": 297.3072916666665,
      "velocity": 102
    },
    {
      "duration": 0.18083333333288465,
      "end": 297.61276041666633,
      "pitch": 69,
      "start": 297.43192708333345,
      "velocity": 87
    },
    {
      "duration": 0.16531250000025466,
      "end": 297.66656250000005,
      "pitch": 68,
      "start": 297.5012499999998,
      "velocity": 83
    },
    {
      "duration": 0.5553645833333576,
      "end": 298.1681249999997,
      "pitch": 69,
      "start": 297.61276041666633,
      "velocity": 88
    },
    {
      "duration": 0.3006770833335395,
      "end": 297.9672395833336,
      "pitch": 68,
      "start": 297.66656250000005,
      "velocity": 94
    },
    {
      "duration": 0.4516145833331393,
      "end": 298.1681249999997,
      "pitch": 37,
      "start": 297.71651041666655,
      "velocity": 93
    },
    {
      "duration": 0.4482291666663514,
      "end": 298.1681249999997,
      "pitch": 49,
      "start": 297.71989583333334,
      "velocity": 79
    },
    {
      "duration": 0.42156249999970896,
      "end": 298.1681249999997,
      "pitch": 66,
      "start": 297.7465625,
      "velocity": 97
    },
    {
      "duration": 0.39817708333339397,
      "end": 298.1681249999997,
      "pitch": 63,
      "start": 297.7699479166663,
      "velocity": 81
    },
    {
      "duration": 0.32364583333310293,
      "end": 298.2908854166667,
      "pitch": 68,
      "start": 297.9672395833336,
      "velocity": 104
    },
    {
      "duration": 0.2648958333329574,
      "end": 298.24078125000005,
      "pitch": 65,
      "start": 297.9758854166671,
      "velocity": 91
    },
    {
      "duration": 1.219322916666897,
      "end": 299.43718750000016,
      "pitch": 66,
      "start": 298.21786458333327,
      "velocity": 91
    },
    {
      "duration": 1.2342187499998545,
      "end": 299.4554687499999,
      "pitch": 69,
      "start": 298.22125000000005,
      "velocity": 106
    },
    {
      "duration": 0.13546874999974534,
      "end": 298.3600000000001,
      "pitch": 30,
      "start": 298.2245312500004,
      "velocity": 97
    },
    {
      "duration": 1.1777604166663878,
      "end": 299.40322916666673,
      "pitch": 42,
      "start": 298.22546875000035,
      "velocity": 95
    },
    {
      "duration": 0.16062500000043656,
      "end": 298.81583333333356,
      "pitch": 54,
      "start": 298.6552083333331,
      "velocity": 74
    },
    {
      "duration": 0.15635416666646051,
      "end": 298.8148958333336,
      "pitch": 49,
      "start": 298.65854166666713,
      "velocity": 74
    },
    {
      "duration": 0.15499999999974534,
      "end": 298.8218750000001,
      "pitch": 57,
      "start": 298.66687500000035,
      "velocity": 65
    },
    {
      "duration": 0.17093750000003638,
      "end": 298.98583333333363,
      "pitch": 49,
      "start": 298.8148958333336,
      "velocity": 58
    },
    {
      "duration": 0.1647395833333576,
      "end": 298.9805729166669,
      "pitch": 54,
      "start": 298.81583333333356,
      "velocity": 61
    },
    {
      "duration": 0.15999999999985448,
      "end": 298.98187499999995,
      "pitch": 57,
      "start": 298.8218750000001,
      "velocity": 57
    },
    {
      "duration": 0.3915624999999636,
      "end": 299.3721354166669,
      "pitch": 54,
      "start": 298.9805729166669,
      "velocity": 81
    },
    {
      "duration": 0.38401041666656965,
      "end": 299.3658854166665,
      "pitch": 57,
      "start": 298.98187499999995,
      "velocity": 81
    }
  ]
]
